M48
;GenerationSoftware,Autodesk,EAGLE,9.6.2*%
;CreationDate,2020-12-04T16:20:53Z*%
FMAT,2
ICI,OFF
METRIC,TZ,000.000
T3C0.300
T2C1.016
T1C3.302
%
G90
M71
T1
X22860Y74676
X152400Y74676
X2540Y22860
X22860Y22860
X28448Y22860
X48768Y22860
X54356Y22860
X74676Y22860
X80264Y22860
X100584Y22860
X106172Y22860
X126492Y22860
X132080Y22860
X152400Y22860
X2540Y48768
X22860Y48768
X28448Y48768
X48768Y48768
X54356Y48768
X74676Y48768
X80264Y48768
X100584Y48768
X106172Y48768
X126492Y48768
X132080Y48768
X152400Y48768
X2540Y74676
X74676Y126492
X28448Y74676
X48768Y74676
X54356Y74676
X74676Y74676
X80264Y74676
X100584Y74676
X106172Y74676
X126492Y74676
X132080Y74676
X2540Y100584
X22860Y100584
X28448Y100584
X48768Y100584
X54356Y100584
X74676Y100584
X80264Y100584
X100584Y100584
X106172Y100584
X126492Y100584
X132080Y100584
X152400Y100584
X2540Y126492
X22860Y126492
X28448Y126492
X48768Y126492
X54356Y126492
X152400Y152400
X80264Y126492
X100584Y126492
X106172Y126492
X126492Y126492
X132080Y126492
X152400Y126492
X2540Y152400
X22860Y152400
X28448Y152400
X48768Y152400
X54356Y152400
X74676Y152400
X80264Y152400
X100584Y152400
X106172Y152400
X126492Y152400
X132080Y152400
T2
X146050Y130810
X8890Y1270
X11430Y1270
X13970Y1270
X16510Y1270
X34798Y1270
X37338Y1270
X39878Y1270
X42418Y1270
X60706Y1270
X63246Y1270
X65786Y1270
X68326Y1270
X86614Y1270
X89154Y1270
X91694Y1270
X94234Y1270
X112522Y1270
X115062Y1270
X117602Y1270
X120142Y1270
X138430Y1270
X140970Y1270
X143510Y1270
X146050Y1270
X8890Y27178
X11430Y27178
X13970Y27178
X16510Y27178
X34798Y27178
X37338Y27178
X39878Y27178
X42418Y27178
X60706Y27178
X63246Y27178
X65786Y27178
X68326Y27178
X86614Y27178
X89154Y27178
X91694Y27178
X94234Y27178
X112522Y27178
X115062Y27178
X117602Y27178
X120142Y27178
X138430Y27178
X140970Y27178
X143510Y27178
X146050Y27178
X8890Y53086
X11430Y53086
X13970Y53086
X16510Y53086
X34798Y53086
X37338Y53086
X39878Y53086
X42418Y53086
X60706Y53086
X63246Y53086
X65786Y53086
X68326Y53086
X86614Y53086
X89154Y53086
X91694Y53086
X94234Y53086
X112522Y53086
X115062Y53086
X117602Y53086
X120142Y53086
X138430Y53086
X140970Y53086
X143510Y53086
X146050Y53086
X8890Y78994
X11430Y78994
X13970Y78994
X16510Y78994
X34798Y78994
X37338Y78994
X39878Y78994
X42418Y78994
X60706Y78994
X63246Y78994
X65786Y78994
X68326Y78994
X86614Y78994
X89154Y78994
X91694Y78994
X94234Y78994
X112522Y78994
X115062Y78994
X117602Y78994
X120142Y78994
X138430Y78994
X140970Y78994
X143510Y78994
X146050Y78994
X8890Y104902
X11430Y104902
X13970Y104902
X16510Y104902
X34798Y104902
X37338Y104902
X39878Y104902
X42418Y104902
X60706Y104902
X63246Y104902
X65786Y104902
X68326Y104902
X86614Y104902
X89154Y104902
X91694Y104902
X94234Y104902
X112522Y104902
X115062Y104902
X117602Y104902
X120142Y104902
X138430Y104902
X140970Y104902
X143510Y104902
X146050Y104902
X8890Y130810
X11430Y130810
X13970Y130810
X16510Y130810
X34798Y130810
X37338Y130810
X39878Y130810
X42418Y130810
X60706Y130810
X63246Y130810
X65786Y130810
X68326Y130810
X86614Y130810
X89154Y130810
X91694Y130810
X94234Y130810
X112522Y130810
X115062Y130810
X117602Y130810
X120142Y130810
X138430Y130810
X140970Y130810
X143510Y130810
T3
X19050Y42418
X10668Y38608
X14859Y37719
X17780Y30988
X22860Y33528
X24130Y38608
X1270Y38608
X15240Y30988
X12700Y30988
X8890Y30988
X11430Y41148
X13970Y41148
X12700Y44958
X17780Y39878
X6350Y36830
X10668Y36830
X13081Y32893
X15240Y32893
X6350Y37719
X10668Y37719
X10160Y43688
X15240Y43688
X29718Y39116
X32258Y39116
X47371Y38100
X44958Y38100
X26924Y32258
X35052Y34544
X42164Y34544
X47371Y37084
X44958Y37084
X32258Y40132
X29718Y40132
X32258Y42418
X44958Y42418
X36576Y38608
X40767Y37719
X43688Y30988
X48768Y33528
X50038Y38608
X27178Y38608
X41148Y30988
X38608Y30988
X34798Y30988
X37338Y41148
X39878Y41148
X38608Y44958
X43688Y39878
X32258Y36830
X36576Y36830
X38989Y32893
X41148Y32893
X32258Y37719
X36576Y37719
X36068Y43688
X41148Y43688
X55626Y39116
X58166Y39116
X73279Y38100
X70866Y38100
X52832Y32258
X60960Y34544
X68072Y34544
X73279Y37084
X70866Y37084
X58166Y40132
X55626Y40132
X58166Y42418
X70866Y42418
X62484Y38608
X66675Y37719
X69596Y30988
X74676Y33528
X75946Y38608
X53086Y38608
X67056Y30988
X64516Y30988
X60706Y30988
X63246Y41148
X65786Y41148
X64516Y44958
X69596Y39878
X58166Y36830
X62484Y36830
X64897Y32893
X67056Y32893
X58166Y37719
X62484Y37719
X61976Y43688
X67056Y43688
X81534Y39116
X84074Y39116
X99187Y38100
X96774Y38100
X78740Y32258
X86868Y34544
X93980Y34544
X99187Y37084
X96774Y37084
X84074Y40132
X81534Y40132
X84074Y42418
X96774Y42418
X88392Y38608
X92583Y37719
X95504Y30988
X100584Y33528
X101854Y38608
X78994Y38608
X92964Y30988
X90424Y30988
X86614Y30988
X89154Y41148
X91694Y41148
X90424Y44958
X95504Y39878
X84074Y36830
X88392Y36830
X90805Y32893
X92964Y32893
X84074Y37719
X88392Y37719
X87884Y43688
X92964Y43688
X107442Y39116
X109982Y39116
X125095Y38100
X122682Y38100
X104648Y32258
X112776Y34544
X119888Y34544
X125095Y37084
X122682Y37084
X109982Y40132
X107442Y40132
X109982Y42418
X122682Y42418
X114300Y38608
X118491Y37719
X121412Y30988
X126492Y33528
X127762Y38608
X104902Y38608
X118872Y30988
X116332Y30988
X112522Y30988
X115062Y41148
X117602Y41148
X116332Y44958
X121412Y39878
X109982Y36830
X114300Y36830
X116713Y32893
X118872Y32893
X109982Y37719
X114300Y37719
X113792Y43688
X118872Y43688
X133350Y39116
X135890Y39116
X151003Y38100
X148590Y38100
X130556Y32258
X138684Y34544
X145796Y34544
X151003Y37084
X148590Y37084
X135890Y40132
X133350Y40132
X135890Y42418
X148590Y42418
X140208Y38608
X144399Y37719
X147320Y30988
X152400Y33528
X153670Y38608
X130810Y38608
X144780Y30988
X142240Y30988
X138430Y30988
X140970Y41148
X143510Y41148
X142240Y44958
X147320Y39878
X135890Y36830
X140208Y36830
X142621Y32893
X144780Y32893
X135890Y37719
X140208Y37719
X139700Y43688
X144780Y43688
X3810Y65024
X6350Y65024
X21463Y64008
X19050Y64008
X1016Y58166
X9144Y60452
X16256Y60452
X21463Y62992
X19050Y62992
X6350Y66040
X3810Y66040
X6350Y68326
X19050Y68326
X10668Y64516
X14859Y63627
X17780Y56896
X22860Y59436
X24130Y64516
X1270Y64516
X15240Y56896
X12700Y56896
X8890Y56896
X11430Y67056
X13970Y67056
X12700Y70866
X17780Y65786
X6350Y62738
X10668Y62738
X13081Y58801
X15240Y58801
X6350Y63627
X10668Y63627
X10160Y69596
X15240Y69596
X29718Y65024
X32258Y65024
X47371Y64008
X44958Y64008
X26924Y58166
X35052Y60452
X42164Y60452
X47371Y62992
X44958Y62992
X32258Y66040
X29718Y66040
X32258Y68326
X44958Y68326
X36576Y64516
X40767Y63627
X43688Y56896
X48768Y59436
X50038Y64516
X27178Y64516
X41148Y56896
X38608Y56896
X34798Y56896
X37338Y67056
X39878Y67056
X38608Y70866
X43688Y65786
X32258Y62738
X36576Y62738
X38989Y58801
X41148Y58801
X32258Y63627
X36576Y63627
X36068Y69596
X41148Y69596
X55626Y65024
X58166Y65024
X73279Y64008
X70866Y64008
X52832Y58166
X60960Y60452
X68072Y60452
X73279Y62992
X70866Y62992
X58166Y66040
X55626Y66040
X58166Y68326
X70866Y68326
X62484Y64516
X66675Y63627
X69596Y56896
X74676Y59436
X75946Y64516
X53086Y64516
X67056Y56896
X64516Y56896
X60706Y56896
X63246Y67056
X65786Y67056
X64516Y70866
X69596Y65786
X58166Y62738
X62484Y62738
X64897Y58801
X67056Y58801
X58166Y63627
X62484Y63627
X61976Y69596
X67056Y69596
X81534Y65024
X84074Y65024
X99187Y64008
X96774Y64008
X78740Y58166
X86868Y60452
X93980Y60452
X99187Y62992
X96774Y62992
X84074Y66040
X81534Y66040
X84074Y68326
X96774Y68326
X88392Y64516
X92583Y63627
X95504Y56896
X100584Y59436
X101854Y64516
X78994Y64516
X92964Y56896
X90424Y56896
X86614Y56896
X89154Y67056
X91694Y67056
X90424Y70866
X95504Y65786
X84074Y62738
X88392Y62738
X90805Y58801
X92964Y58801
X84074Y63627
X88392Y63627
X87884Y69596
X92964Y69596
X107442Y65024
X109982Y65024
X125095Y64008
X122682Y64008
X104648Y58166
X112776Y60452
X119888Y60452
X125095Y62992
X122682Y62992
X109982Y66040
X107442Y66040
X109982Y68326
X122682Y68326
X114300Y64516
X118491Y63627
X121412Y56896
X126492Y59436
X127762Y64516
X104902Y64516
X118872Y56896
X116332Y56896
X112522Y56896
X115062Y67056
X117602Y67056
X116332Y70866
X121412Y65786
X109982Y62738
X114300Y62738
X116713Y58801
X118872Y58801
X109982Y63627
X114300Y63627
X113792Y69596
X118872Y69596
X133350Y65024
X135890Y65024
X151003Y64008
X148590Y64008
X130556Y58166
X138684Y60452
X145796Y60452
X151003Y62992
X148590Y62992
X135890Y66040
X133350Y66040
X135890Y68326
X148590Y68326
X140208Y64516
X144399Y63627
X147320Y56896
X152400Y59436
X153670Y64516
X130810Y64516
X144780Y56896
X142240Y56896
X138430Y56896
X140970Y67056
X143510Y67056
X142240Y70866
X147320Y65786
X135890Y62738
X140208Y62738
X142621Y58801
X144780Y58801
X135890Y63627
X140208Y63627
X139700Y69596
X144780Y69596
X3810Y90932
X6350Y90932
X21463Y89916
X19050Y89916
X1016Y84074
X9144Y86360
X16256Y86360
X21463Y88900
X19050Y88900
X6350Y91948
X3810Y91948
X6350Y94234
X19050Y94234
X10668Y90424
X14859Y89535
X17780Y82804
X22860Y85344
X24130Y90424
X1270Y90424
X15240Y82804
X12700Y82804
X8890Y82804
X11430Y92964
X13970Y92964
X12700Y96774
X17780Y91694
X6350Y88646
X10668Y88646
X13081Y84709
X15240Y84709
X6350Y89535
X10668Y89535
X10160Y95504
X15240Y95504
X29718Y90932
X32258Y90932
X47371Y89916
X44958Y89916
X26924Y84074
X35052Y86360
X42164Y86360
X47371Y88900
X44958Y88900
X32258Y91948
X29718Y91948
X32258Y94234
X44958Y94234
X36576Y90424
X40767Y89535
X43688Y82804
X48768Y85344
X50038Y90424
X27178Y90424
X41148Y82804
X38608Y82804
X34798Y82804
X37338Y92964
X39878Y92964
X38608Y96774
X43688Y91694
X32258Y88646
X36576Y88646
X38989Y84709
X41148Y84709
X32258Y89535
X36576Y89535
X36068Y95504
X41148Y95504
X55626Y90932
X58166Y90932
X73279Y89916
X70866Y89916
X52832Y84074
X60960Y86360
X68072Y86360
X73279Y88900
X70866Y88900
X58166Y91948
X55626Y91948
X58166Y94234
X70866Y94234
X62484Y90424
X66675Y89535
X69596Y82804
X74676Y85344
X75946Y90424
X53086Y90424
X67056Y82804
X64516Y82804
X60706Y82804
X63246Y92964
X65786Y92964
X64516Y96774
X69596Y91694
X58166Y88646
X62484Y88646
X64897Y84709
X67056Y84709
X58166Y89535
X62484Y89535
X61976Y95504
X67056Y95504
X81534Y90932
X84074Y90932
X99187Y89916
X96774Y89916
X78740Y84074
X86868Y86360
X133350Y14224
X99187Y88900
X96774Y88900
X84074Y91948
X81534Y91948
X84074Y94234
X96774Y94234
X88392Y90424
X92583Y89535
X95504Y82804
X100584Y85344
X101854Y90424
X78994Y90424
X92964Y82804
X90424Y82804
X86614Y82804
X89154Y92964
X91694Y92964
X90424Y96774
X95504Y91694
X84074Y88646
X88392Y88646
X90805Y84709
X92964Y84709
X84074Y89535
X88392Y89535
X87884Y95504
X92964Y95504
X107442Y90932
X109982Y90932
X125095Y89916
X122682Y89916
X104648Y84074
X112776Y86360
X119888Y86360
X125095Y88900
X122682Y88900
X109982Y91948
X107442Y91948
X109982Y94234
X122682Y94234
X114300Y90424
X118491Y89535
X121412Y82804
X126492Y85344
X127762Y90424
X104902Y90424
X118872Y82804
X116332Y82804
X112522Y82804
X115062Y92964
X117602Y92964
X116332Y96774
X121412Y91694
X109982Y88646
X114300Y88646
X116713Y84709
X118872Y84709
X109982Y89535
X114300Y89535
X113792Y95504
X118872Y95504
X133350Y90932
X135890Y90932
X151003Y89916
X148590Y89916
X130556Y84074
X138684Y86360
X145796Y86360
X151003Y88900
X148590Y88900
X135890Y91948
X133350Y91948
X135890Y94234
X148590Y94234
X140208Y90424
X144399Y89535
X147320Y82804
X152400Y85344
X153670Y90424
X130810Y90424
X144780Y82804
X142240Y82804
X138430Y82804
X140970Y92964
X143510Y92964
X142240Y96774
X147320Y91694
X135890Y88646
X140208Y88646
X142621Y84709
X144780Y84709
X135890Y89535
X140208Y89535
X139700Y95504
X144780Y95504
X3810Y116840
X6350Y116840
X21463Y115824
X19050Y115824
X1016Y109982
X9144Y112268
X16256Y112268
X21463Y114808
X19050Y114808
X6350Y117856
X3810Y117856
X6350Y120142
X19050Y120142
X10668Y116332
X14859Y115443
X17780Y108712
X22860Y111252
X24130Y116332
X1270Y116332
X15240Y108712
X12700Y108712
X8890Y108712
X11430Y118872
X13970Y118872
X12700Y122682
X17780Y117602
X6350Y114554
X10668Y114554
X13081Y110617
X15240Y110617
X6350Y115443
X10668Y115443
X10160Y121412
X15240Y121412
X29718Y116840
X32258Y116840
X47371Y115824
X44958Y115824
X26924Y109982
X35052Y112268
X42164Y112268
X47371Y114808
X44958Y114808
X32258Y117856
X29718Y117856
X32258Y120142
X44958Y120142
X36576Y116332
X40767Y115443
X43688Y108712
X48768Y111252
X50038Y116332
X27178Y116332
X41148Y108712
X38608Y108712
X34798Y108712
X37338Y118872
X39878Y118872
X38608Y122682
X43688Y117602
X32258Y114554
X36576Y114554
X38989Y110617
X41148Y110617
X32258Y115443
X36576Y115443
X36068Y121412
X41148Y121412
X55626Y116840
X58166Y116840
X73279Y115824
X70866Y115824
X52832Y109982
X60960Y112268
X68072Y112268
X73279Y114808
X70866Y114808
X58166Y117856
X55626Y117856
X58166Y120142
X70866Y120142
X62484Y116332
X66675Y115443
X69596Y108712
X74676Y111252
X75946Y116332
X53086Y116332
X67056Y108712
X64516Y108712
X60706Y108712
X63246Y118872
X65786Y118872
X64516Y122682
X69596Y117602
X58166Y114554
X62484Y114554
X64897Y110617
X67056Y110617
X58166Y115443
X62484Y115443
X61976Y121412
X67056Y121412
X81534Y116840
X84074Y116840
X99187Y115824
X96774Y115824
X78740Y109982
X86868Y112268
X93980Y112268
X99187Y114808
X96774Y114808
X84074Y117856
X81534Y117856
X84074Y120142
X96774Y120142
X88392Y116332
X92583Y115443
X95504Y108712
X100584Y111252
X101854Y116332
X78994Y116332
X92964Y108712
X90424Y108712
X86614Y108712
X89154Y118872
X91694Y118872
X90424Y122682
X95504Y117602
X84074Y114554
X88392Y114554
X90805Y110617
X92964Y110617
X84074Y115443
X88392Y115443
X87884Y121412
X92964Y121412
X107442Y116840
X109982Y116840
X125095Y115824
X122682Y115824
X104648Y109982
X112776Y112268
X119888Y112268
X125095Y114808
X122682Y114808
X109982Y117856
X107442Y117856
X109982Y120142
X122682Y120142
X114300Y116332
X118491Y115443
X121412Y108712
X126492Y111252
X127762Y116332
X104902Y116332
X118872Y108712
X116332Y108712
X112522Y108712
X115062Y118872
X117602Y118872
X116332Y122682
X121412Y117602
X109982Y114554
X114300Y114554
X116713Y110617
X118872Y110617
X109982Y115443
X114300Y115443
X113792Y121412
X118872Y121412
X133350Y116840
X135890Y116840
X151003Y115824
X148590Y115824
X130556Y109982
X138684Y112268
X145796Y112268
X151003Y114808
X148590Y114808
X135890Y117856
X133350Y117856
X135890Y120142
X148590Y120142
X140208Y116332
X144399Y115443
X147320Y108712
X152400Y111252
X153670Y116332
X130810Y116332
X144780Y108712
X142240Y108712
X138430Y108712
X140970Y118872
X143510Y118872
X142240Y122682
X147320Y117602
X135890Y114554
X140208Y114554
X142621Y110617
X144780Y110617
X135890Y115443
X140208Y115443
X139700Y121412
X144780Y121412
X3810Y142748
X6350Y142748
X21463Y141732
X19050Y141732
X1016Y135890
X9144Y138176
X16256Y138176
X21463Y140716
X19050Y140716
X6350Y143764
X3810Y143764
X6350Y146050
X19050Y146050
X10668Y142240
X14859Y141351
X17780Y134620
X22860Y137160
X24130Y142240
X1270Y142240
X15240Y134620
X12700Y134620
X8890Y134620
X11430Y144780
X13970Y144780
X12700Y148590
X17780Y143510
X6350Y140462
X10668Y140462
X13081Y136525
X15240Y136525
X6350Y141351
X10668Y141351
X10160Y147320
X15240Y147320
X29718Y142748
X32258Y142748
X47371Y141732
X44958Y141732
X26924Y135890
X35052Y138176
X42164Y138176
X47371Y140716
X44958Y140716
X32258Y143764
X29718Y143764
X32258Y146050
X44958Y146050
X36576Y142240
X40767Y141351
X43688Y134620
X48768Y137160
X50038Y142240
X27178Y142240
X41148Y134620
X38608Y134620
X34798Y134620
X37338Y144780
X39878Y144780
X38608Y148590
X3810Y13208
X32258Y140462
X36576Y140462
X38989Y136525
X41148Y136525
X32258Y141351
X36576Y141351
X36068Y147320
X41148Y147320
X55626Y142748
X58166Y142748
X73279Y141732
X70866Y141732
X52832Y135890
X60960Y138176
X68072Y138176
X73279Y140716
X70866Y140716
X58166Y143764
X55626Y143764
X58166Y146050
X70866Y146050
X62484Y142240
X66675Y141351
X69596Y134620
X74676Y137160
X75946Y142240
X53086Y142240
X67056Y134620
X64516Y134620
X60706Y134620
X63246Y144780
X65786Y144780
X64516Y148590
X69596Y143510
X58166Y140462
X62484Y140462
X64897Y136525
X67056Y136525
X58166Y141351
X62484Y141351
X61976Y147320
X67056Y147320
X81534Y142748
X84074Y142748
X99187Y141732
X96774Y141732
X78740Y135890
X86868Y138176
X93980Y138176
X99187Y140716
X96774Y140716
X84074Y143764
X81534Y143764
X84074Y146050
X96774Y146050
X88392Y142240
X92583Y141351
X95504Y134620
X100584Y137160
X101854Y142240
X78994Y142240
X92964Y134620
X90424Y134620
X86614Y134620
X89154Y144780
X91694Y144780
X90424Y148590
X95504Y143510
X84074Y140462
X88392Y140462
X90805Y136525
X92964Y136525
X84074Y141351
X88392Y141351
X87884Y147320
X92964Y147320
X107442Y142748
X109982Y142748
X125095Y141732
X122682Y141732
X104648Y135890
X112776Y138176
X119888Y138176
X125095Y140716
X122682Y140716
X109982Y143764
X107442Y143764
X109982Y146050
X122682Y146050
X114300Y142240
X118491Y141351
X121412Y134620
X126492Y137160
X127762Y142240
X104902Y142240
X118872Y134620
X116332Y134620
X112522Y134620
X115062Y144780
X117602Y144780
X116332Y148590
X121412Y143510
X109982Y140462
X114300Y140462
X116713Y136525
X118872Y136525
X109982Y141351
X114300Y141351
X113792Y147320
X118872Y147320
X133350Y142748
X135890Y142748
X151003Y141732
X148590Y141732
X130556Y135890
X138684Y138176
X145796Y138176
X151003Y140716
X148590Y140716
X135890Y143764
X133350Y143764
X135890Y146050
X148590Y146050
X140208Y142240
X144399Y141351
X147320Y134620
X152400Y137160
X153670Y142240
X130810Y142240
X144780Y134620
X142240Y134620
X138430Y134620
X140970Y144780
X143510Y144780
X142240Y148590
X147320Y143510
X135890Y140462
X140208Y140462
X142621Y136525
X144780Y136525
X135890Y141351
X140208Y141351
X139700Y147320
X144780Y147320
X6350Y13208
X21463Y12192
X19050Y12192
X1016Y6350
X9144Y8636
X16256Y8636
X21463Y11176
X19050Y11176
X6350Y14224
X3810Y14224
X6350Y16510
X19050Y16510
X10668Y12700
X14859Y11811
X17780Y5080
X22860Y7620
X24130Y12700
X1270Y12700
X15240Y5080
X12700Y5080
X8890Y5080
X11430Y15240
X13970Y15240
X12700Y19050
X17780Y13970
X6350Y10922
X10668Y10922
X13081Y6985
X15240Y6985
X6350Y11811
X10668Y11811
X10160Y17780
X15240Y17780
X29718Y13208
X32258Y13208
X93980Y86360
X47371Y12192
X44958Y12192
X26924Y6350
X35052Y8636
X42164Y8636
X47371Y11176
X44958Y11176
X32258Y14224
X29718Y14224
X32258Y16510
X44958Y16510
X36576Y12700
X40767Y11811
X43688Y5080
X48768Y7620
X50038Y12700
X27178Y12700
X41148Y5080
X38608Y5080
X34798Y5080
X37338Y15240
X39878Y15240
X38608Y19050
X43688Y13970
X32258Y10922
X36576Y10922
X38989Y6985
X41148Y6985
X32258Y11811
X36576Y11811
X36068Y17780
X41148Y17780
X55626Y13208
X58166Y13208
X73279Y12192
X70866Y12192
X52832Y6350
X60960Y8636
X68072Y8636
X73279Y11176
X70866Y11176
X58166Y14224
X55626Y14224
X58166Y16510
X70866Y16510
X62484Y12700
X66675Y11811
X69596Y5080
X74676Y7620
X75946Y12700
X53086Y12700
X67056Y5080
X64516Y5080
X60706Y5080
X63246Y15240
X65786Y15240
X64516Y19050
X69596Y13970
X58166Y10922
X62484Y10922
X64897Y6985
X67056Y6985
X58166Y11811
X62484Y11811
X61976Y17780
X67056Y17780
X81534Y13208
X84074Y13208
X99187Y12192
X96774Y12192
X78740Y6350
X86868Y8636
X93980Y8636
X99187Y11176
X96774Y11176
X84074Y14224
X81534Y14224
X84074Y16510
X96774Y16510
X88392Y12700
X92583Y11811
X95504Y5080
X100584Y7620
X101854Y12700
X78994Y12700
X92964Y5080
X90424Y5080
X86614Y5080
X89154Y15240
X91694Y15240
X90424Y19050
X95504Y13970
X84074Y10922
X88392Y10922
X90805Y6985
X92964Y6985
X84074Y11811
X88392Y11811
X87884Y17780
X92964Y17780
X107442Y13208
X109982Y13208
X125095Y12192
X122682Y12192
X104648Y6350
X112776Y8636
X119888Y8636
X125095Y11176
X122682Y11176
X109982Y14224
X107442Y14224
X109982Y16510
X122682Y16510
X114300Y12700
X118491Y11811
X121412Y5080
X126492Y7620
X127762Y12700
X104902Y12700
X118872Y5080
X116332Y5080
X112522Y5080
X115062Y15240
X117602Y15240
X116332Y19050
X121412Y13970
X109982Y10922
X114300Y10922
X116713Y6985
X118872Y6985
X109982Y11811
X114300Y11811
X113792Y17780
X118872Y17780
X133350Y13208
X135890Y13208
X151003Y12192
X148590Y12192
X130556Y6350
X138684Y8636
X145796Y8636
X151003Y11176
X148590Y11176
X135890Y14224
X135890Y16510
X148590Y16510
X140208Y12700
X144399Y11811
X147320Y5080
X152400Y7620
X153670Y12700
X130810Y12700
X144780Y5080
X142240Y5080
X138430Y5080
X140970Y15240
X143510Y15240
X142240Y19050
X147320Y13970
X135890Y10922
X140208Y10922
X142621Y6985
X144780Y6985
X135890Y11811
X140208Y11811
X139700Y17780
X144780Y17780
X3810Y39116
X6350Y39116
X21463Y38100
X19050Y38100
X1016Y32258
X9144Y34544
X16256Y34544
X21463Y37084
X19050Y37084
X6350Y40132
X3810Y40132
X6350Y42418
X43688Y143510
M30