G04 EAGLE Gerber RS-274X export*
G75*
%MOMM*%
%FSLAX34Y34*%
%LPD*%
%INSolderpaste Top*%
%IPPOS*%
%AMOC8*
5,1,8,0,0,1.08239X$1,22.5*%
G01*
%ADD10R,2.000000X1.200000*%
%ADD11R,1.350000X0.600000*%
%ADD12R,1.000000X1.100000*%
%ADD13R,1.100000X1.000000*%
%ADD14C,0.300000*%
%ADD15R,0.550000X0.400000*%
%ADD16R,0.600000X0.850000*%


D10*
X14050Y155000D03*
X14050Y99000D03*
D11*
X50800Y142000D03*
X50800Y132000D03*
X50800Y122000D03*
X50800Y112000D03*
D12*
X162560Y115180D03*
X162560Y98180D03*
D10*
X239950Y99000D03*
X239950Y155000D03*
D11*
X203200Y112000D03*
X203200Y122000D03*
X203200Y132000D03*
X203200Y142000D03*
D13*
X40250Y46990D03*
X23250Y46990D03*
D14*
X26480Y60000D02*
X26480Y67000D01*
X26480Y60000D02*
X19480Y60000D01*
X19480Y67000D01*
X26480Y67000D01*
X26480Y62850D02*
X19480Y62850D01*
X19480Y65700D02*
X26480Y65700D01*
X44020Y67000D02*
X44020Y60000D01*
X37020Y60000D01*
X37020Y67000D01*
X44020Y67000D01*
X44020Y62850D02*
X37020Y62850D01*
X37020Y65700D02*
X44020Y65700D01*
D12*
X91440Y148980D03*
X91440Y165980D03*
X162560Y148980D03*
X162560Y165980D03*
D15*
X114500Y135000D03*
X114500Y127000D03*
X114500Y119000D03*
X139500Y135000D03*
X139500Y127000D03*
X139500Y119000D03*
D16*
X127000Y127000D03*
D12*
X91440Y115180D03*
X91440Y98180D03*
D13*
X74050Y132080D03*
X91050Y132080D03*
D10*
X273130Y155000D03*
X273130Y99000D03*
D11*
X309880Y142000D03*
X309880Y132000D03*
X309880Y122000D03*
X309880Y112000D03*
D12*
X421640Y115180D03*
X421640Y98180D03*
D10*
X499030Y99000D03*
X499030Y155000D03*
D11*
X462280Y112000D03*
X462280Y122000D03*
X462280Y132000D03*
X462280Y142000D03*
D13*
X299330Y46990D03*
X282330Y46990D03*
D14*
X285560Y60000D02*
X285560Y67000D01*
X285560Y60000D02*
X278560Y60000D01*
X278560Y67000D01*
X285560Y67000D01*
X285560Y62850D02*
X278560Y62850D01*
X278560Y65700D02*
X285560Y65700D01*
X303100Y67000D02*
X303100Y60000D01*
X296100Y60000D01*
X296100Y67000D01*
X303100Y67000D01*
X303100Y62850D02*
X296100Y62850D01*
X296100Y65700D02*
X303100Y65700D01*
D12*
X350520Y148980D03*
X350520Y165980D03*
X421640Y148980D03*
X421640Y165980D03*
D15*
X373580Y135000D03*
X373580Y127000D03*
X373580Y119000D03*
X398580Y135000D03*
X398580Y127000D03*
X398580Y119000D03*
D16*
X386080Y127000D03*
D12*
X350520Y115180D03*
X350520Y98180D03*
D13*
X333130Y132080D03*
X350130Y132080D03*
D10*
X532210Y155000D03*
X532210Y99000D03*
D11*
X568960Y142000D03*
X568960Y132000D03*
X568960Y122000D03*
X568960Y112000D03*
D12*
X680720Y115180D03*
X680720Y98180D03*
D10*
X758110Y99000D03*
X758110Y155000D03*
D11*
X721360Y112000D03*
X721360Y122000D03*
X721360Y132000D03*
X721360Y142000D03*
D13*
X558410Y46990D03*
X541410Y46990D03*
D14*
X544640Y60000D02*
X544640Y67000D01*
X544640Y60000D02*
X537640Y60000D01*
X537640Y67000D01*
X544640Y67000D01*
X544640Y62850D02*
X537640Y62850D01*
X537640Y65700D02*
X544640Y65700D01*
X562180Y67000D02*
X562180Y60000D01*
X555180Y60000D01*
X555180Y67000D01*
X562180Y67000D01*
X562180Y62850D02*
X555180Y62850D01*
X555180Y65700D02*
X562180Y65700D01*
D12*
X609600Y148980D03*
X609600Y165980D03*
X680720Y148980D03*
X680720Y165980D03*
D15*
X632660Y135000D03*
X632660Y127000D03*
X632660Y119000D03*
X657660Y135000D03*
X657660Y127000D03*
X657660Y119000D03*
D16*
X645160Y127000D03*
D12*
X609600Y115180D03*
X609600Y98180D03*
D13*
X592210Y132080D03*
X609210Y132080D03*
D10*
X791290Y155000D03*
X791290Y99000D03*
D11*
X828040Y142000D03*
X828040Y132000D03*
X828040Y122000D03*
X828040Y112000D03*
D12*
X939800Y115180D03*
X939800Y98180D03*
D10*
X1017190Y99000D03*
X1017190Y155000D03*
D11*
X980440Y112000D03*
X980440Y122000D03*
X980440Y132000D03*
X980440Y142000D03*
D13*
X817490Y46990D03*
X800490Y46990D03*
D14*
X803720Y60000D02*
X803720Y67000D01*
X803720Y60000D02*
X796720Y60000D01*
X796720Y67000D01*
X803720Y67000D01*
X803720Y62850D02*
X796720Y62850D01*
X796720Y65700D02*
X803720Y65700D01*
X821260Y67000D02*
X821260Y60000D01*
X814260Y60000D01*
X814260Y67000D01*
X821260Y67000D01*
X821260Y62850D02*
X814260Y62850D01*
X814260Y65700D02*
X821260Y65700D01*
D12*
X868680Y148980D03*
X868680Y165980D03*
X939800Y148980D03*
X939800Y165980D03*
D15*
X891740Y135000D03*
X891740Y127000D03*
X891740Y119000D03*
X916740Y135000D03*
X916740Y127000D03*
X916740Y119000D03*
D16*
X904240Y127000D03*
D12*
X868680Y115180D03*
X868680Y98180D03*
D13*
X851290Y132080D03*
X868290Y132080D03*
D10*
X1050370Y155000D03*
X1050370Y99000D03*
D11*
X1087120Y142000D03*
X1087120Y132000D03*
X1087120Y122000D03*
X1087120Y112000D03*
D12*
X1198880Y115180D03*
X1198880Y98180D03*
D10*
X1276270Y99000D03*
X1276270Y155000D03*
D11*
X1239520Y112000D03*
X1239520Y122000D03*
X1239520Y132000D03*
X1239520Y142000D03*
D13*
X1076570Y46990D03*
X1059570Y46990D03*
D14*
X1062800Y60000D02*
X1062800Y67000D01*
X1062800Y60000D02*
X1055800Y60000D01*
X1055800Y67000D01*
X1062800Y67000D01*
X1062800Y62850D02*
X1055800Y62850D01*
X1055800Y65700D02*
X1062800Y65700D01*
X1080340Y67000D02*
X1080340Y60000D01*
X1073340Y60000D01*
X1073340Y67000D01*
X1080340Y67000D01*
X1080340Y62850D02*
X1073340Y62850D01*
X1073340Y65700D02*
X1080340Y65700D01*
D12*
X1127760Y148980D03*
X1127760Y165980D03*
X1198880Y148980D03*
X1198880Y165980D03*
D15*
X1150820Y135000D03*
X1150820Y127000D03*
X1150820Y119000D03*
X1175820Y135000D03*
X1175820Y127000D03*
X1175820Y119000D03*
D16*
X1163320Y127000D03*
D12*
X1127760Y115180D03*
X1127760Y98180D03*
D13*
X1110370Y132080D03*
X1127370Y132080D03*
D10*
X1309450Y155000D03*
X1309450Y99000D03*
D11*
X1346200Y142000D03*
X1346200Y132000D03*
X1346200Y122000D03*
X1346200Y112000D03*
D12*
X1457960Y115180D03*
X1457960Y98180D03*
D10*
X1535350Y99000D03*
X1535350Y155000D03*
D11*
X1498600Y112000D03*
X1498600Y122000D03*
X1498600Y132000D03*
X1498600Y142000D03*
D13*
X1335650Y46990D03*
X1318650Y46990D03*
D14*
X1321880Y60000D02*
X1321880Y67000D01*
X1321880Y60000D02*
X1314880Y60000D01*
X1314880Y67000D01*
X1321880Y67000D01*
X1321880Y62850D02*
X1314880Y62850D01*
X1314880Y65700D02*
X1321880Y65700D01*
X1339420Y67000D02*
X1339420Y60000D01*
X1332420Y60000D01*
X1332420Y67000D01*
X1339420Y67000D01*
X1339420Y62850D02*
X1332420Y62850D01*
X1332420Y65700D02*
X1339420Y65700D01*
D12*
X1386840Y148980D03*
X1386840Y165980D03*
X1457960Y148980D03*
X1457960Y165980D03*
D15*
X1409900Y135000D03*
X1409900Y127000D03*
X1409900Y119000D03*
X1434900Y135000D03*
X1434900Y127000D03*
X1434900Y119000D03*
D16*
X1422400Y127000D03*
D12*
X1386840Y115180D03*
X1386840Y98180D03*
D13*
X1369450Y132080D03*
X1386450Y132080D03*
D10*
X14050Y414080D03*
X14050Y358080D03*
D11*
X50800Y401080D03*
X50800Y391080D03*
X50800Y381080D03*
X50800Y371080D03*
D12*
X162560Y374260D03*
X162560Y357260D03*
D10*
X239950Y358080D03*
X239950Y414080D03*
D11*
X203200Y371080D03*
X203200Y381080D03*
X203200Y391080D03*
X203200Y401080D03*
D13*
X40250Y306070D03*
X23250Y306070D03*
D14*
X26480Y319080D02*
X26480Y326080D01*
X26480Y319080D02*
X19480Y319080D01*
X19480Y326080D01*
X26480Y326080D01*
X26480Y321930D02*
X19480Y321930D01*
X19480Y324780D02*
X26480Y324780D01*
X44020Y326080D02*
X44020Y319080D01*
X37020Y319080D01*
X37020Y326080D01*
X44020Y326080D01*
X44020Y321930D02*
X37020Y321930D01*
X37020Y324780D02*
X44020Y324780D01*
D12*
X91440Y408060D03*
X91440Y425060D03*
X162560Y408060D03*
X162560Y425060D03*
D15*
X114500Y394080D03*
X114500Y386080D03*
X114500Y378080D03*
X139500Y394080D03*
X139500Y386080D03*
X139500Y378080D03*
D16*
X127000Y386080D03*
D12*
X91440Y374260D03*
X91440Y357260D03*
D13*
X74050Y391160D03*
X91050Y391160D03*
D10*
X273130Y414080D03*
X273130Y358080D03*
D11*
X309880Y401080D03*
X309880Y391080D03*
X309880Y381080D03*
X309880Y371080D03*
D12*
X421640Y374260D03*
X421640Y357260D03*
D10*
X499030Y358080D03*
X499030Y414080D03*
D11*
X462280Y371080D03*
X462280Y381080D03*
X462280Y391080D03*
X462280Y401080D03*
D13*
X299330Y306070D03*
X282330Y306070D03*
D14*
X285560Y319080D02*
X285560Y326080D01*
X285560Y319080D02*
X278560Y319080D01*
X278560Y326080D01*
X285560Y326080D01*
X285560Y321930D02*
X278560Y321930D01*
X278560Y324780D02*
X285560Y324780D01*
X303100Y326080D02*
X303100Y319080D01*
X296100Y319080D01*
X296100Y326080D01*
X303100Y326080D01*
X303100Y321930D02*
X296100Y321930D01*
X296100Y324780D02*
X303100Y324780D01*
D12*
X350520Y408060D03*
X350520Y425060D03*
X421640Y408060D03*
X421640Y425060D03*
D15*
X373580Y394080D03*
X373580Y386080D03*
X373580Y378080D03*
X398580Y394080D03*
X398580Y386080D03*
X398580Y378080D03*
D16*
X386080Y386080D03*
D12*
X350520Y374260D03*
X350520Y357260D03*
D13*
X333130Y391160D03*
X350130Y391160D03*
D10*
X532210Y414080D03*
X532210Y358080D03*
D11*
X568960Y401080D03*
X568960Y391080D03*
X568960Y381080D03*
X568960Y371080D03*
D12*
X680720Y374260D03*
X680720Y357260D03*
D10*
X758110Y358080D03*
X758110Y414080D03*
D11*
X721360Y371080D03*
X721360Y381080D03*
X721360Y391080D03*
X721360Y401080D03*
D13*
X558410Y306070D03*
X541410Y306070D03*
D14*
X544640Y319080D02*
X544640Y326080D01*
X544640Y319080D02*
X537640Y319080D01*
X537640Y326080D01*
X544640Y326080D01*
X544640Y321930D02*
X537640Y321930D01*
X537640Y324780D02*
X544640Y324780D01*
X562180Y326080D02*
X562180Y319080D01*
X555180Y319080D01*
X555180Y326080D01*
X562180Y326080D01*
X562180Y321930D02*
X555180Y321930D01*
X555180Y324780D02*
X562180Y324780D01*
D12*
X609600Y408060D03*
X609600Y425060D03*
X680720Y408060D03*
X680720Y425060D03*
D15*
X632660Y394080D03*
X632660Y386080D03*
X632660Y378080D03*
X657660Y394080D03*
X657660Y386080D03*
X657660Y378080D03*
D16*
X645160Y386080D03*
D12*
X609600Y374260D03*
X609600Y357260D03*
D13*
X592210Y391160D03*
X609210Y391160D03*
D10*
X791290Y414080D03*
X791290Y358080D03*
D11*
X828040Y401080D03*
X828040Y391080D03*
X828040Y381080D03*
X828040Y371080D03*
D12*
X939800Y374260D03*
X939800Y357260D03*
D10*
X1017190Y358080D03*
X1017190Y414080D03*
D11*
X980440Y371080D03*
X980440Y381080D03*
X980440Y391080D03*
X980440Y401080D03*
D13*
X817490Y306070D03*
X800490Y306070D03*
D14*
X803720Y319080D02*
X803720Y326080D01*
X803720Y319080D02*
X796720Y319080D01*
X796720Y326080D01*
X803720Y326080D01*
X803720Y321930D02*
X796720Y321930D01*
X796720Y324780D02*
X803720Y324780D01*
X821260Y326080D02*
X821260Y319080D01*
X814260Y319080D01*
X814260Y326080D01*
X821260Y326080D01*
X821260Y321930D02*
X814260Y321930D01*
X814260Y324780D02*
X821260Y324780D01*
D12*
X868680Y408060D03*
X868680Y425060D03*
X939800Y408060D03*
X939800Y425060D03*
D15*
X891740Y394080D03*
X891740Y386080D03*
X891740Y378080D03*
X916740Y394080D03*
X916740Y386080D03*
X916740Y378080D03*
D16*
X904240Y386080D03*
D12*
X868680Y374260D03*
X868680Y357260D03*
D13*
X851290Y391160D03*
X868290Y391160D03*
D10*
X1050370Y414080D03*
X1050370Y358080D03*
D11*
X1087120Y401080D03*
X1087120Y391080D03*
X1087120Y381080D03*
X1087120Y371080D03*
D12*
X1198880Y374260D03*
X1198880Y357260D03*
D10*
X1276270Y358080D03*
X1276270Y414080D03*
D11*
X1239520Y371080D03*
X1239520Y381080D03*
X1239520Y391080D03*
X1239520Y401080D03*
D13*
X1076570Y306070D03*
X1059570Y306070D03*
D14*
X1062800Y319080D02*
X1062800Y326080D01*
X1062800Y319080D02*
X1055800Y319080D01*
X1055800Y326080D01*
X1062800Y326080D01*
X1062800Y321930D02*
X1055800Y321930D01*
X1055800Y324780D02*
X1062800Y324780D01*
X1080340Y326080D02*
X1080340Y319080D01*
X1073340Y319080D01*
X1073340Y326080D01*
X1080340Y326080D01*
X1080340Y321930D02*
X1073340Y321930D01*
X1073340Y324780D02*
X1080340Y324780D01*
D12*
X1127760Y408060D03*
X1127760Y425060D03*
X1198880Y408060D03*
X1198880Y425060D03*
D15*
X1150820Y394080D03*
X1150820Y386080D03*
X1150820Y378080D03*
X1175820Y394080D03*
X1175820Y386080D03*
X1175820Y378080D03*
D16*
X1163320Y386080D03*
D12*
X1127760Y374260D03*
X1127760Y357260D03*
D13*
X1110370Y391160D03*
X1127370Y391160D03*
D10*
X1309450Y414080D03*
X1309450Y358080D03*
D11*
X1346200Y401080D03*
X1346200Y391080D03*
X1346200Y381080D03*
X1346200Y371080D03*
D12*
X1457960Y374260D03*
X1457960Y357260D03*
D10*
X1535350Y358080D03*
X1535350Y414080D03*
D11*
X1498600Y371080D03*
X1498600Y381080D03*
X1498600Y391080D03*
X1498600Y401080D03*
D13*
X1335650Y306070D03*
X1318650Y306070D03*
D14*
X1321880Y319080D02*
X1321880Y326080D01*
X1321880Y319080D02*
X1314880Y319080D01*
X1314880Y326080D01*
X1321880Y326080D01*
X1321880Y321930D02*
X1314880Y321930D01*
X1314880Y324780D02*
X1321880Y324780D01*
X1339420Y326080D02*
X1339420Y319080D01*
X1332420Y319080D01*
X1332420Y326080D01*
X1339420Y326080D01*
X1339420Y321930D02*
X1332420Y321930D01*
X1332420Y324780D02*
X1339420Y324780D01*
D12*
X1386840Y408060D03*
X1386840Y425060D03*
X1457960Y408060D03*
X1457960Y425060D03*
D15*
X1409900Y394080D03*
X1409900Y386080D03*
X1409900Y378080D03*
X1434900Y394080D03*
X1434900Y386080D03*
X1434900Y378080D03*
D16*
X1422400Y386080D03*
D12*
X1386840Y374260D03*
X1386840Y357260D03*
D13*
X1369450Y391160D03*
X1386450Y391160D03*
D10*
X14050Y673160D03*
X14050Y617160D03*
D11*
X50800Y660160D03*
X50800Y650160D03*
X50800Y640160D03*
X50800Y630160D03*
D12*
X162560Y633340D03*
X162560Y616340D03*
D10*
X239950Y617160D03*
X239950Y673160D03*
D11*
X203200Y630160D03*
X203200Y640160D03*
X203200Y650160D03*
X203200Y660160D03*
D13*
X40250Y565150D03*
X23250Y565150D03*
D14*
X26480Y578160D02*
X26480Y585160D01*
X26480Y578160D02*
X19480Y578160D01*
X19480Y585160D01*
X26480Y585160D01*
X26480Y581010D02*
X19480Y581010D01*
X19480Y583860D02*
X26480Y583860D01*
X44020Y585160D02*
X44020Y578160D01*
X37020Y578160D01*
X37020Y585160D01*
X44020Y585160D01*
X44020Y581010D02*
X37020Y581010D01*
X37020Y583860D02*
X44020Y583860D01*
D12*
X91440Y667140D03*
X91440Y684140D03*
X162560Y667140D03*
X162560Y684140D03*
D15*
X114500Y653160D03*
X114500Y645160D03*
X114500Y637160D03*
X139500Y653160D03*
X139500Y645160D03*
X139500Y637160D03*
D16*
X127000Y645160D03*
D12*
X91440Y633340D03*
X91440Y616340D03*
D13*
X74050Y650240D03*
X91050Y650240D03*
D10*
X273130Y673160D03*
X273130Y617160D03*
D11*
X309880Y660160D03*
X309880Y650160D03*
X309880Y640160D03*
X309880Y630160D03*
D12*
X421640Y633340D03*
X421640Y616340D03*
D10*
X499030Y617160D03*
X499030Y673160D03*
D11*
X462280Y630160D03*
X462280Y640160D03*
X462280Y650160D03*
X462280Y660160D03*
D13*
X299330Y565150D03*
X282330Y565150D03*
D14*
X285560Y578160D02*
X285560Y585160D01*
X285560Y578160D02*
X278560Y578160D01*
X278560Y585160D01*
X285560Y585160D01*
X285560Y581010D02*
X278560Y581010D01*
X278560Y583860D02*
X285560Y583860D01*
X303100Y585160D02*
X303100Y578160D01*
X296100Y578160D01*
X296100Y585160D01*
X303100Y585160D01*
X303100Y581010D02*
X296100Y581010D01*
X296100Y583860D02*
X303100Y583860D01*
D12*
X350520Y667140D03*
X350520Y684140D03*
X421640Y667140D03*
X421640Y684140D03*
D15*
X373580Y653160D03*
X373580Y645160D03*
X373580Y637160D03*
X398580Y653160D03*
X398580Y645160D03*
X398580Y637160D03*
D16*
X386080Y645160D03*
D12*
X350520Y633340D03*
X350520Y616340D03*
D13*
X333130Y650240D03*
X350130Y650240D03*
D10*
X532210Y673160D03*
X532210Y617160D03*
D11*
X568960Y660160D03*
X568960Y650160D03*
X568960Y640160D03*
X568960Y630160D03*
D12*
X680720Y633340D03*
X680720Y616340D03*
D10*
X758110Y617160D03*
X758110Y673160D03*
D11*
X721360Y630160D03*
X721360Y640160D03*
X721360Y650160D03*
X721360Y660160D03*
D13*
X558410Y565150D03*
X541410Y565150D03*
D14*
X544640Y578160D02*
X544640Y585160D01*
X544640Y578160D02*
X537640Y578160D01*
X537640Y585160D01*
X544640Y585160D01*
X544640Y581010D02*
X537640Y581010D01*
X537640Y583860D02*
X544640Y583860D01*
X562180Y585160D02*
X562180Y578160D01*
X555180Y578160D01*
X555180Y585160D01*
X562180Y585160D01*
X562180Y581010D02*
X555180Y581010D01*
X555180Y583860D02*
X562180Y583860D01*
D12*
X609600Y667140D03*
X609600Y684140D03*
X680720Y667140D03*
X680720Y684140D03*
D15*
X632660Y653160D03*
X632660Y645160D03*
X632660Y637160D03*
X657660Y653160D03*
X657660Y645160D03*
X657660Y637160D03*
D16*
X645160Y645160D03*
D12*
X609600Y633340D03*
X609600Y616340D03*
D13*
X592210Y650240D03*
X609210Y650240D03*
D10*
X791290Y673160D03*
X791290Y617160D03*
D11*
X828040Y660160D03*
X828040Y650160D03*
X828040Y640160D03*
X828040Y630160D03*
D12*
X939800Y633340D03*
X939800Y616340D03*
D10*
X1017190Y617160D03*
X1017190Y673160D03*
D11*
X980440Y630160D03*
X980440Y640160D03*
X980440Y650160D03*
X980440Y660160D03*
D13*
X817490Y565150D03*
X800490Y565150D03*
D14*
X803720Y578160D02*
X803720Y585160D01*
X803720Y578160D02*
X796720Y578160D01*
X796720Y585160D01*
X803720Y585160D01*
X803720Y581010D02*
X796720Y581010D01*
X796720Y583860D02*
X803720Y583860D01*
X821260Y585160D02*
X821260Y578160D01*
X814260Y578160D01*
X814260Y585160D01*
X821260Y585160D01*
X821260Y581010D02*
X814260Y581010D01*
X814260Y583860D02*
X821260Y583860D01*
D12*
X868680Y667140D03*
X868680Y684140D03*
X939800Y667140D03*
X939800Y684140D03*
D15*
X891740Y653160D03*
X891740Y645160D03*
X891740Y637160D03*
X916740Y653160D03*
X916740Y645160D03*
X916740Y637160D03*
D16*
X904240Y645160D03*
D12*
X868680Y633340D03*
X868680Y616340D03*
D13*
X851290Y650240D03*
X868290Y650240D03*
D10*
X1050370Y673160D03*
X1050370Y617160D03*
D11*
X1087120Y660160D03*
X1087120Y650160D03*
X1087120Y640160D03*
X1087120Y630160D03*
D12*
X1198880Y633340D03*
X1198880Y616340D03*
D10*
X1276270Y617160D03*
X1276270Y673160D03*
D11*
X1239520Y630160D03*
X1239520Y640160D03*
X1239520Y650160D03*
X1239520Y660160D03*
D13*
X1076570Y565150D03*
X1059570Y565150D03*
D14*
X1062800Y578160D02*
X1062800Y585160D01*
X1062800Y578160D02*
X1055800Y578160D01*
X1055800Y585160D01*
X1062800Y585160D01*
X1062800Y581010D02*
X1055800Y581010D01*
X1055800Y583860D02*
X1062800Y583860D01*
X1080340Y585160D02*
X1080340Y578160D01*
X1073340Y578160D01*
X1073340Y585160D01*
X1080340Y585160D01*
X1080340Y581010D02*
X1073340Y581010D01*
X1073340Y583860D02*
X1080340Y583860D01*
D12*
X1127760Y667140D03*
X1127760Y684140D03*
X1198880Y667140D03*
X1198880Y684140D03*
D15*
X1150820Y653160D03*
X1150820Y645160D03*
X1150820Y637160D03*
X1175820Y653160D03*
X1175820Y645160D03*
X1175820Y637160D03*
D16*
X1163320Y645160D03*
D12*
X1127760Y633340D03*
X1127760Y616340D03*
D13*
X1110370Y650240D03*
X1127370Y650240D03*
D10*
X1309450Y673160D03*
X1309450Y617160D03*
D11*
X1346200Y660160D03*
X1346200Y650160D03*
X1346200Y640160D03*
X1346200Y630160D03*
D12*
X1457960Y633340D03*
X1457960Y616340D03*
D10*
X1535350Y617160D03*
X1535350Y673160D03*
D11*
X1498600Y630160D03*
X1498600Y640160D03*
X1498600Y650160D03*
X1498600Y660160D03*
D13*
X1335650Y565150D03*
X1318650Y565150D03*
D14*
X1321880Y578160D02*
X1321880Y585160D01*
X1321880Y578160D02*
X1314880Y578160D01*
X1314880Y585160D01*
X1321880Y585160D01*
X1321880Y581010D02*
X1314880Y581010D01*
X1314880Y583860D02*
X1321880Y583860D01*
X1339420Y585160D02*
X1339420Y578160D01*
X1332420Y578160D01*
X1332420Y585160D01*
X1339420Y585160D01*
X1339420Y581010D02*
X1332420Y581010D01*
X1332420Y583860D02*
X1339420Y583860D01*
D12*
X1386840Y667140D03*
X1386840Y684140D03*
X1457960Y667140D03*
X1457960Y684140D03*
D15*
X1409900Y653160D03*
X1409900Y645160D03*
X1409900Y637160D03*
X1434900Y653160D03*
X1434900Y645160D03*
X1434900Y637160D03*
D16*
X1422400Y645160D03*
D12*
X1386840Y633340D03*
X1386840Y616340D03*
D13*
X1369450Y650240D03*
X1386450Y650240D03*
D10*
X14050Y932240D03*
X14050Y876240D03*
D11*
X50800Y919240D03*
X50800Y909240D03*
X50800Y899240D03*
X50800Y889240D03*
D12*
X162560Y892420D03*
X162560Y875420D03*
D10*
X239950Y876240D03*
X239950Y932240D03*
D11*
X203200Y889240D03*
X203200Y899240D03*
X203200Y909240D03*
X203200Y919240D03*
D13*
X40250Y824230D03*
X23250Y824230D03*
D14*
X26480Y837240D02*
X26480Y844240D01*
X26480Y837240D02*
X19480Y837240D01*
X19480Y844240D01*
X26480Y844240D01*
X26480Y840090D02*
X19480Y840090D01*
X19480Y842940D02*
X26480Y842940D01*
X44020Y844240D02*
X44020Y837240D01*
X37020Y837240D01*
X37020Y844240D01*
X44020Y844240D01*
X44020Y840090D02*
X37020Y840090D01*
X37020Y842940D02*
X44020Y842940D01*
D12*
X91440Y926220D03*
X91440Y943220D03*
X162560Y926220D03*
X162560Y943220D03*
D15*
X114500Y912240D03*
X114500Y904240D03*
X114500Y896240D03*
X139500Y912240D03*
X139500Y904240D03*
X139500Y896240D03*
D16*
X127000Y904240D03*
D12*
X91440Y892420D03*
X91440Y875420D03*
D13*
X74050Y909320D03*
X91050Y909320D03*
D10*
X273130Y932240D03*
X273130Y876240D03*
D11*
X309880Y919240D03*
X309880Y909240D03*
X309880Y899240D03*
X309880Y889240D03*
D12*
X421640Y892420D03*
X421640Y875420D03*
D10*
X499030Y876240D03*
X499030Y932240D03*
D11*
X462280Y889240D03*
X462280Y899240D03*
X462280Y909240D03*
X462280Y919240D03*
D13*
X299330Y824230D03*
X282330Y824230D03*
D14*
X285560Y837240D02*
X285560Y844240D01*
X285560Y837240D02*
X278560Y837240D01*
X278560Y844240D01*
X285560Y844240D01*
X285560Y840090D02*
X278560Y840090D01*
X278560Y842940D02*
X285560Y842940D01*
X303100Y844240D02*
X303100Y837240D01*
X296100Y837240D01*
X296100Y844240D01*
X303100Y844240D01*
X303100Y840090D02*
X296100Y840090D01*
X296100Y842940D02*
X303100Y842940D01*
D12*
X350520Y926220D03*
X350520Y943220D03*
X421640Y926220D03*
X421640Y943220D03*
D15*
X373580Y912240D03*
X373580Y904240D03*
X373580Y896240D03*
X398580Y912240D03*
X398580Y904240D03*
X398580Y896240D03*
D16*
X386080Y904240D03*
D12*
X350520Y892420D03*
X350520Y875420D03*
D13*
X333130Y909320D03*
X350130Y909320D03*
D10*
X532210Y932240D03*
X532210Y876240D03*
D11*
X568960Y919240D03*
X568960Y909240D03*
X568960Y899240D03*
X568960Y889240D03*
D12*
X680720Y892420D03*
X680720Y875420D03*
D10*
X758110Y876240D03*
X758110Y932240D03*
D11*
X721360Y889240D03*
X721360Y899240D03*
X721360Y909240D03*
X721360Y919240D03*
D13*
X558410Y824230D03*
X541410Y824230D03*
D14*
X544640Y837240D02*
X544640Y844240D01*
X544640Y837240D02*
X537640Y837240D01*
X537640Y844240D01*
X544640Y844240D01*
X544640Y840090D02*
X537640Y840090D01*
X537640Y842940D02*
X544640Y842940D01*
X562180Y844240D02*
X562180Y837240D01*
X555180Y837240D01*
X555180Y844240D01*
X562180Y844240D01*
X562180Y840090D02*
X555180Y840090D01*
X555180Y842940D02*
X562180Y842940D01*
D12*
X609600Y926220D03*
X609600Y943220D03*
X680720Y926220D03*
X680720Y943220D03*
D15*
X632660Y912240D03*
X632660Y904240D03*
X632660Y896240D03*
X657660Y912240D03*
X657660Y904240D03*
X657660Y896240D03*
D16*
X645160Y904240D03*
D12*
X609600Y892420D03*
X609600Y875420D03*
D13*
X592210Y909320D03*
X609210Y909320D03*
D10*
X791290Y932240D03*
X791290Y876240D03*
D11*
X828040Y919240D03*
X828040Y909240D03*
X828040Y899240D03*
X828040Y889240D03*
D12*
X939800Y892420D03*
X939800Y875420D03*
D10*
X1017190Y876240D03*
X1017190Y932240D03*
D11*
X980440Y889240D03*
X980440Y899240D03*
X980440Y909240D03*
X980440Y919240D03*
D13*
X817490Y824230D03*
X800490Y824230D03*
D14*
X803720Y837240D02*
X803720Y844240D01*
X803720Y837240D02*
X796720Y837240D01*
X796720Y844240D01*
X803720Y844240D01*
X803720Y840090D02*
X796720Y840090D01*
X796720Y842940D02*
X803720Y842940D01*
X821260Y844240D02*
X821260Y837240D01*
X814260Y837240D01*
X814260Y844240D01*
X821260Y844240D01*
X821260Y840090D02*
X814260Y840090D01*
X814260Y842940D02*
X821260Y842940D01*
D12*
X868680Y926220D03*
X868680Y943220D03*
X939800Y926220D03*
X939800Y943220D03*
D15*
X891740Y912240D03*
X891740Y904240D03*
X891740Y896240D03*
X916740Y912240D03*
X916740Y904240D03*
X916740Y896240D03*
D16*
X904240Y904240D03*
D12*
X868680Y892420D03*
X868680Y875420D03*
D13*
X851290Y909320D03*
X868290Y909320D03*
D10*
X1050370Y932240D03*
X1050370Y876240D03*
D11*
X1087120Y919240D03*
X1087120Y909240D03*
X1087120Y899240D03*
X1087120Y889240D03*
D12*
X1198880Y892420D03*
X1198880Y875420D03*
D10*
X1276270Y876240D03*
X1276270Y932240D03*
D11*
X1239520Y889240D03*
X1239520Y899240D03*
X1239520Y909240D03*
X1239520Y919240D03*
D13*
X1076570Y824230D03*
X1059570Y824230D03*
D14*
X1062800Y837240D02*
X1062800Y844240D01*
X1062800Y837240D02*
X1055800Y837240D01*
X1055800Y844240D01*
X1062800Y844240D01*
X1062800Y840090D02*
X1055800Y840090D01*
X1055800Y842940D02*
X1062800Y842940D01*
X1080340Y844240D02*
X1080340Y837240D01*
X1073340Y837240D01*
X1073340Y844240D01*
X1080340Y844240D01*
X1080340Y840090D02*
X1073340Y840090D01*
X1073340Y842940D02*
X1080340Y842940D01*
D12*
X1127760Y926220D03*
X1127760Y943220D03*
X1198880Y926220D03*
X1198880Y943220D03*
D15*
X1150820Y912240D03*
X1150820Y904240D03*
X1150820Y896240D03*
X1175820Y912240D03*
X1175820Y904240D03*
X1175820Y896240D03*
D16*
X1163320Y904240D03*
D12*
X1127760Y892420D03*
X1127760Y875420D03*
D13*
X1110370Y909320D03*
X1127370Y909320D03*
D10*
X1309450Y932240D03*
X1309450Y876240D03*
D11*
X1346200Y919240D03*
X1346200Y909240D03*
X1346200Y899240D03*
X1346200Y889240D03*
D12*
X1457960Y892420D03*
X1457960Y875420D03*
D10*
X1535350Y876240D03*
X1535350Y932240D03*
D11*
X1498600Y889240D03*
X1498600Y899240D03*
X1498600Y909240D03*
X1498600Y919240D03*
D13*
X1335650Y824230D03*
X1318650Y824230D03*
D14*
X1321880Y837240D02*
X1321880Y844240D01*
X1321880Y837240D02*
X1314880Y837240D01*
X1314880Y844240D01*
X1321880Y844240D01*
X1321880Y840090D02*
X1314880Y840090D01*
X1314880Y842940D02*
X1321880Y842940D01*
X1339420Y844240D02*
X1339420Y837240D01*
X1332420Y837240D01*
X1332420Y844240D01*
X1339420Y844240D01*
X1339420Y840090D02*
X1332420Y840090D01*
X1332420Y842940D02*
X1339420Y842940D01*
D12*
X1386840Y926220D03*
X1386840Y943220D03*
X1457960Y926220D03*
X1457960Y943220D03*
D15*
X1409900Y912240D03*
X1409900Y904240D03*
X1409900Y896240D03*
X1434900Y912240D03*
X1434900Y904240D03*
X1434900Y896240D03*
D16*
X1422400Y904240D03*
D12*
X1386840Y892420D03*
X1386840Y875420D03*
D13*
X1369450Y909320D03*
X1386450Y909320D03*
D10*
X14050Y1191320D03*
X14050Y1135320D03*
D11*
X50800Y1178320D03*
X50800Y1168320D03*
X50800Y1158320D03*
X50800Y1148320D03*
D12*
X162560Y1151500D03*
X162560Y1134500D03*
D10*
X239950Y1135320D03*
X239950Y1191320D03*
D11*
X203200Y1148320D03*
X203200Y1158320D03*
X203200Y1168320D03*
X203200Y1178320D03*
D13*
X40250Y1083310D03*
X23250Y1083310D03*
D14*
X26480Y1096320D02*
X26480Y1103320D01*
X26480Y1096320D02*
X19480Y1096320D01*
X19480Y1103320D01*
X26480Y1103320D01*
X26480Y1099170D02*
X19480Y1099170D01*
X19480Y1102020D02*
X26480Y1102020D01*
X44020Y1103320D02*
X44020Y1096320D01*
X37020Y1096320D01*
X37020Y1103320D01*
X44020Y1103320D01*
X44020Y1099170D02*
X37020Y1099170D01*
X37020Y1102020D02*
X44020Y1102020D01*
D12*
X91440Y1185300D03*
X91440Y1202300D03*
X162560Y1185300D03*
X162560Y1202300D03*
D15*
X114500Y1171320D03*
X114500Y1163320D03*
X114500Y1155320D03*
X139500Y1171320D03*
X139500Y1163320D03*
X139500Y1155320D03*
D16*
X127000Y1163320D03*
D12*
X91440Y1151500D03*
X91440Y1134500D03*
D13*
X74050Y1168400D03*
X91050Y1168400D03*
D10*
X273130Y1191320D03*
X273130Y1135320D03*
D11*
X309880Y1178320D03*
X309880Y1168320D03*
X309880Y1158320D03*
X309880Y1148320D03*
D12*
X421640Y1151500D03*
X421640Y1134500D03*
D10*
X499030Y1135320D03*
X499030Y1191320D03*
D11*
X462280Y1148320D03*
X462280Y1158320D03*
X462280Y1168320D03*
X462280Y1178320D03*
D13*
X299330Y1083310D03*
X282330Y1083310D03*
D14*
X285560Y1096320D02*
X285560Y1103320D01*
X285560Y1096320D02*
X278560Y1096320D01*
X278560Y1103320D01*
X285560Y1103320D01*
X285560Y1099170D02*
X278560Y1099170D01*
X278560Y1102020D02*
X285560Y1102020D01*
X303100Y1103320D02*
X303100Y1096320D01*
X296100Y1096320D01*
X296100Y1103320D01*
X303100Y1103320D01*
X303100Y1099170D02*
X296100Y1099170D01*
X296100Y1102020D02*
X303100Y1102020D01*
D12*
X350520Y1185300D03*
X350520Y1202300D03*
X421640Y1185300D03*
X421640Y1202300D03*
D15*
X373580Y1171320D03*
X373580Y1163320D03*
X373580Y1155320D03*
X398580Y1171320D03*
X398580Y1163320D03*
X398580Y1155320D03*
D16*
X386080Y1163320D03*
D12*
X350520Y1151500D03*
X350520Y1134500D03*
D13*
X333130Y1168400D03*
X350130Y1168400D03*
D10*
X532210Y1191320D03*
X532210Y1135320D03*
D11*
X568960Y1178320D03*
X568960Y1168320D03*
X568960Y1158320D03*
X568960Y1148320D03*
D12*
X680720Y1151500D03*
X680720Y1134500D03*
D10*
X758110Y1135320D03*
X758110Y1191320D03*
D11*
X721360Y1148320D03*
X721360Y1158320D03*
X721360Y1168320D03*
X721360Y1178320D03*
D13*
X558410Y1083310D03*
X541410Y1083310D03*
D14*
X544640Y1096320D02*
X544640Y1103320D01*
X544640Y1096320D02*
X537640Y1096320D01*
X537640Y1103320D01*
X544640Y1103320D01*
X544640Y1099170D02*
X537640Y1099170D01*
X537640Y1102020D02*
X544640Y1102020D01*
X562180Y1103320D02*
X562180Y1096320D01*
X555180Y1096320D01*
X555180Y1103320D01*
X562180Y1103320D01*
X562180Y1099170D02*
X555180Y1099170D01*
X555180Y1102020D02*
X562180Y1102020D01*
D12*
X609600Y1185300D03*
X609600Y1202300D03*
X680720Y1185300D03*
X680720Y1202300D03*
D15*
X632660Y1171320D03*
X632660Y1163320D03*
X632660Y1155320D03*
X657660Y1171320D03*
X657660Y1163320D03*
X657660Y1155320D03*
D16*
X645160Y1163320D03*
D12*
X609600Y1151500D03*
X609600Y1134500D03*
D13*
X592210Y1168400D03*
X609210Y1168400D03*
D10*
X791290Y1191320D03*
X791290Y1135320D03*
D11*
X828040Y1178320D03*
X828040Y1168320D03*
X828040Y1158320D03*
X828040Y1148320D03*
D12*
X939800Y1151500D03*
X939800Y1134500D03*
D10*
X1017190Y1135320D03*
X1017190Y1191320D03*
D11*
X980440Y1148320D03*
X980440Y1158320D03*
X980440Y1168320D03*
X980440Y1178320D03*
D13*
X817490Y1083310D03*
X800490Y1083310D03*
D14*
X803720Y1096320D02*
X803720Y1103320D01*
X803720Y1096320D02*
X796720Y1096320D01*
X796720Y1103320D01*
X803720Y1103320D01*
X803720Y1099170D02*
X796720Y1099170D01*
X796720Y1102020D02*
X803720Y1102020D01*
X821260Y1103320D02*
X821260Y1096320D01*
X814260Y1096320D01*
X814260Y1103320D01*
X821260Y1103320D01*
X821260Y1099170D02*
X814260Y1099170D01*
X814260Y1102020D02*
X821260Y1102020D01*
D12*
X868680Y1185300D03*
X868680Y1202300D03*
X939800Y1185300D03*
X939800Y1202300D03*
D15*
X891740Y1171320D03*
X891740Y1163320D03*
X891740Y1155320D03*
X916740Y1171320D03*
X916740Y1163320D03*
X916740Y1155320D03*
D16*
X904240Y1163320D03*
D12*
X868680Y1151500D03*
X868680Y1134500D03*
D13*
X851290Y1168400D03*
X868290Y1168400D03*
D10*
X1050370Y1191320D03*
X1050370Y1135320D03*
D11*
X1087120Y1178320D03*
X1087120Y1168320D03*
X1087120Y1158320D03*
X1087120Y1148320D03*
D12*
X1198880Y1151500D03*
X1198880Y1134500D03*
D10*
X1276270Y1135320D03*
X1276270Y1191320D03*
D11*
X1239520Y1148320D03*
X1239520Y1158320D03*
X1239520Y1168320D03*
X1239520Y1178320D03*
D13*
X1076570Y1083310D03*
X1059570Y1083310D03*
D14*
X1062800Y1096320D02*
X1062800Y1103320D01*
X1062800Y1096320D02*
X1055800Y1096320D01*
X1055800Y1103320D01*
X1062800Y1103320D01*
X1062800Y1099170D02*
X1055800Y1099170D01*
X1055800Y1102020D02*
X1062800Y1102020D01*
X1080340Y1103320D02*
X1080340Y1096320D01*
X1073340Y1096320D01*
X1073340Y1103320D01*
X1080340Y1103320D01*
X1080340Y1099170D02*
X1073340Y1099170D01*
X1073340Y1102020D02*
X1080340Y1102020D01*
D12*
X1127760Y1185300D03*
X1127760Y1202300D03*
X1198880Y1185300D03*
X1198880Y1202300D03*
D15*
X1150820Y1171320D03*
X1150820Y1163320D03*
X1150820Y1155320D03*
X1175820Y1171320D03*
X1175820Y1163320D03*
X1175820Y1155320D03*
D16*
X1163320Y1163320D03*
D12*
X1127760Y1151500D03*
X1127760Y1134500D03*
D13*
X1110370Y1168400D03*
X1127370Y1168400D03*
D10*
X1309450Y1191320D03*
X1309450Y1135320D03*
D11*
X1346200Y1178320D03*
X1346200Y1168320D03*
X1346200Y1158320D03*
X1346200Y1148320D03*
D12*
X1457960Y1151500D03*
X1457960Y1134500D03*
D10*
X1535350Y1135320D03*
X1535350Y1191320D03*
D11*
X1498600Y1148320D03*
X1498600Y1158320D03*
X1498600Y1168320D03*
X1498600Y1178320D03*
D13*
X1335650Y1083310D03*
X1318650Y1083310D03*
D14*
X1321880Y1096320D02*
X1321880Y1103320D01*
X1321880Y1096320D02*
X1314880Y1096320D01*
X1314880Y1103320D01*
X1321880Y1103320D01*
X1321880Y1099170D02*
X1314880Y1099170D01*
X1314880Y1102020D02*
X1321880Y1102020D01*
X1339420Y1103320D02*
X1339420Y1096320D01*
X1332420Y1096320D01*
X1332420Y1103320D01*
X1339420Y1103320D01*
X1339420Y1099170D02*
X1332420Y1099170D01*
X1332420Y1102020D02*
X1339420Y1102020D01*
D12*
X1386840Y1185300D03*
X1386840Y1202300D03*
X1457960Y1185300D03*
X1457960Y1202300D03*
D15*
X1409900Y1171320D03*
X1409900Y1163320D03*
X1409900Y1155320D03*
X1434900Y1171320D03*
X1434900Y1163320D03*
X1434900Y1155320D03*
D16*
X1422400Y1163320D03*
D12*
X1386840Y1151500D03*
X1386840Y1134500D03*
D13*
X1369450Y1168400D03*
X1386450Y1168400D03*
D10*
X14050Y1450400D03*
X14050Y1394400D03*
D11*
X50800Y1437400D03*
X50800Y1427400D03*
X50800Y1417400D03*
X50800Y1407400D03*
D12*
X162560Y1410580D03*
X162560Y1393580D03*
D10*
X239950Y1394400D03*
X239950Y1450400D03*
D11*
X203200Y1407400D03*
X203200Y1417400D03*
X203200Y1427400D03*
X203200Y1437400D03*
D13*
X40250Y1342390D03*
X23250Y1342390D03*
D14*
X26480Y1355400D02*
X26480Y1362400D01*
X26480Y1355400D02*
X19480Y1355400D01*
X19480Y1362400D01*
X26480Y1362400D01*
X26480Y1358250D02*
X19480Y1358250D01*
X19480Y1361100D02*
X26480Y1361100D01*
X44020Y1362400D02*
X44020Y1355400D01*
X37020Y1355400D01*
X37020Y1362400D01*
X44020Y1362400D01*
X44020Y1358250D02*
X37020Y1358250D01*
X37020Y1361100D02*
X44020Y1361100D01*
D12*
X91440Y1444380D03*
X91440Y1461380D03*
X162560Y1444380D03*
X162560Y1461380D03*
D15*
X114500Y1430400D03*
X114500Y1422400D03*
X114500Y1414400D03*
X139500Y1430400D03*
X139500Y1422400D03*
X139500Y1414400D03*
D16*
X127000Y1422400D03*
D12*
X91440Y1410580D03*
X91440Y1393580D03*
D13*
X74050Y1427480D03*
X91050Y1427480D03*
D10*
X273130Y1450400D03*
X273130Y1394400D03*
D11*
X309880Y1437400D03*
X309880Y1427400D03*
X309880Y1417400D03*
X309880Y1407400D03*
D12*
X421640Y1410580D03*
X421640Y1393580D03*
D10*
X499030Y1394400D03*
X499030Y1450400D03*
D11*
X462280Y1407400D03*
X462280Y1417400D03*
X462280Y1427400D03*
X462280Y1437400D03*
D13*
X299330Y1342390D03*
X282330Y1342390D03*
D14*
X285560Y1355400D02*
X285560Y1362400D01*
X285560Y1355400D02*
X278560Y1355400D01*
X278560Y1362400D01*
X285560Y1362400D01*
X285560Y1358250D02*
X278560Y1358250D01*
X278560Y1361100D02*
X285560Y1361100D01*
X303100Y1362400D02*
X303100Y1355400D01*
X296100Y1355400D01*
X296100Y1362400D01*
X303100Y1362400D01*
X303100Y1358250D02*
X296100Y1358250D01*
X296100Y1361100D02*
X303100Y1361100D01*
D12*
X350520Y1444380D03*
X350520Y1461380D03*
X421640Y1444380D03*
X421640Y1461380D03*
D15*
X373580Y1430400D03*
X373580Y1422400D03*
X373580Y1414400D03*
X398580Y1430400D03*
X398580Y1422400D03*
X398580Y1414400D03*
D16*
X386080Y1422400D03*
D12*
X350520Y1410580D03*
X350520Y1393580D03*
D13*
X333130Y1427480D03*
X350130Y1427480D03*
D10*
X532210Y1450400D03*
X532210Y1394400D03*
D11*
X568960Y1437400D03*
X568960Y1427400D03*
X568960Y1417400D03*
X568960Y1407400D03*
D12*
X680720Y1410580D03*
X680720Y1393580D03*
D10*
X758110Y1394400D03*
X758110Y1450400D03*
D11*
X721360Y1407400D03*
X721360Y1417400D03*
X721360Y1427400D03*
X721360Y1437400D03*
D13*
X558410Y1342390D03*
X541410Y1342390D03*
D14*
X544640Y1355400D02*
X544640Y1362400D01*
X544640Y1355400D02*
X537640Y1355400D01*
X537640Y1362400D01*
X544640Y1362400D01*
X544640Y1358250D02*
X537640Y1358250D01*
X537640Y1361100D02*
X544640Y1361100D01*
X562180Y1362400D02*
X562180Y1355400D01*
X555180Y1355400D01*
X555180Y1362400D01*
X562180Y1362400D01*
X562180Y1358250D02*
X555180Y1358250D01*
X555180Y1361100D02*
X562180Y1361100D01*
D12*
X609600Y1444380D03*
X609600Y1461380D03*
X680720Y1444380D03*
X680720Y1461380D03*
D15*
X632660Y1430400D03*
X632660Y1422400D03*
X632660Y1414400D03*
X657660Y1430400D03*
X657660Y1422400D03*
X657660Y1414400D03*
D16*
X645160Y1422400D03*
D12*
X609600Y1410580D03*
X609600Y1393580D03*
D13*
X592210Y1427480D03*
X609210Y1427480D03*
D10*
X791290Y1450400D03*
X791290Y1394400D03*
D11*
X828040Y1437400D03*
X828040Y1427400D03*
X828040Y1417400D03*
X828040Y1407400D03*
D12*
X939800Y1410580D03*
X939800Y1393580D03*
D10*
X1017190Y1394400D03*
X1017190Y1450400D03*
D11*
X980440Y1407400D03*
X980440Y1417400D03*
X980440Y1427400D03*
X980440Y1437400D03*
D13*
X817490Y1342390D03*
X800490Y1342390D03*
D14*
X803720Y1355400D02*
X803720Y1362400D01*
X803720Y1355400D02*
X796720Y1355400D01*
X796720Y1362400D01*
X803720Y1362400D01*
X803720Y1358250D02*
X796720Y1358250D01*
X796720Y1361100D02*
X803720Y1361100D01*
X821260Y1362400D02*
X821260Y1355400D01*
X814260Y1355400D01*
X814260Y1362400D01*
X821260Y1362400D01*
X821260Y1358250D02*
X814260Y1358250D01*
X814260Y1361100D02*
X821260Y1361100D01*
D12*
X868680Y1444380D03*
X868680Y1461380D03*
X939800Y1444380D03*
X939800Y1461380D03*
D15*
X891740Y1430400D03*
X891740Y1422400D03*
X891740Y1414400D03*
X916740Y1430400D03*
X916740Y1422400D03*
X916740Y1414400D03*
D16*
X904240Y1422400D03*
D12*
X868680Y1410580D03*
X868680Y1393580D03*
D13*
X851290Y1427480D03*
X868290Y1427480D03*
D10*
X1050370Y1450400D03*
X1050370Y1394400D03*
D11*
X1087120Y1437400D03*
X1087120Y1427400D03*
X1087120Y1417400D03*
X1087120Y1407400D03*
D12*
X1198880Y1410580D03*
X1198880Y1393580D03*
D10*
X1276270Y1394400D03*
X1276270Y1450400D03*
D11*
X1239520Y1407400D03*
X1239520Y1417400D03*
X1239520Y1427400D03*
X1239520Y1437400D03*
D13*
X1076570Y1342390D03*
X1059570Y1342390D03*
D14*
X1062800Y1355400D02*
X1062800Y1362400D01*
X1062800Y1355400D02*
X1055800Y1355400D01*
X1055800Y1362400D01*
X1062800Y1362400D01*
X1062800Y1358250D02*
X1055800Y1358250D01*
X1055800Y1361100D02*
X1062800Y1361100D01*
X1080340Y1362400D02*
X1080340Y1355400D01*
X1073340Y1355400D01*
X1073340Y1362400D01*
X1080340Y1362400D01*
X1080340Y1358250D02*
X1073340Y1358250D01*
X1073340Y1361100D02*
X1080340Y1361100D01*
D12*
X1127760Y1444380D03*
X1127760Y1461380D03*
X1198880Y1444380D03*
X1198880Y1461380D03*
D15*
X1150820Y1430400D03*
X1150820Y1422400D03*
X1150820Y1414400D03*
X1175820Y1430400D03*
X1175820Y1422400D03*
X1175820Y1414400D03*
D16*
X1163320Y1422400D03*
D12*
X1127760Y1410580D03*
X1127760Y1393580D03*
D13*
X1110370Y1427480D03*
X1127370Y1427480D03*
D10*
X1309450Y1450400D03*
X1309450Y1394400D03*
D11*
X1346200Y1437400D03*
X1346200Y1427400D03*
X1346200Y1417400D03*
X1346200Y1407400D03*
D12*
X1457960Y1410580D03*
X1457960Y1393580D03*
D10*
X1535350Y1394400D03*
X1535350Y1450400D03*
D11*
X1498600Y1407400D03*
X1498600Y1417400D03*
X1498600Y1427400D03*
X1498600Y1437400D03*
D13*
X1335650Y1342390D03*
X1318650Y1342390D03*
D14*
X1321880Y1355400D02*
X1321880Y1362400D01*
X1321880Y1355400D02*
X1314880Y1355400D01*
X1314880Y1362400D01*
X1321880Y1362400D01*
X1321880Y1358250D02*
X1314880Y1358250D01*
X1314880Y1361100D02*
X1321880Y1361100D01*
X1339420Y1362400D02*
X1339420Y1355400D01*
X1332420Y1355400D01*
X1332420Y1362400D01*
X1339420Y1362400D01*
X1339420Y1358250D02*
X1332420Y1358250D01*
X1332420Y1361100D02*
X1339420Y1361100D01*
D12*
X1386840Y1444380D03*
X1386840Y1461380D03*
X1457960Y1444380D03*
X1457960Y1461380D03*
D15*
X1409900Y1430400D03*
X1409900Y1422400D03*
X1409900Y1414400D03*
X1434900Y1430400D03*
X1434900Y1422400D03*
X1434900Y1414400D03*
D16*
X1422400Y1422400D03*
D12*
X1386840Y1410580D03*
X1386840Y1393580D03*
D13*
X1369450Y1427480D03*
X1386450Y1427480D03*
M02*
