G04 EAGLE Gerber RS-274X export*
G75*
%MOMM*%
%FSLAX34Y34*%
%LPD*%
%INSoldermask Top*%
%IPPOS*%
%AMOC8*
5,1,8,0,0,1.08239X$1,22.5*%
G01*
%ADD10C,3.402000*%
%ADD11C,0.735000*%
%ADD12R,2.100000X1.300000*%
%ADD13R,1.450000X0.700000*%
%ADD14R,1.100000X1.200000*%
%ADD15R,1.200000X1.100000*%
%ADD16C,0.396000*%
%ADD17R,0.760400X1.370000*%
%ADD18C,1.979600*%
%ADD19R,0.650000X0.500000*%
%ADD20C,1.100000*%
%ADD21C,1.270000*%
%ADD22C,1.600000*%

G36*
X1429655Y1412899D02*
X1429655Y1412899D01*
X1429654Y1412900D01*
X1429655Y1412900D01*
X1429655Y1431900D01*
X1429651Y1431905D01*
X1429650Y1431904D01*
X1429650Y1431905D01*
X1418400Y1431905D01*
X1418398Y1431903D01*
X1418397Y1431903D01*
X1415147Y1428653D01*
X1415147Y1428652D01*
X1415146Y1428652D01*
X1415147Y1428651D01*
X1415145Y1428650D01*
X1415145Y1412900D01*
X1415149Y1412895D01*
X1415150Y1412896D01*
X1415150Y1412895D01*
X1429650Y1412895D01*
X1429655Y1412899D01*
G37*
G36*
X652415Y1412899D02*
X652415Y1412899D01*
X652414Y1412900D01*
X652415Y1412900D01*
X652415Y1431900D01*
X652411Y1431905D01*
X652410Y1431904D01*
X652410Y1431905D01*
X641160Y1431905D01*
X641158Y1431903D01*
X641157Y1431903D01*
X637907Y1428653D01*
X637907Y1428652D01*
X637906Y1428652D01*
X637907Y1428651D01*
X637905Y1428650D01*
X637905Y1412900D01*
X637909Y1412895D01*
X637910Y1412896D01*
X637910Y1412895D01*
X652410Y1412895D01*
X652415Y1412899D01*
G37*
G36*
X134255Y1412899D02*
X134255Y1412899D01*
X134254Y1412900D01*
X134255Y1412900D01*
X134255Y1431900D01*
X134251Y1431905D01*
X134250Y1431904D01*
X134250Y1431905D01*
X123000Y1431905D01*
X122998Y1431903D01*
X122997Y1431903D01*
X119747Y1428653D01*
X119747Y1428652D01*
X119746Y1428652D01*
X119747Y1428651D01*
X119745Y1428650D01*
X119745Y1412900D01*
X119749Y1412895D01*
X119750Y1412896D01*
X119750Y1412895D01*
X134250Y1412895D01*
X134255Y1412899D01*
G37*
G36*
X911495Y1412899D02*
X911495Y1412899D01*
X911494Y1412900D01*
X911495Y1412900D01*
X911495Y1431900D01*
X911491Y1431905D01*
X911490Y1431904D01*
X911490Y1431905D01*
X900240Y1431905D01*
X900238Y1431903D01*
X900237Y1431903D01*
X896987Y1428653D01*
X896987Y1428652D01*
X896986Y1428652D01*
X896987Y1428651D01*
X896985Y1428650D01*
X896985Y1412900D01*
X896989Y1412895D01*
X896990Y1412896D01*
X896990Y1412895D01*
X911490Y1412895D01*
X911495Y1412899D01*
G37*
G36*
X393335Y1412899D02*
X393335Y1412899D01*
X393334Y1412900D01*
X393335Y1412900D01*
X393335Y1431900D01*
X393331Y1431905D01*
X393330Y1431904D01*
X393330Y1431905D01*
X382080Y1431905D01*
X382078Y1431903D01*
X382077Y1431903D01*
X378827Y1428653D01*
X378827Y1428652D01*
X378826Y1428652D01*
X378827Y1428651D01*
X378825Y1428650D01*
X378825Y1412900D01*
X378829Y1412895D01*
X378830Y1412896D01*
X378830Y1412895D01*
X393330Y1412895D01*
X393335Y1412899D01*
G37*
G36*
X1170575Y1412899D02*
X1170575Y1412899D01*
X1170574Y1412900D01*
X1170575Y1412900D01*
X1170575Y1431900D01*
X1170571Y1431905D01*
X1170570Y1431904D01*
X1170570Y1431905D01*
X1159320Y1431905D01*
X1159318Y1431903D01*
X1159317Y1431903D01*
X1156067Y1428653D01*
X1156067Y1428652D01*
X1156066Y1428652D01*
X1156067Y1428651D01*
X1156065Y1428650D01*
X1156065Y1412900D01*
X1156069Y1412895D01*
X1156070Y1412896D01*
X1156070Y1412895D01*
X1170570Y1412895D01*
X1170575Y1412899D01*
G37*
G36*
X1170575Y117499D02*
X1170575Y117499D01*
X1170574Y117500D01*
X1170575Y117500D01*
X1170575Y136500D01*
X1170571Y136505D01*
X1170570Y136504D01*
X1170570Y136505D01*
X1159320Y136505D01*
X1159318Y136503D01*
X1159317Y136503D01*
X1156067Y133253D01*
X1156067Y133252D01*
X1156066Y133252D01*
X1156067Y133251D01*
X1156065Y133250D01*
X1156065Y117500D01*
X1156069Y117495D01*
X1156070Y117496D01*
X1156070Y117495D01*
X1170570Y117495D01*
X1170575Y117499D01*
G37*
G36*
X911495Y635659D02*
X911495Y635659D01*
X911494Y635660D01*
X911495Y635660D01*
X911495Y654660D01*
X911491Y654665D01*
X911490Y654664D01*
X911490Y654665D01*
X900240Y654665D01*
X900238Y654663D01*
X900237Y654663D01*
X896987Y651413D01*
X896987Y651412D01*
X896986Y651412D01*
X896987Y651411D01*
X896985Y651410D01*
X896985Y635660D01*
X896989Y635655D01*
X896990Y635656D01*
X896990Y635655D01*
X911490Y635655D01*
X911495Y635659D01*
G37*
G36*
X393335Y635659D02*
X393335Y635659D01*
X393334Y635660D01*
X393335Y635660D01*
X393335Y654660D01*
X393331Y654665D01*
X393330Y654664D01*
X393330Y654665D01*
X382080Y654665D01*
X382078Y654663D01*
X382077Y654663D01*
X378827Y651413D01*
X378827Y651412D01*
X378826Y651412D01*
X378827Y651411D01*
X378825Y651410D01*
X378825Y635660D01*
X378829Y635655D01*
X378830Y635656D01*
X378830Y635655D01*
X393330Y635655D01*
X393335Y635659D01*
G37*
G36*
X1429655Y635659D02*
X1429655Y635659D01*
X1429654Y635660D01*
X1429655Y635660D01*
X1429655Y654660D01*
X1429651Y654665D01*
X1429650Y654664D01*
X1429650Y654665D01*
X1418400Y654665D01*
X1418398Y654663D01*
X1418397Y654663D01*
X1415147Y651413D01*
X1415147Y651412D01*
X1415146Y651412D01*
X1415147Y651411D01*
X1415145Y651410D01*
X1415145Y635660D01*
X1415149Y635655D01*
X1415150Y635656D01*
X1415150Y635655D01*
X1429650Y635655D01*
X1429655Y635659D01*
G37*
G36*
X652415Y635659D02*
X652415Y635659D01*
X652414Y635660D01*
X652415Y635660D01*
X652415Y654660D01*
X652411Y654665D01*
X652410Y654664D01*
X652410Y654665D01*
X641160Y654665D01*
X641158Y654663D01*
X641157Y654663D01*
X637907Y651413D01*
X637907Y651412D01*
X637906Y651412D01*
X637907Y651411D01*
X637905Y651410D01*
X637905Y635660D01*
X637909Y635655D01*
X637910Y635656D01*
X637910Y635655D01*
X652410Y635655D01*
X652415Y635659D01*
G37*
G36*
X134255Y635659D02*
X134255Y635659D01*
X134254Y635660D01*
X134255Y635660D01*
X134255Y654660D01*
X134251Y654665D01*
X134250Y654664D01*
X134250Y654665D01*
X123000Y654665D01*
X122998Y654663D01*
X122997Y654663D01*
X119747Y651413D01*
X119747Y651412D01*
X119746Y651412D01*
X119747Y651411D01*
X119745Y651410D01*
X119745Y635660D01*
X119749Y635655D01*
X119750Y635656D01*
X119750Y635655D01*
X134250Y635655D01*
X134255Y635659D01*
G37*
G36*
X393335Y1153819D02*
X393335Y1153819D01*
X393334Y1153820D01*
X393335Y1153820D01*
X393335Y1172820D01*
X393331Y1172825D01*
X393330Y1172824D01*
X393330Y1172825D01*
X382080Y1172825D01*
X382078Y1172823D01*
X382077Y1172823D01*
X378827Y1169573D01*
X378827Y1169572D01*
X378826Y1169572D01*
X378827Y1169571D01*
X378825Y1169570D01*
X378825Y1153820D01*
X378829Y1153815D01*
X378830Y1153816D01*
X378830Y1153815D01*
X393330Y1153815D01*
X393335Y1153819D01*
G37*
G36*
X911495Y1153819D02*
X911495Y1153819D01*
X911494Y1153820D01*
X911495Y1153820D01*
X911495Y1172820D01*
X911491Y1172825D01*
X911490Y1172824D01*
X911490Y1172825D01*
X900240Y1172825D01*
X900238Y1172823D01*
X900237Y1172823D01*
X896987Y1169573D01*
X896987Y1169572D01*
X896986Y1169572D01*
X896987Y1169571D01*
X896985Y1169570D01*
X896985Y1153820D01*
X896989Y1153815D01*
X896990Y1153816D01*
X896990Y1153815D01*
X911490Y1153815D01*
X911495Y1153819D01*
G37*
G36*
X652415Y1153819D02*
X652415Y1153819D01*
X652414Y1153820D01*
X652415Y1153820D01*
X652415Y1172820D01*
X652411Y1172825D01*
X652410Y1172824D01*
X652410Y1172825D01*
X641160Y1172825D01*
X641158Y1172823D01*
X641157Y1172823D01*
X637907Y1169573D01*
X637907Y1169572D01*
X637906Y1169572D01*
X637907Y1169571D01*
X637905Y1169570D01*
X637905Y1153820D01*
X637909Y1153815D01*
X637910Y1153816D01*
X637910Y1153815D01*
X652410Y1153815D01*
X652415Y1153819D01*
G37*
G36*
X1170575Y1153819D02*
X1170575Y1153819D01*
X1170574Y1153820D01*
X1170575Y1153820D01*
X1170575Y1172820D01*
X1170571Y1172825D01*
X1170570Y1172824D01*
X1170570Y1172825D01*
X1159320Y1172825D01*
X1159318Y1172823D01*
X1159317Y1172823D01*
X1156067Y1169573D01*
X1156067Y1169572D01*
X1156066Y1169572D01*
X1156067Y1169571D01*
X1156065Y1169570D01*
X1156065Y1153820D01*
X1156069Y1153815D01*
X1156070Y1153816D01*
X1156070Y1153815D01*
X1170570Y1153815D01*
X1170575Y1153819D01*
G37*
G36*
X134255Y1153819D02*
X134255Y1153819D01*
X134254Y1153820D01*
X134255Y1153820D01*
X134255Y1172820D01*
X134251Y1172825D01*
X134250Y1172824D01*
X134250Y1172825D01*
X123000Y1172825D01*
X122998Y1172823D01*
X122997Y1172823D01*
X119747Y1169573D01*
X119747Y1169572D01*
X119746Y1169572D01*
X119747Y1169571D01*
X119745Y1169570D01*
X119745Y1153820D01*
X119749Y1153815D01*
X119750Y1153816D01*
X119750Y1153815D01*
X134250Y1153815D01*
X134255Y1153819D01*
G37*
G36*
X1429655Y1153819D02*
X1429655Y1153819D01*
X1429654Y1153820D01*
X1429655Y1153820D01*
X1429655Y1172820D01*
X1429651Y1172825D01*
X1429650Y1172824D01*
X1429650Y1172825D01*
X1418400Y1172825D01*
X1418398Y1172823D01*
X1418397Y1172823D01*
X1415147Y1169573D01*
X1415147Y1169572D01*
X1415146Y1169572D01*
X1415147Y1169571D01*
X1415145Y1169570D01*
X1415145Y1153820D01*
X1415149Y1153815D01*
X1415150Y1153816D01*
X1415150Y1153815D01*
X1429650Y1153815D01*
X1429655Y1153819D01*
G37*
G36*
X1170575Y635659D02*
X1170575Y635659D01*
X1170574Y635660D01*
X1170575Y635660D01*
X1170575Y654660D01*
X1170571Y654665D01*
X1170570Y654664D01*
X1170570Y654665D01*
X1159320Y654665D01*
X1159318Y654663D01*
X1159317Y654663D01*
X1156067Y651413D01*
X1156067Y651412D01*
X1156066Y651412D01*
X1156067Y651411D01*
X1156065Y651410D01*
X1156065Y635660D01*
X1156069Y635655D01*
X1156070Y635656D01*
X1156070Y635655D01*
X1170570Y635655D01*
X1170575Y635659D01*
G37*
G36*
X1170575Y376579D02*
X1170575Y376579D01*
X1170574Y376580D01*
X1170575Y376580D01*
X1170575Y395580D01*
X1170571Y395585D01*
X1170570Y395584D01*
X1170570Y395585D01*
X1159320Y395585D01*
X1159318Y395583D01*
X1159317Y395583D01*
X1156067Y392333D01*
X1156067Y392332D01*
X1156066Y392332D01*
X1156067Y392331D01*
X1156065Y392330D01*
X1156065Y376580D01*
X1156069Y376575D01*
X1156070Y376576D01*
X1156070Y376575D01*
X1170570Y376575D01*
X1170575Y376579D01*
G37*
G36*
X1429655Y376579D02*
X1429655Y376579D01*
X1429654Y376580D01*
X1429655Y376580D01*
X1429655Y395580D01*
X1429651Y395585D01*
X1429650Y395584D01*
X1429650Y395585D01*
X1418400Y395585D01*
X1418398Y395583D01*
X1418397Y395583D01*
X1415147Y392333D01*
X1415147Y392332D01*
X1415146Y392332D01*
X1415147Y392331D01*
X1415145Y392330D01*
X1415145Y376580D01*
X1415149Y376575D01*
X1415150Y376576D01*
X1415150Y376575D01*
X1429650Y376575D01*
X1429655Y376579D01*
G37*
G36*
X652415Y376579D02*
X652415Y376579D01*
X652414Y376580D01*
X652415Y376580D01*
X652415Y395580D01*
X652411Y395585D01*
X652410Y395584D01*
X652410Y395585D01*
X641160Y395585D01*
X641158Y395583D01*
X641157Y395583D01*
X637907Y392333D01*
X637907Y392332D01*
X637906Y392332D01*
X637907Y392331D01*
X637905Y392330D01*
X637905Y376580D01*
X637909Y376575D01*
X637910Y376576D01*
X637910Y376575D01*
X652410Y376575D01*
X652415Y376579D01*
G37*
G36*
X134255Y376579D02*
X134255Y376579D01*
X134254Y376580D01*
X134255Y376580D01*
X134255Y395580D01*
X134251Y395585D01*
X134250Y395584D01*
X134250Y395585D01*
X123000Y395585D01*
X122998Y395583D01*
X122997Y395583D01*
X119747Y392333D01*
X119747Y392332D01*
X119746Y392332D01*
X119747Y392331D01*
X119745Y392330D01*
X119745Y376580D01*
X119749Y376575D01*
X119750Y376576D01*
X119750Y376575D01*
X134250Y376575D01*
X134255Y376579D01*
G37*
G36*
X393335Y376579D02*
X393335Y376579D01*
X393334Y376580D01*
X393335Y376580D01*
X393335Y395580D01*
X393331Y395585D01*
X393330Y395584D01*
X393330Y395585D01*
X382080Y395585D01*
X382078Y395583D01*
X382077Y395583D01*
X378827Y392333D01*
X378827Y392332D01*
X378826Y392332D01*
X378827Y392331D01*
X378825Y392330D01*
X378825Y376580D01*
X378829Y376575D01*
X378830Y376576D01*
X378830Y376575D01*
X393330Y376575D01*
X393335Y376579D01*
G37*
G36*
X652415Y894739D02*
X652415Y894739D01*
X652414Y894740D01*
X652415Y894740D01*
X652415Y913740D01*
X652411Y913745D01*
X652410Y913744D01*
X652410Y913745D01*
X641160Y913745D01*
X641158Y913743D01*
X641157Y913743D01*
X637907Y910493D01*
X637907Y910492D01*
X637906Y910492D01*
X637907Y910491D01*
X637905Y910490D01*
X637905Y894740D01*
X637909Y894735D01*
X637910Y894736D01*
X637910Y894735D01*
X652410Y894735D01*
X652415Y894739D01*
G37*
G36*
X393335Y894739D02*
X393335Y894739D01*
X393334Y894740D01*
X393335Y894740D01*
X393335Y913740D01*
X393331Y913745D01*
X393330Y913744D01*
X393330Y913745D01*
X382080Y913745D01*
X382078Y913743D01*
X382077Y913743D01*
X378827Y910493D01*
X378827Y910492D01*
X378826Y910492D01*
X378827Y910491D01*
X378825Y910490D01*
X378825Y894740D01*
X378829Y894735D01*
X378830Y894736D01*
X378830Y894735D01*
X393330Y894735D01*
X393335Y894739D01*
G37*
G36*
X1429655Y894739D02*
X1429655Y894739D01*
X1429654Y894740D01*
X1429655Y894740D01*
X1429655Y913740D01*
X1429651Y913745D01*
X1429650Y913744D01*
X1429650Y913745D01*
X1418400Y913745D01*
X1418398Y913743D01*
X1418397Y913743D01*
X1415147Y910493D01*
X1415147Y910492D01*
X1415146Y910492D01*
X1415147Y910491D01*
X1415145Y910490D01*
X1415145Y894740D01*
X1415149Y894735D01*
X1415150Y894736D01*
X1415150Y894735D01*
X1429650Y894735D01*
X1429655Y894739D01*
G37*
G36*
X134255Y894739D02*
X134255Y894739D01*
X134254Y894740D01*
X134255Y894740D01*
X134255Y913740D01*
X134251Y913745D01*
X134250Y913744D01*
X134250Y913745D01*
X123000Y913745D01*
X122998Y913743D01*
X122997Y913743D01*
X119747Y910493D01*
X119747Y910492D01*
X119746Y910492D01*
X119747Y910491D01*
X119745Y910490D01*
X119745Y894740D01*
X119749Y894735D01*
X119750Y894736D01*
X119750Y894735D01*
X134250Y894735D01*
X134255Y894739D01*
G37*
G36*
X1170575Y894739D02*
X1170575Y894739D01*
X1170574Y894740D01*
X1170575Y894740D01*
X1170575Y913740D01*
X1170571Y913745D01*
X1170570Y913744D01*
X1170570Y913745D01*
X1159320Y913745D01*
X1159318Y913743D01*
X1159317Y913743D01*
X1156067Y910493D01*
X1156067Y910492D01*
X1156066Y910492D01*
X1156067Y910491D01*
X1156065Y910490D01*
X1156065Y894740D01*
X1156069Y894735D01*
X1156070Y894736D01*
X1156070Y894735D01*
X1170570Y894735D01*
X1170575Y894739D01*
G37*
G36*
X911495Y894739D02*
X911495Y894739D01*
X911494Y894740D01*
X911495Y894740D01*
X911495Y913740D01*
X911491Y913745D01*
X911490Y913744D01*
X911490Y913745D01*
X900240Y913745D01*
X900238Y913743D01*
X900237Y913743D01*
X896987Y910493D01*
X896987Y910492D01*
X896986Y910492D01*
X896987Y910491D01*
X896985Y910490D01*
X896985Y894740D01*
X896989Y894735D01*
X896990Y894736D01*
X896990Y894735D01*
X911490Y894735D01*
X911495Y894739D01*
G37*
G36*
X911495Y376579D02*
X911495Y376579D01*
X911494Y376580D01*
X911495Y376580D01*
X911495Y395580D01*
X911491Y395585D01*
X911490Y395584D01*
X911490Y395585D01*
X900240Y395585D01*
X900238Y395583D01*
X900237Y395583D01*
X896987Y392333D01*
X896987Y392332D01*
X896986Y392332D01*
X896987Y392331D01*
X896985Y392330D01*
X896985Y376580D01*
X896989Y376575D01*
X896990Y376576D01*
X896990Y376575D01*
X911490Y376575D01*
X911495Y376579D01*
G37*
G36*
X393335Y117499D02*
X393335Y117499D01*
X393334Y117500D01*
X393335Y117500D01*
X393335Y136500D01*
X393331Y136505D01*
X393330Y136504D01*
X393330Y136505D01*
X382080Y136505D01*
X382078Y136503D01*
X382077Y136503D01*
X378827Y133253D01*
X378827Y133252D01*
X378826Y133252D01*
X378827Y133251D01*
X378825Y133250D01*
X378825Y117500D01*
X378829Y117495D01*
X378830Y117496D01*
X378830Y117495D01*
X393330Y117495D01*
X393335Y117499D01*
G37*
G36*
X911495Y117499D02*
X911495Y117499D01*
X911494Y117500D01*
X911495Y117500D01*
X911495Y136500D01*
X911491Y136505D01*
X911490Y136504D01*
X911490Y136505D01*
X900240Y136505D01*
X900238Y136503D01*
X900237Y136503D01*
X896987Y133253D01*
X896987Y133252D01*
X896986Y133252D01*
X896987Y133251D01*
X896985Y133250D01*
X896985Y117500D01*
X896989Y117495D01*
X896990Y117496D01*
X896990Y117495D01*
X911490Y117495D01*
X911495Y117499D01*
G37*
G36*
X652415Y117499D02*
X652415Y117499D01*
X652414Y117500D01*
X652415Y117500D01*
X652415Y136500D01*
X652411Y136505D01*
X652410Y136504D01*
X652410Y136505D01*
X641160Y136505D01*
X641158Y136503D01*
X641157Y136503D01*
X637907Y133253D01*
X637907Y133252D01*
X637906Y133252D01*
X637907Y133251D01*
X637905Y133250D01*
X637905Y117500D01*
X637909Y117495D01*
X637910Y117496D01*
X637910Y117495D01*
X652410Y117495D01*
X652415Y117499D01*
G37*
G36*
X1429655Y117499D02*
X1429655Y117499D01*
X1429654Y117500D01*
X1429655Y117500D01*
X1429655Y136500D01*
X1429651Y136505D01*
X1429650Y136504D01*
X1429650Y136505D01*
X1418400Y136505D01*
X1418398Y136503D01*
X1418397Y136503D01*
X1415147Y133253D01*
X1415147Y133252D01*
X1415146Y133252D01*
X1415147Y133251D01*
X1415145Y133250D01*
X1415145Y117500D01*
X1415149Y117495D01*
X1415150Y117496D01*
X1415150Y117495D01*
X1429650Y117495D01*
X1429655Y117499D01*
G37*
G36*
X134255Y117499D02*
X134255Y117499D01*
X134254Y117500D01*
X134255Y117500D01*
X134255Y136500D01*
X134251Y136505D01*
X134250Y136504D01*
X134250Y136505D01*
X123000Y136505D01*
X122998Y136503D01*
X122997Y136503D01*
X119747Y133253D01*
X119747Y133252D01*
X119746Y133252D01*
X119747Y133251D01*
X119745Y133250D01*
X119745Y117500D01*
X119749Y117495D01*
X119750Y117496D01*
X119750Y117495D01*
X134250Y117495D01*
X134255Y117499D01*
G37*
G36*
X292800Y1320177D02*
X292800Y1320177D01*
X292866Y1320179D01*
X292909Y1320197D01*
X292956Y1320205D01*
X293013Y1320239D01*
X293073Y1320264D01*
X293108Y1320295D01*
X293149Y1320320D01*
X293191Y1320371D01*
X293239Y1320415D01*
X293261Y1320457D01*
X293290Y1320494D01*
X293311Y1320556D01*
X293342Y1320615D01*
X293350Y1320669D01*
X293362Y1320706D01*
X293361Y1320746D01*
X293369Y1320800D01*
X293369Y1323340D01*
X293358Y1323405D01*
X293356Y1323471D01*
X293338Y1323514D01*
X293330Y1323561D01*
X293296Y1323618D01*
X293271Y1323678D01*
X293240Y1323713D01*
X293215Y1323754D01*
X293164Y1323796D01*
X293120Y1323844D01*
X293078Y1323866D01*
X293041Y1323895D01*
X292979Y1323916D01*
X292920Y1323947D01*
X292866Y1323955D01*
X292829Y1323967D01*
X292789Y1323966D01*
X292735Y1323974D01*
X288925Y1323974D01*
X288860Y1323963D01*
X288794Y1323961D01*
X288751Y1323943D01*
X288704Y1323935D01*
X288647Y1323901D01*
X288587Y1323876D01*
X288552Y1323845D01*
X288511Y1323820D01*
X288470Y1323769D01*
X288421Y1323725D01*
X288399Y1323683D01*
X288370Y1323646D01*
X288349Y1323584D01*
X288318Y1323525D01*
X288310Y1323471D01*
X288298Y1323434D01*
X288298Y1323431D01*
X288299Y1323394D01*
X288291Y1323340D01*
X288291Y1320800D01*
X288302Y1320735D01*
X288304Y1320669D01*
X288322Y1320626D01*
X288330Y1320579D01*
X288364Y1320522D01*
X288389Y1320462D01*
X288420Y1320427D01*
X288445Y1320386D01*
X288496Y1320345D01*
X288540Y1320296D01*
X288582Y1320274D01*
X288619Y1320245D01*
X288681Y1320224D01*
X288740Y1320193D01*
X288794Y1320185D01*
X288831Y1320173D01*
X288871Y1320174D01*
X288925Y1320166D01*
X292735Y1320166D01*
X292800Y1320177D01*
G37*
G36*
X1070040Y1320177D02*
X1070040Y1320177D01*
X1070106Y1320179D01*
X1070149Y1320197D01*
X1070196Y1320205D01*
X1070253Y1320239D01*
X1070313Y1320264D01*
X1070348Y1320295D01*
X1070389Y1320320D01*
X1070431Y1320371D01*
X1070479Y1320415D01*
X1070501Y1320457D01*
X1070530Y1320494D01*
X1070551Y1320556D01*
X1070582Y1320615D01*
X1070590Y1320669D01*
X1070602Y1320706D01*
X1070601Y1320746D01*
X1070609Y1320800D01*
X1070609Y1323340D01*
X1070598Y1323405D01*
X1070596Y1323471D01*
X1070578Y1323514D01*
X1070570Y1323561D01*
X1070536Y1323618D01*
X1070511Y1323678D01*
X1070480Y1323713D01*
X1070455Y1323754D01*
X1070404Y1323796D01*
X1070360Y1323844D01*
X1070318Y1323866D01*
X1070281Y1323895D01*
X1070219Y1323916D01*
X1070160Y1323947D01*
X1070106Y1323955D01*
X1070069Y1323967D01*
X1070029Y1323966D01*
X1069975Y1323974D01*
X1066165Y1323974D01*
X1066100Y1323963D01*
X1066034Y1323961D01*
X1065991Y1323943D01*
X1065944Y1323935D01*
X1065887Y1323901D01*
X1065827Y1323876D01*
X1065792Y1323845D01*
X1065751Y1323820D01*
X1065710Y1323769D01*
X1065661Y1323725D01*
X1065639Y1323683D01*
X1065610Y1323646D01*
X1065589Y1323584D01*
X1065558Y1323525D01*
X1065550Y1323471D01*
X1065538Y1323434D01*
X1065538Y1323431D01*
X1065539Y1323394D01*
X1065531Y1323340D01*
X1065531Y1320800D01*
X1065542Y1320735D01*
X1065544Y1320669D01*
X1065562Y1320626D01*
X1065570Y1320579D01*
X1065604Y1320522D01*
X1065629Y1320462D01*
X1065660Y1320427D01*
X1065685Y1320386D01*
X1065736Y1320345D01*
X1065780Y1320296D01*
X1065822Y1320274D01*
X1065859Y1320245D01*
X1065921Y1320224D01*
X1065980Y1320193D01*
X1066034Y1320185D01*
X1066071Y1320173D01*
X1066111Y1320174D01*
X1066165Y1320166D01*
X1069975Y1320166D01*
X1070040Y1320177D01*
G37*
G36*
X33720Y1320177D02*
X33720Y1320177D01*
X33786Y1320179D01*
X33829Y1320197D01*
X33876Y1320205D01*
X33933Y1320239D01*
X33993Y1320264D01*
X34028Y1320295D01*
X34069Y1320320D01*
X34111Y1320371D01*
X34159Y1320415D01*
X34181Y1320457D01*
X34210Y1320494D01*
X34231Y1320556D01*
X34262Y1320615D01*
X34270Y1320669D01*
X34282Y1320706D01*
X34281Y1320746D01*
X34289Y1320800D01*
X34289Y1323340D01*
X34278Y1323405D01*
X34276Y1323471D01*
X34258Y1323514D01*
X34250Y1323561D01*
X34216Y1323618D01*
X34191Y1323678D01*
X34160Y1323713D01*
X34135Y1323754D01*
X34084Y1323796D01*
X34040Y1323844D01*
X33998Y1323866D01*
X33961Y1323895D01*
X33899Y1323916D01*
X33840Y1323947D01*
X33786Y1323955D01*
X33749Y1323967D01*
X33709Y1323966D01*
X33655Y1323974D01*
X29845Y1323974D01*
X29780Y1323963D01*
X29714Y1323961D01*
X29671Y1323943D01*
X29624Y1323935D01*
X29567Y1323901D01*
X29507Y1323876D01*
X29472Y1323845D01*
X29431Y1323820D01*
X29390Y1323769D01*
X29341Y1323725D01*
X29319Y1323683D01*
X29290Y1323646D01*
X29269Y1323584D01*
X29238Y1323525D01*
X29230Y1323471D01*
X29218Y1323434D01*
X29218Y1323431D01*
X29219Y1323394D01*
X29211Y1323340D01*
X29211Y1320800D01*
X29222Y1320735D01*
X29224Y1320669D01*
X29242Y1320626D01*
X29250Y1320579D01*
X29284Y1320522D01*
X29309Y1320462D01*
X29340Y1320427D01*
X29365Y1320386D01*
X29416Y1320345D01*
X29460Y1320296D01*
X29502Y1320274D01*
X29539Y1320245D01*
X29601Y1320224D01*
X29660Y1320193D01*
X29714Y1320185D01*
X29751Y1320173D01*
X29791Y1320174D01*
X29845Y1320166D01*
X33655Y1320166D01*
X33720Y1320177D01*
G37*
G36*
X810960Y1320177D02*
X810960Y1320177D01*
X811026Y1320179D01*
X811069Y1320197D01*
X811116Y1320205D01*
X811173Y1320239D01*
X811233Y1320264D01*
X811268Y1320295D01*
X811309Y1320320D01*
X811351Y1320371D01*
X811399Y1320415D01*
X811421Y1320457D01*
X811450Y1320494D01*
X811471Y1320556D01*
X811502Y1320615D01*
X811510Y1320669D01*
X811522Y1320706D01*
X811521Y1320746D01*
X811529Y1320800D01*
X811529Y1323340D01*
X811518Y1323405D01*
X811516Y1323471D01*
X811498Y1323514D01*
X811490Y1323561D01*
X811456Y1323618D01*
X811431Y1323678D01*
X811400Y1323713D01*
X811375Y1323754D01*
X811324Y1323796D01*
X811280Y1323844D01*
X811238Y1323866D01*
X811201Y1323895D01*
X811139Y1323916D01*
X811080Y1323947D01*
X811026Y1323955D01*
X810989Y1323967D01*
X810949Y1323966D01*
X810895Y1323974D01*
X807085Y1323974D01*
X807020Y1323963D01*
X806954Y1323961D01*
X806911Y1323943D01*
X806864Y1323935D01*
X806807Y1323901D01*
X806747Y1323876D01*
X806712Y1323845D01*
X806671Y1323820D01*
X806630Y1323769D01*
X806581Y1323725D01*
X806559Y1323683D01*
X806530Y1323646D01*
X806509Y1323584D01*
X806478Y1323525D01*
X806470Y1323471D01*
X806458Y1323434D01*
X806458Y1323431D01*
X806459Y1323394D01*
X806451Y1323340D01*
X806451Y1320800D01*
X806462Y1320735D01*
X806464Y1320669D01*
X806482Y1320626D01*
X806490Y1320579D01*
X806524Y1320522D01*
X806549Y1320462D01*
X806580Y1320427D01*
X806605Y1320386D01*
X806656Y1320345D01*
X806700Y1320296D01*
X806742Y1320274D01*
X806779Y1320245D01*
X806841Y1320224D01*
X806900Y1320193D01*
X806954Y1320185D01*
X806991Y1320173D01*
X807031Y1320174D01*
X807085Y1320166D01*
X810895Y1320166D01*
X810960Y1320177D01*
G37*
G36*
X551880Y1320177D02*
X551880Y1320177D01*
X551946Y1320179D01*
X551989Y1320197D01*
X552036Y1320205D01*
X552093Y1320239D01*
X552153Y1320264D01*
X552188Y1320295D01*
X552229Y1320320D01*
X552271Y1320371D01*
X552319Y1320415D01*
X552341Y1320457D01*
X552370Y1320494D01*
X552391Y1320556D01*
X552422Y1320615D01*
X552430Y1320669D01*
X552442Y1320706D01*
X552441Y1320746D01*
X552449Y1320800D01*
X552449Y1323340D01*
X552438Y1323405D01*
X552436Y1323471D01*
X552418Y1323514D01*
X552410Y1323561D01*
X552376Y1323618D01*
X552351Y1323678D01*
X552320Y1323713D01*
X552295Y1323754D01*
X552244Y1323796D01*
X552200Y1323844D01*
X552158Y1323866D01*
X552121Y1323895D01*
X552059Y1323916D01*
X552000Y1323947D01*
X551946Y1323955D01*
X551909Y1323967D01*
X551869Y1323966D01*
X551815Y1323974D01*
X548005Y1323974D01*
X547940Y1323963D01*
X547874Y1323961D01*
X547831Y1323943D01*
X547784Y1323935D01*
X547727Y1323901D01*
X547667Y1323876D01*
X547632Y1323845D01*
X547591Y1323820D01*
X547550Y1323769D01*
X547501Y1323725D01*
X547479Y1323683D01*
X547450Y1323646D01*
X547429Y1323584D01*
X547398Y1323525D01*
X547390Y1323471D01*
X547378Y1323434D01*
X547378Y1323431D01*
X547379Y1323394D01*
X547371Y1323340D01*
X547371Y1320800D01*
X547382Y1320735D01*
X547384Y1320669D01*
X547402Y1320626D01*
X547410Y1320579D01*
X547444Y1320522D01*
X547469Y1320462D01*
X547500Y1320427D01*
X547525Y1320386D01*
X547576Y1320345D01*
X547620Y1320296D01*
X547662Y1320274D01*
X547699Y1320245D01*
X547761Y1320224D01*
X547820Y1320193D01*
X547874Y1320185D01*
X547911Y1320173D01*
X547951Y1320174D01*
X548005Y1320166D01*
X551815Y1320166D01*
X551880Y1320177D01*
G37*
G36*
X1070040Y1061097D02*
X1070040Y1061097D01*
X1070106Y1061099D01*
X1070149Y1061117D01*
X1070196Y1061125D01*
X1070253Y1061159D01*
X1070313Y1061184D01*
X1070348Y1061215D01*
X1070389Y1061240D01*
X1070431Y1061291D01*
X1070479Y1061335D01*
X1070501Y1061377D01*
X1070530Y1061414D01*
X1070551Y1061476D01*
X1070582Y1061535D01*
X1070590Y1061589D01*
X1070602Y1061626D01*
X1070601Y1061666D01*
X1070609Y1061720D01*
X1070609Y1064260D01*
X1070598Y1064325D01*
X1070596Y1064391D01*
X1070578Y1064434D01*
X1070570Y1064481D01*
X1070536Y1064538D01*
X1070511Y1064598D01*
X1070480Y1064633D01*
X1070455Y1064674D01*
X1070404Y1064716D01*
X1070360Y1064764D01*
X1070318Y1064786D01*
X1070281Y1064815D01*
X1070219Y1064836D01*
X1070160Y1064867D01*
X1070106Y1064875D01*
X1070069Y1064887D01*
X1070029Y1064886D01*
X1069975Y1064894D01*
X1066165Y1064894D01*
X1066100Y1064883D01*
X1066034Y1064881D01*
X1065991Y1064863D01*
X1065944Y1064855D01*
X1065887Y1064821D01*
X1065827Y1064796D01*
X1065792Y1064765D01*
X1065751Y1064740D01*
X1065710Y1064689D01*
X1065661Y1064645D01*
X1065639Y1064603D01*
X1065610Y1064566D01*
X1065589Y1064504D01*
X1065558Y1064445D01*
X1065550Y1064391D01*
X1065538Y1064354D01*
X1065538Y1064351D01*
X1065539Y1064314D01*
X1065531Y1064260D01*
X1065531Y1061720D01*
X1065542Y1061655D01*
X1065544Y1061589D01*
X1065562Y1061546D01*
X1065570Y1061499D01*
X1065604Y1061442D01*
X1065629Y1061382D01*
X1065660Y1061347D01*
X1065685Y1061306D01*
X1065736Y1061265D01*
X1065780Y1061216D01*
X1065822Y1061194D01*
X1065859Y1061165D01*
X1065921Y1061144D01*
X1065980Y1061113D01*
X1066034Y1061105D01*
X1066071Y1061093D01*
X1066111Y1061094D01*
X1066165Y1061086D01*
X1069975Y1061086D01*
X1070040Y1061097D01*
G37*
G36*
X810960Y1061097D02*
X810960Y1061097D01*
X811026Y1061099D01*
X811069Y1061117D01*
X811116Y1061125D01*
X811173Y1061159D01*
X811233Y1061184D01*
X811268Y1061215D01*
X811309Y1061240D01*
X811351Y1061291D01*
X811399Y1061335D01*
X811421Y1061377D01*
X811450Y1061414D01*
X811471Y1061476D01*
X811502Y1061535D01*
X811510Y1061589D01*
X811522Y1061626D01*
X811521Y1061666D01*
X811529Y1061720D01*
X811529Y1064260D01*
X811518Y1064325D01*
X811516Y1064391D01*
X811498Y1064434D01*
X811490Y1064481D01*
X811456Y1064538D01*
X811431Y1064598D01*
X811400Y1064633D01*
X811375Y1064674D01*
X811324Y1064716D01*
X811280Y1064764D01*
X811238Y1064786D01*
X811201Y1064815D01*
X811139Y1064836D01*
X811080Y1064867D01*
X811026Y1064875D01*
X810989Y1064887D01*
X810949Y1064886D01*
X810895Y1064894D01*
X807085Y1064894D01*
X807020Y1064883D01*
X806954Y1064881D01*
X806911Y1064863D01*
X806864Y1064855D01*
X806807Y1064821D01*
X806747Y1064796D01*
X806712Y1064765D01*
X806671Y1064740D01*
X806630Y1064689D01*
X806581Y1064645D01*
X806559Y1064603D01*
X806530Y1064566D01*
X806509Y1064504D01*
X806478Y1064445D01*
X806470Y1064391D01*
X806458Y1064354D01*
X806458Y1064351D01*
X806459Y1064314D01*
X806451Y1064260D01*
X806451Y1061720D01*
X806462Y1061655D01*
X806464Y1061589D01*
X806482Y1061546D01*
X806490Y1061499D01*
X806524Y1061442D01*
X806549Y1061382D01*
X806580Y1061347D01*
X806605Y1061306D01*
X806656Y1061265D01*
X806700Y1061216D01*
X806742Y1061194D01*
X806779Y1061165D01*
X806841Y1061144D01*
X806900Y1061113D01*
X806954Y1061105D01*
X806991Y1061093D01*
X807031Y1061094D01*
X807085Y1061086D01*
X810895Y1061086D01*
X810960Y1061097D01*
G37*
G36*
X1329120Y1061097D02*
X1329120Y1061097D01*
X1329186Y1061099D01*
X1329229Y1061117D01*
X1329276Y1061125D01*
X1329333Y1061159D01*
X1329393Y1061184D01*
X1329428Y1061215D01*
X1329469Y1061240D01*
X1329511Y1061291D01*
X1329559Y1061335D01*
X1329581Y1061377D01*
X1329610Y1061414D01*
X1329631Y1061476D01*
X1329662Y1061535D01*
X1329670Y1061589D01*
X1329682Y1061626D01*
X1329681Y1061666D01*
X1329689Y1061720D01*
X1329689Y1064260D01*
X1329678Y1064325D01*
X1329676Y1064391D01*
X1329658Y1064434D01*
X1329650Y1064481D01*
X1329616Y1064538D01*
X1329591Y1064598D01*
X1329560Y1064633D01*
X1329535Y1064674D01*
X1329484Y1064716D01*
X1329440Y1064764D01*
X1329398Y1064786D01*
X1329361Y1064815D01*
X1329299Y1064836D01*
X1329240Y1064867D01*
X1329186Y1064875D01*
X1329149Y1064887D01*
X1329109Y1064886D01*
X1329055Y1064894D01*
X1325245Y1064894D01*
X1325180Y1064883D01*
X1325114Y1064881D01*
X1325071Y1064863D01*
X1325024Y1064855D01*
X1324967Y1064821D01*
X1324907Y1064796D01*
X1324872Y1064765D01*
X1324831Y1064740D01*
X1324790Y1064689D01*
X1324741Y1064645D01*
X1324719Y1064603D01*
X1324690Y1064566D01*
X1324669Y1064504D01*
X1324638Y1064445D01*
X1324630Y1064391D01*
X1324618Y1064354D01*
X1324618Y1064351D01*
X1324619Y1064314D01*
X1324611Y1064260D01*
X1324611Y1061720D01*
X1324622Y1061655D01*
X1324624Y1061589D01*
X1324642Y1061546D01*
X1324650Y1061499D01*
X1324684Y1061442D01*
X1324709Y1061382D01*
X1324740Y1061347D01*
X1324765Y1061306D01*
X1324816Y1061265D01*
X1324860Y1061216D01*
X1324902Y1061194D01*
X1324939Y1061165D01*
X1325001Y1061144D01*
X1325060Y1061113D01*
X1325114Y1061105D01*
X1325151Y1061093D01*
X1325191Y1061094D01*
X1325245Y1061086D01*
X1329055Y1061086D01*
X1329120Y1061097D01*
G37*
G36*
X33720Y1061097D02*
X33720Y1061097D01*
X33786Y1061099D01*
X33829Y1061117D01*
X33876Y1061125D01*
X33933Y1061159D01*
X33993Y1061184D01*
X34028Y1061215D01*
X34069Y1061240D01*
X34111Y1061291D01*
X34159Y1061335D01*
X34181Y1061377D01*
X34210Y1061414D01*
X34231Y1061476D01*
X34262Y1061535D01*
X34270Y1061589D01*
X34282Y1061626D01*
X34281Y1061666D01*
X34289Y1061720D01*
X34289Y1064260D01*
X34278Y1064325D01*
X34276Y1064391D01*
X34258Y1064434D01*
X34250Y1064481D01*
X34216Y1064538D01*
X34191Y1064598D01*
X34160Y1064633D01*
X34135Y1064674D01*
X34084Y1064716D01*
X34040Y1064764D01*
X33998Y1064786D01*
X33961Y1064815D01*
X33899Y1064836D01*
X33840Y1064867D01*
X33786Y1064875D01*
X33749Y1064887D01*
X33709Y1064886D01*
X33655Y1064894D01*
X29845Y1064894D01*
X29780Y1064883D01*
X29714Y1064881D01*
X29671Y1064863D01*
X29624Y1064855D01*
X29567Y1064821D01*
X29507Y1064796D01*
X29472Y1064765D01*
X29431Y1064740D01*
X29390Y1064689D01*
X29341Y1064645D01*
X29319Y1064603D01*
X29290Y1064566D01*
X29269Y1064504D01*
X29238Y1064445D01*
X29230Y1064391D01*
X29218Y1064354D01*
X29218Y1064351D01*
X29219Y1064314D01*
X29211Y1064260D01*
X29211Y1061720D01*
X29222Y1061655D01*
X29224Y1061589D01*
X29242Y1061546D01*
X29250Y1061499D01*
X29284Y1061442D01*
X29309Y1061382D01*
X29340Y1061347D01*
X29365Y1061306D01*
X29416Y1061265D01*
X29460Y1061216D01*
X29502Y1061194D01*
X29539Y1061165D01*
X29601Y1061144D01*
X29660Y1061113D01*
X29714Y1061105D01*
X29751Y1061093D01*
X29791Y1061094D01*
X29845Y1061086D01*
X33655Y1061086D01*
X33720Y1061097D01*
G37*
G36*
X292800Y1061097D02*
X292800Y1061097D01*
X292866Y1061099D01*
X292909Y1061117D01*
X292956Y1061125D01*
X293013Y1061159D01*
X293073Y1061184D01*
X293108Y1061215D01*
X293149Y1061240D01*
X293191Y1061291D01*
X293239Y1061335D01*
X293261Y1061377D01*
X293290Y1061414D01*
X293311Y1061476D01*
X293342Y1061535D01*
X293350Y1061589D01*
X293362Y1061626D01*
X293361Y1061666D01*
X293369Y1061720D01*
X293369Y1064260D01*
X293358Y1064325D01*
X293356Y1064391D01*
X293338Y1064434D01*
X293330Y1064481D01*
X293296Y1064538D01*
X293271Y1064598D01*
X293240Y1064633D01*
X293215Y1064674D01*
X293164Y1064716D01*
X293120Y1064764D01*
X293078Y1064786D01*
X293041Y1064815D01*
X292979Y1064836D01*
X292920Y1064867D01*
X292866Y1064875D01*
X292829Y1064887D01*
X292789Y1064886D01*
X292735Y1064894D01*
X288925Y1064894D01*
X288860Y1064883D01*
X288794Y1064881D01*
X288751Y1064863D01*
X288704Y1064855D01*
X288647Y1064821D01*
X288587Y1064796D01*
X288552Y1064765D01*
X288511Y1064740D01*
X288470Y1064689D01*
X288421Y1064645D01*
X288399Y1064603D01*
X288370Y1064566D01*
X288349Y1064504D01*
X288318Y1064445D01*
X288310Y1064391D01*
X288298Y1064354D01*
X288298Y1064351D01*
X288299Y1064314D01*
X288291Y1064260D01*
X288291Y1061720D01*
X288302Y1061655D01*
X288304Y1061589D01*
X288322Y1061546D01*
X288330Y1061499D01*
X288364Y1061442D01*
X288389Y1061382D01*
X288420Y1061347D01*
X288445Y1061306D01*
X288496Y1061265D01*
X288540Y1061216D01*
X288582Y1061194D01*
X288619Y1061165D01*
X288681Y1061144D01*
X288740Y1061113D01*
X288794Y1061105D01*
X288831Y1061093D01*
X288871Y1061094D01*
X288925Y1061086D01*
X292735Y1061086D01*
X292800Y1061097D01*
G37*
G36*
X551880Y1061097D02*
X551880Y1061097D01*
X551946Y1061099D01*
X551989Y1061117D01*
X552036Y1061125D01*
X552093Y1061159D01*
X552153Y1061184D01*
X552188Y1061215D01*
X552229Y1061240D01*
X552271Y1061291D01*
X552319Y1061335D01*
X552341Y1061377D01*
X552370Y1061414D01*
X552391Y1061476D01*
X552422Y1061535D01*
X552430Y1061589D01*
X552442Y1061626D01*
X552441Y1061666D01*
X552449Y1061720D01*
X552449Y1064260D01*
X552438Y1064325D01*
X552436Y1064391D01*
X552418Y1064434D01*
X552410Y1064481D01*
X552376Y1064538D01*
X552351Y1064598D01*
X552320Y1064633D01*
X552295Y1064674D01*
X552244Y1064716D01*
X552200Y1064764D01*
X552158Y1064786D01*
X552121Y1064815D01*
X552059Y1064836D01*
X552000Y1064867D01*
X551946Y1064875D01*
X551909Y1064887D01*
X551869Y1064886D01*
X551815Y1064894D01*
X548005Y1064894D01*
X547940Y1064883D01*
X547874Y1064881D01*
X547831Y1064863D01*
X547784Y1064855D01*
X547727Y1064821D01*
X547667Y1064796D01*
X547632Y1064765D01*
X547591Y1064740D01*
X547550Y1064689D01*
X547501Y1064645D01*
X547479Y1064603D01*
X547450Y1064566D01*
X547429Y1064504D01*
X547398Y1064445D01*
X547390Y1064391D01*
X547378Y1064354D01*
X547378Y1064351D01*
X547379Y1064314D01*
X547371Y1064260D01*
X547371Y1061720D01*
X547382Y1061655D01*
X547384Y1061589D01*
X547402Y1061546D01*
X547410Y1061499D01*
X547444Y1061442D01*
X547469Y1061382D01*
X547500Y1061347D01*
X547525Y1061306D01*
X547576Y1061265D01*
X547620Y1061216D01*
X547662Y1061194D01*
X547699Y1061165D01*
X547761Y1061144D01*
X547820Y1061113D01*
X547874Y1061105D01*
X547911Y1061093D01*
X547951Y1061094D01*
X548005Y1061086D01*
X551815Y1061086D01*
X551880Y1061097D01*
G37*
G36*
X551880Y802017D02*
X551880Y802017D01*
X551946Y802019D01*
X551989Y802037D01*
X552036Y802045D01*
X552093Y802079D01*
X552153Y802104D01*
X552188Y802135D01*
X552229Y802160D01*
X552271Y802211D01*
X552319Y802255D01*
X552341Y802297D01*
X552370Y802334D01*
X552391Y802396D01*
X552422Y802455D01*
X552430Y802509D01*
X552442Y802546D01*
X552441Y802586D01*
X552449Y802640D01*
X552449Y805180D01*
X552438Y805245D01*
X552436Y805311D01*
X552418Y805354D01*
X552410Y805401D01*
X552376Y805458D01*
X552351Y805518D01*
X552320Y805553D01*
X552295Y805594D01*
X552244Y805636D01*
X552200Y805684D01*
X552158Y805706D01*
X552121Y805735D01*
X552059Y805756D01*
X552000Y805787D01*
X551946Y805795D01*
X551909Y805807D01*
X551869Y805806D01*
X551815Y805814D01*
X548005Y805814D01*
X547940Y805803D01*
X547874Y805801D01*
X547831Y805783D01*
X547784Y805775D01*
X547727Y805741D01*
X547667Y805716D01*
X547632Y805685D01*
X547591Y805660D01*
X547550Y805609D01*
X547501Y805565D01*
X547479Y805523D01*
X547450Y805486D01*
X547429Y805424D01*
X547398Y805365D01*
X547390Y805311D01*
X547378Y805274D01*
X547378Y805271D01*
X547379Y805234D01*
X547371Y805180D01*
X547371Y802640D01*
X547382Y802575D01*
X547384Y802509D01*
X547402Y802466D01*
X547410Y802419D01*
X547444Y802362D01*
X547469Y802302D01*
X547500Y802267D01*
X547525Y802226D01*
X547576Y802185D01*
X547620Y802136D01*
X547662Y802114D01*
X547699Y802085D01*
X547761Y802064D01*
X547820Y802033D01*
X547874Y802025D01*
X547911Y802013D01*
X547951Y802014D01*
X548005Y802006D01*
X551815Y802006D01*
X551880Y802017D01*
G37*
G36*
X1329120Y802017D02*
X1329120Y802017D01*
X1329186Y802019D01*
X1329229Y802037D01*
X1329276Y802045D01*
X1329333Y802079D01*
X1329393Y802104D01*
X1329428Y802135D01*
X1329469Y802160D01*
X1329511Y802211D01*
X1329559Y802255D01*
X1329581Y802297D01*
X1329610Y802334D01*
X1329631Y802396D01*
X1329662Y802455D01*
X1329670Y802509D01*
X1329682Y802546D01*
X1329681Y802586D01*
X1329689Y802640D01*
X1329689Y805180D01*
X1329678Y805245D01*
X1329676Y805311D01*
X1329658Y805354D01*
X1329650Y805401D01*
X1329616Y805458D01*
X1329591Y805518D01*
X1329560Y805553D01*
X1329535Y805594D01*
X1329484Y805636D01*
X1329440Y805684D01*
X1329398Y805706D01*
X1329361Y805735D01*
X1329299Y805756D01*
X1329240Y805787D01*
X1329186Y805795D01*
X1329149Y805807D01*
X1329109Y805806D01*
X1329055Y805814D01*
X1325245Y805814D01*
X1325180Y805803D01*
X1325114Y805801D01*
X1325071Y805783D01*
X1325024Y805775D01*
X1324967Y805741D01*
X1324907Y805716D01*
X1324872Y805685D01*
X1324831Y805660D01*
X1324790Y805609D01*
X1324741Y805565D01*
X1324719Y805523D01*
X1324690Y805486D01*
X1324669Y805424D01*
X1324638Y805365D01*
X1324630Y805311D01*
X1324618Y805274D01*
X1324618Y805271D01*
X1324619Y805234D01*
X1324611Y805180D01*
X1324611Y802640D01*
X1324622Y802575D01*
X1324624Y802509D01*
X1324642Y802466D01*
X1324650Y802419D01*
X1324684Y802362D01*
X1324709Y802302D01*
X1324740Y802267D01*
X1324765Y802226D01*
X1324816Y802185D01*
X1324860Y802136D01*
X1324902Y802114D01*
X1324939Y802085D01*
X1325001Y802064D01*
X1325060Y802033D01*
X1325114Y802025D01*
X1325151Y802013D01*
X1325191Y802014D01*
X1325245Y802006D01*
X1329055Y802006D01*
X1329120Y802017D01*
G37*
G36*
X292800Y802017D02*
X292800Y802017D01*
X292866Y802019D01*
X292909Y802037D01*
X292956Y802045D01*
X293013Y802079D01*
X293073Y802104D01*
X293108Y802135D01*
X293149Y802160D01*
X293191Y802211D01*
X293239Y802255D01*
X293261Y802297D01*
X293290Y802334D01*
X293311Y802396D01*
X293342Y802455D01*
X293350Y802509D01*
X293362Y802546D01*
X293361Y802586D01*
X293369Y802640D01*
X293369Y805180D01*
X293358Y805245D01*
X293356Y805311D01*
X293338Y805354D01*
X293330Y805401D01*
X293296Y805458D01*
X293271Y805518D01*
X293240Y805553D01*
X293215Y805594D01*
X293164Y805636D01*
X293120Y805684D01*
X293078Y805706D01*
X293041Y805735D01*
X292979Y805756D01*
X292920Y805787D01*
X292866Y805795D01*
X292829Y805807D01*
X292789Y805806D01*
X292735Y805814D01*
X288925Y805814D01*
X288860Y805803D01*
X288794Y805801D01*
X288751Y805783D01*
X288704Y805775D01*
X288647Y805741D01*
X288587Y805716D01*
X288552Y805685D01*
X288511Y805660D01*
X288470Y805609D01*
X288421Y805565D01*
X288399Y805523D01*
X288370Y805486D01*
X288349Y805424D01*
X288318Y805365D01*
X288310Y805311D01*
X288298Y805274D01*
X288298Y805271D01*
X288299Y805234D01*
X288291Y805180D01*
X288291Y802640D01*
X288302Y802575D01*
X288304Y802509D01*
X288322Y802466D01*
X288330Y802419D01*
X288364Y802362D01*
X288389Y802302D01*
X288420Y802267D01*
X288445Y802226D01*
X288496Y802185D01*
X288540Y802136D01*
X288582Y802114D01*
X288619Y802085D01*
X288681Y802064D01*
X288740Y802033D01*
X288794Y802025D01*
X288831Y802013D01*
X288871Y802014D01*
X288925Y802006D01*
X292735Y802006D01*
X292800Y802017D01*
G37*
G36*
X1070040Y802017D02*
X1070040Y802017D01*
X1070106Y802019D01*
X1070149Y802037D01*
X1070196Y802045D01*
X1070253Y802079D01*
X1070313Y802104D01*
X1070348Y802135D01*
X1070389Y802160D01*
X1070431Y802211D01*
X1070479Y802255D01*
X1070501Y802297D01*
X1070530Y802334D01*
X1070551Y802396D01*
X1070582Y802455D01*
X1070590Y802509D01*
X1070602Y802546D01*
X1070601Y802586D01*
X1070609Y802640D01*
X1070609Y805180D01*
X1070598Y805245D01*
X1070596Y805311D01*
X1070578Y805354D01*
X1070570Y805401D01*
X1070536Y805458D01*
X1070511Y805518D01*
X1070480Y805553D01*
X1070455Y805594D01*
X1070404Y805636D01*
X1070360Y805684D01*
X1070318Y805706D01*
X1070281Y805735D01*
X1070219Y805756D01*
X1070160Y805787D01*
X1070106Y805795D01*
X1070069Y805807D01*
X1070029Y805806D01*
X1069975Y805814D01*
X1066165Y805814D01*
X1066100Y805803D01*
X1066034Y805801D01*
X1065991Y805783D01*
X1065944Y805775D01*
X1065887Y805741D01*
X1065827Y805716D01*
X1065792Y805685D01*
X1065751Y805660D01*
X1065710Y805609D01*
X1065661Y805565D01*
X1065639Y805523D01*
X1065610Y805486D01*
X1065589Y805424D01*
X1065558Y805365D01*
X1065550Y805311D01*
X1065538Y805274D01*
X1065538Y805271D01*
X1065539Y805234D01*
X1065531Y805180D01*
X1065531Y802640D01*
X1065542Y802575D01*
X1065544Y802509D01*
X1065562Y802466D01*
X1065570Y802419D01*
X1065604Y802362D01*
X1065629Y802302D01*
X1065660Y802267D01*
X1065685Y802226D01*
X1065736Y802185D01*
X1065780Y802136D01*
X1065822Y802114D01*
X1065859Y802085D01*
X1065921Y802064D01*
X1065980Y802033D01*
X1066034Y802025D01*
X1066071Y802013D01*
X1066111Y802014D01*
X1066165Y802006D01*
X1069975Y802006D01*
X1070040Y802017D01*
G37*
G36*
X810960Y802017D02*
X810960Y802017D01*
X811026Y802019D01*
X811069Y802037D01*
X811116Y802045D01*
X811173Y802079D01*
X811233Y802104D01*
X811268Y802135D01*
X811309Y802160D01*
X811351Y802211D01*
X811399Y802255D01*
X811421Y802297D01*
X811450Y802334D01*
X811471Y802396D01*
X811502Y802455D01*
X811510Y802509D01*
X811522Y802546D01*
X811521Y802586D01*
X811529Y802640D01*
X811529Y805180D01*
X811518Y805245D01*
X811516Y805311D01*
X811498Y805354D01*
X811490Y805401D01*
X811456Y805458D01*
X811431Y805518D01*
X811400Y805553D01*
X811375Y805594D01*
X811324Y805636D01*
X811280Y805684D01*
X811238Y805706D01*
X811201Y805735D01*
X811139Y805756D01*
X811080Y805787D01*
X811026Y805795D01*
X810989Y805807D01*
X810949Y805806D01*
X810895Y805814D01*
X807085Y805814D01*
X807020Y805803D01*
X806954Y805801D01*
X806911Y805783D01*
X806864Y805775D01*
X806807Y805741D01*
X806747Y805716D01*
X806712Y805685D01*
X806671Y805660D01*
X806630Y805609D01*
X806581Y805565D01*
X806559Y805523D01*
X806530Y805486D01*
X806509Y805424D01*
X806478Y805365D01*
X806470Y805311D01*
X806458Y805274D01*
X806458Y805271D01*
X806459Y805234D01*
X806451Y805180D01*
X806451Y802640D01*
X806462Y802575D01*
X806464Y802509D01*
X806482Y802466D01*
X806490Y802419D01*
X806524Y802362D01*
X806549Y802302D01*
X806580Y802267D01*
X806605Y802226D01*
X806656Y802185D01*
X806700Y802136D01*
X806742Y802114D01*
X806779Y802085D01*
X806841Y802064D01*
X806900Y802033D01*
X806954Y802025D01*
X806991Y802013D01*
X807031Y802014D01*
X807085Y802006D01*
X810895Y802006D01*
X810960Y802017D01*
G37*
G36*
X33720Y802017D02*
X33720Y802017D01*
X33786Y802019D01*
X33829Y802037D01*
X33876Y802045D01*
X33933Y802079D01*
X33993Y802104D01*
X34028Y802135D01*
X34069Y802160D01*
X34111Y802211D01*
X34159Y802255D01*
X34181Y802297D01*
X34210Y802334D01*
X34231Y802396D01*
X34262Y802455D01*
X34270Y802509D01*
X34282Y802546D01*
X34281Y802586D01*
X34289Y802640D01*
X34289Y805180D01*
X34278Y805245D01*
X34276Y805311D01*
X34258Y805354D01*
X34250Y805401D01*
X34216Y805458D01*
X34191Y805518D01*
X34160Y805553D01*
X34135Y805594D01*
X34084Y805636D01*
X34040Y805684D01*
X33998Y805706D01*
X33961Y805735D01*
X33899Y805756D01*
X33840Y805787D01*
X33786Y805795D01*
X33749Y805807D01*
X33709Y805806D01*
X33655Y805814D01*
X29845Y805814D01*
X29780Y805803D01*
X29714Y805801D01*
X29671Y805783D01*
X29624Y805775D01*
X29567Y805741D01*
X29507Y805716D01*
X29472Y805685D01*
X29431Y805660D01*
X29390Y805609D01*
X29341Y805565D01*
X29319Y805523D01*
X29290Y805486D01*
X29269Y805424D01*
X29238Y805365D01*
X29230Y805311D01*
X29218Y805274D01*
X29218Y805271D01*
X29219Y805234D01*
X29211Y805180D01*
X29211Y802640D01*
X29222Y802575D01*
X29224Y802509D01*
X29242Y802466D01*
X29250Y802419D01*
X29284Y802362D01*
X29309Y802302D01*
X29340Y802267D01*
X29365Y802226D01*
X29416Y802185D01*
X29460Y802136D01*
X29502Y802114D01*
X29539Y802085D01*
X29601Y802064D01*
X29660Y802033D01*
X29714Y802025D01*
X29751Y802013D01*
X29791Y802014D01*
X29845Y802006D01*
X33655Y802006D01*
X33720Y802017D01*
G37*
G36*
X1329120Y542937D02*
X1329120Y542937D01*
X1329186Y542939D01*
X1329229Y542957D01*
X1329276Y542965D01*
X1329333Y542999D01*
X1329393Y543024D01*
X1329428Y543055D01*
X1329469Y543080D01*
X1329511Y543131D01*
X1329559Y543175D01*
X1329581Y543217D01*
X1329610Y543254D01*
X1329631Y543316D01*
X1329662Y543375D01*
X1329670Y543429D01*
X1329682Y543466D01*
X1329681Y543506D01*
X1329689Y543560D01*
X1329689Y546100D01*
X1329678Y546165D01*
X1329676Y546231D01*
X1329658Y546274D01*
X1329650Y546321D01*
X1329616Y546378D01*
X1329591Y546438D01*
X1329560Y546473D01*
X1329535Y546514D01*
X1329484Y546556D01*
X1329440Y546604D01*
X1329398Y546626D01*
X1329361Y546655D01*
X1329299Y546676D01*
X1329240Y546707D01*
X1329186Y546715D01*
X1329149Y546727D01*
X1329109Y546726D01*
X1329055Y546734D01*
X1325245Y546734D01*
X1325180Y546723D01*
X1325114Y546721D01*
X1325071Y546703D01*
X1325024Y546695D01*
X1324967Y546661D01*
X1324907Y546636D01*
X1324872Y546605D01*
X1324831Y546580D01*
X1324790Y546529D01*
X1324741Y546485D01*
X1324719Y546443D01*
X1324690Y546406D01*
X1324669Y546344D01*
X1324638Y546285D01*
X1324630Y546231D01*
X1324618Y546194D01*
X1324618Y546191D01*
X1324619Y546154D01*
X1324611Y546100D01*
X1324611Y543560D01*
X1324622Y543495D01*
X1324624Y543429D01*
X1324642Y543386D01*
X1324650Y543339D01*
X1324684Y543282D01*
X1324709Y543222D01*
X1324740Y543187D01*
X1324765Y543146D01*
X1324816Y543105D01*
X1324860Y543056D01*
X1324902Y543034D01*
X1324939Y543005D01*
X1325001Y542984D01*
X1325060Y542953D01*
X1325114Y542945D01*
X1325151Y542933D01*
X1325191Y542934D01*
X1325245Y542926D01*
X1329055Y542926D01*
X1329120Y542937D01*
G37*
G36*
X1329120Y283857D02*
X1329120Y283857D01*
X1329186Y283859D01*
X1329229Y283877D01*
X1329276Y283885D01*
X1329333Y283919D01*
X1329393Y283944D01*
X1329428Y283975D01*
X1329469Y284000D01*
X1329511Y284051D01*
X1329559Y284095D01*
X1329581Y284137D01*
X1329610Y284174D01*
X1329631Y284236D01*
X1329662Y284295D01*
X1329670Y284349D01*
X1329682Y284386D01*
X1329681Y284426D01*
X1329689Y284480D01*
X1329689Y287020D01*
X1329678Y287085D01*
X1329676Y287151D01*
X1329658Y287194D01*
X1329650Y287241D01*
X1329616Y287298D01*
X1329591Y287358D01*
X1329560Y287393D01*
X1329535Y287434D01*
X1329484Y287476D01*
X1329440Y287524D01*
X1329398Y287546D01*
X1329361Y287575D01*
X1329299Y287596D01*
X1329240Y287627D01*
X1329186Y287635D01*
X1329149Y287647D01*
X1329109Y287646D01*
X1329055Y287654D01*
X1325245Y287654D01*
X1325180Y287643D01*
X1325114Y287641D01*
X1325071Y287623D01*
X1325024Y287615D01*
X1324967Y287581D01*
X1324907Y287556D01*
X1324872Y287525D01*
X1324831Y287500D01*
X1324790Y287449D01*
X1324741Y287405D01*
X1324719Y287363D01*
X1324690Y287326D01*
X1324669Y287264D01*
X1324638Y287205D01*
X1324630Y287151D01*
X1324618Y287114D01*
X1324618Y287111D01*
X1324619Y287074D01*
X1324611Y287020D01*
X1324611Y284480D01*
X1324622Y284415D01*
X1324624Y284349D01*
X1324642Y284306D01*
X1324650Y284259D01*
X1324684Y284202D01*
X1324709Y284142D01*
X1324740Y284107D01*
X1324765Y284066D01*
X1324816Y284025D01*
X1324860Y283976D01*
X1324902Y283954D01*
X1324939Y283925D01*
X1325001Y283904D01*
X1325060Y283873D01*
X1325114Y283865D01*
X1325151Y283853D01*
X1325191Y283854D01*
X1325245Y283846D01*
X1329055Y283846D01*
X1329120Y283857D01*
G37*
G36*
X551880Y283857D02*
X551880Y283857D01*
X551946Y283859D01*
X551989Y283877D01*
X552036Y283885D01*
X552093Y283919D01*
X552153Y283944D01*
X552188Y283975D01*
X552229Y284000D01*
X552271Y284051D01*
X552319Y284095D01*
X552341Y284137D01*
X552370Y284174D01*
X552391Y284236D01*
X552422Y284295D01*
X552430Y284349D01*
X552442Y284386D01*
X552441Y284426D01*
X552449Y284480D01*
X552449Y287020D01*
X552438Y287085D01*
X552436Y287151D01*
X552418Y287194D01*
X552410Y287241D01*
X552376Y287298D01*
X552351Y287358D01*
X552320Y287393D01*
X552295Y287434D01*
X552244Y287476D01*
X552200Y287524D01*
X552158Y287546D01*
X552121Y287575D01*
X552059Y287596D01*
X552000Y287627D01*
X551946Y287635D01*
X551909Y287647D01*
X551869Y287646D01*
X551815Y287654D01*
X548005Y287654D01*
X547940Y287643D01*
X547874Y287641D01*
X547831Y287623D01*
X547784Y287615D01*
X547727Y287581D01*
X547667Y287556D01*
X547632Y287525D01*
X547591Y287500D01*
X547550Y287449D01*
X547501Y287405D01*
X547479Y287363D01*
X547450Y287326D01*
X547429Y287264D01*
X547398Y287205D01*
X547390Y287151D01*
X547378Y287114D01*
X547378Y287111D01*
X547379Y287074D01*
X547371Y287020D01*
X547371Y284480D01*
X547382Y284415D01*
X547384Y284349D01*
X547402Y284306D01*
X547410Y284259D01*
X547444Y284202D01*
X547469Y284142D01*
X547500Y284107D01*
X547525Y284066D01*
X547576Y284025D01*
X547620Y283976D01*
X547662Y283954D01*
X547699Y283925D01*
X547761Y283904D01*
X547820Y283873D01*
X547874Y283865D01*
X547911Y283853D01*
X547951Y283854D01*
X548005Y283846D01*
X551815Y283846D01*
X551880Y283857D01*
G37*
G36*
X33720Y283857D02*
X33720Y283857D01*
X33786Y283859D01*
X33829Y283877D01*
X33876Y283885D01*
X33933Y283919D01*
X33993Y283944D01*
X34028Y283975D01*
X34069Y284000D01*
X34111Y284051D01*
X34159Y284095D01*
X34181Y284137D01*
X34210Y284174D01*
X34231Y284236D01*
X34262Y284295D01*
X34270Y284349D01*
X34282Y284386D01*
X34281Y284426D01*
X34289Y284480D01*
X34289Y287020D01*
X34278Y287085D01*
X34276Y287151D01*
X34258Y287194D01*
X34250Y287241D01*
X34216Y287298D01*
X34191Y287358D01*
X34160Y287393D01*
X34135Y287434D01*
X34084Y287476D01*
X34040Y287524D01*
X33998Y287546D01*
X33961Y287575D01*
X33899Y287596D01*
X33840Y287627D01*
X33786Y287635D01*
X33749Y287647D01*
X33709Y287646D01*
X33655Y287654D01*
X29845Y287654D01*
X29780Y287643D01*
X29714Y287641D01*
X29671Y287623D01*
X29624Y287615D01*
X29567Y287581D01*
X29507Y287556D01*
X29472Y287525D01*
X29431Y287500D01*
X29390Y287449D01*
X29341Y287405D01*
X29319Y287363D01*
X29290Y287326D01*
X29269Y287264D01*
X29238Y287205D01*
X29230Y287151D01*
X29218Y287114D01*
X29218Y287111D01*
X29219Y287074D01*
X29211Y287020D01*
X29211Y284480D01*
X29222Y284415D01*
X29224Y284349D01*
X29242Y284306D01*
X29250Y284259D01*
X29284Y284202D01*
X29309Y284142D01*
X29340Y284107D01*
X29365Y284066D01*
X29416Y284025D01*
X29460Y283976D01*
X29502Y283954D01*
X29539Y283925D01*
X29601Y283904D01*
X29660Y283873D01*
X29714Y283865D01*
X29751Y283853D01*
X29791Y283854D01*
X29845Y283846D01*
X33655Y283846D01*
X33720Y283857D01*
G37*
G36*
X1070040Y283857D02*
X1070040Y283857D01*
X1070106Y283859D01*
X1070149Y283877D01*
X1070196Y283885D01*
X1070253Y283919D01*
X1070313Y283944D01*
X1070348Y283975D01*
X1070389Y284000D01*
X1070431Y284051D01*
X1070479Y284095D01*
X1070501Y284137D01*
X1070530Y284174D01*
X1070551Y284236D01*
X1070582Y284295D01*
X1070590Y284349D01*
X1070602Y284386D01*
X1070601Y284426D01*
X1070609Y284480D01*
X1070609Y287020D01*
X1070598Y287085D01*
X1070596Y287151D01*
X1070578Y287194D01*
X1070570Y287241D01*
X1070536Y287298D01*
X1070511Y287358D01*
X1070480Y287393D01*
X1070455Y287434D01*
X1070404Y287476D01*
X1070360Y287524D01*
X1070318Y287546D01*
X1070281Y287575D01*
X1070219Y287596D01*
X1070160Y287627D01*
X1070106Y287635D01*
X1070069Y287647D01*
X1070029Y287646D01*
X1069975Y287654D01*
X1066165Y287654D01*
X1066100Y287643D01*
X1066034Y287641D01*
X1065991Y287623D01*
X1065944Y287615D01*
X1065887Y287581D01*
X1065827Y287556D01*
X1065792Y287525D01*
X1065751Y287500D01*
X1065710Y287449D01*
X1065661Y287405D01*
X1065639Y287363D01*
X1065610Y287326D01*
X1065589Y287264D01*
X1065558Y287205D01*
X1065550Y287151D01*
X1065538Y287114D01*
X1065538Y287111D01*
X1065539Y287074D01*
X1065531Y287020D01*
X1065531Y284480D01*
X1065542Y284415D01*
X1065544Y284349D01*
X1065562Y284306D01*
X1065570Y284259D01*
X1065604Y284202D01*
X1065629Y284142D01*
X1065660Y284107D01*
X1065685Y284066D01*
X1065736Y284025D01*
X1065780Y283976D01*
X1065822Y283954D01*
X1065859Y283925D01*
X1065921Y283904D01*
X1065980Y283873D01*
X1066034Y283865D01*
X1066071Y283853D01*
X1066111Y283854D01*
X1066165Y283846D01*
X1069975Y283846D01*
X1070040Y283857D01*
G37*
G36*
X810960Y283857D02*
X810960Y283857D01*
X811026Y283859D01*
X811069Y283877D01*
X811116Y283885D01*
X811173Y283919D01*
X811233Y283944D01*
X811268Y283975D01*
X811309Y284000D01*
X811351Y284051D01*
X811399Y284095D01*
X811421Y284137D01*
X811450Y284174D01*
X811471Y284236D01*
X811502Y284295D01*
X811510Y284349D01*
X811522Y284386D01*
X811521Y284426D01*
X811529Y284480D01*
X811529Y287020D01*
X811518Y287085D01*
X811516Y287151D01*
X811498Y287194D01*
X811490Y287241D01*
X811456Y287298D01*
X811431Y287358D01*
X811400Y287393D01*
X811375Y287434D01*
X811324Y287476D01*
X811280Y287524D01*
X811238Y287546D01*
X811201Y287575D01*
X811139Y287596D01*
X811080Y287627D01*
X811026Y287635D01*
X810989Y287647D01*
X810949Y287646D01*
X810895Y287654D01*
X807085Y287654D01*
X807020Y287643D01*
X806954Y287641D01*
X806911Y287623D01*
X806864Y287615D01*
X806807Y287581D01*
X806747Y287556D01*
X806712Y287525D01*
X806671Y287500D01*
X806630Y287449D01*
X806581Y287405D01*
X806559Y287363D01*
X806530Y287326D01*
X806509Y287264D01*
X806478Y287205D01*
X806470Y287151D01*
X806458Y287114D01*
X806458Y287111D01*
X806459Y287074D01*
X806451Y287020D01*
X806451Y284480D01*
X806462Y284415D01*
X806464Y284349D01*
X806482Y284306D01*
X806490Y284259D01*
X806524Y284202D01*
X806549Y284142D01*
X806580Y284107D01*
X806605Y284066D01*
X806656Y284025D01*
X806700Y283976D01*
X806742Y283954D01*
X806779Y283925D01*
X806841Y283904D01*
X806900Y283873D01*
X806954Y283865D01*
X806991Y283853D01*
X807031Y283854D01*
X807085Y283846D01*
X810895Y283846D01*
X810960Y283857D01*
G37*
G36*
X292800Y283857D02*
X292800Y283857D01*
X292866Y283859D01*
X292909Y283877D01*
X292956Y283885D01*
X293013Y283919D01*
X293073Y283944D01*
X293108Y283975D01*
X293149Y284000D01*
X293191Y284051D01*
X293239Y284095D01*
X293261Y284137D01*
X293290Y284174D01*
X293311Y284236D01*
X293342Y284295D01*
X293350Y284349D01*
X293362Y284386D01*
X293361Y284426D01*
X293369Y284480D01*
X293369Y287020D01*
X293358Y287085D01*
X293356Y287151D01*
X293338Y287194D01*
X293330Y287241D01*
X293296Y287298D01*
X293271Y287358D01*
X293240Y287393D01*
X293215Y287434D01*
X293164Y287476D01*
X293120Y287524D01*
X293078Y287546D01*
X293041Y287575D01*
X292979Y287596D01*
X292920Y287627D01*
X292866Y287635D01*
X292829Y287647D01*
X292789Y287646D01*
X292735Y287654D01*
X288925Y287654D01*
X288860Y287643D01*
X288794Y287641D01*
X288751Y287623D01*
X288704Y287615D01*
X288647Y287581D01*
X288587Y287556D01*
X288552Y287525D01*
X288511Y287500D01*
X288470Y287449D01*
X288421Y287405D01*
X288399Y287363D01*
X288370Y287326D01*
X288349Y287264D01*
X288318Y287205D01*
X288310Y287151D01*
X288298Y287114D01*
X288298Y287111D01*
X288299Y287074D01*
X288291Y287020D01*
X288291Y284480D01*
X288302Y284415D01*
X288304Y284349D01*
X288322Y284306D01*
X288330Y284259D01*
X288364Y284202D01*
X288389Y284142D01*
X288420Y284107D01*
X288445Y284066D01*
X288496Y284025D01*
X288540Y283976D01*
X288582Y283954D01*
X288619Y283925D01*
X288681Y283904D01*
X288740Y283873D01*
X288794Y283865D01*
X288831Y283853D01*
X288871Y283854D01*
X288925Y283846D01*
X292735Y283846D01*
X292800Y283857D01*
G37*
G36*
X810960Y542937D02*
X810960Y542937D01*
X811026Y542939D01*
X811069Y542957D01*
X811116Y542965D01*
X811173Y542999D01*
X811233Y543024D01*
X811268Y543055D01*
X811309Y543080D01*
X811351Y543131D01*
X811399Y543175D01*
X811421Y543217D01*
X811450Y543254D01*
X811471Y543316D01*
X811502Y543375D01*
X811510Y543429D01*
X811522Y543466D01*
X811521Y543506D01*
X811529Y543560D01*
X811529Y546100D01*
X811518Y546165D01*
X811516Y546231D01*
X811498Y546274D01*
X811490Y546321D01*
X811456Y546378D01*
X811431Y546438D01*
X811400Y546473D01*
X811375Y546514D01*
X811324Y546556D01*
X811280Y546604D01*
X811238Y546626D01*
X811201Y546655D01*
X811139Y546676D01*
X811080Y546707D01*
X811026Y546715D01*
X810989Y546727D01*
X810949Y546726D01*
X810895Y546734D01*
X807085Y546734D01*
X807020Y546723D01*
X806954Y546721D01*
X806911Y546703D01*
X806864Y546695D01*
X806807Y546661D01*
X806747Y546636D01*
X806712Y546605D01*
X806671Y546580D01*
X806630Y546529D01*
X806581Y546485D01*
X806559Y546443D01*
X806530Y546406D01*
X806509Y546344D01*
X806478Y546285D01*
X806470Y546231D01*
X806458Y546194D01*
X806458Y546191D01*
X806459Y546154D01*
X806451Y546100D01*
X806451Y543560D01*
X806462Y543495D01*
X806464Y543429D01*
X806482Y543386D01*
X806490Y543339D01*
X806524Y543282D01*
X806549Y543222D01*
X806580Y543187D01*
X806605Y543146D01*
X806656Y543105D01*
X806700Y543056D01*
X806742Y543034D01*
X806779Y543005D01*
X806841Y542984D01*
X806900Y542953D01*
X806954Y542945D01*
X806991Y542933D01*
X807031Y542934D01*
X807085Y542926D01*
X810895Y542926D01*
X810960Y542937D01*
G37*
G36*
X33720Y542937D02*
X33720Y542937D01*
X33786Y542939D01*
X33829Y542957D01*
X33876Y542965D01*
X33933Y542999D01*
X33993Y543024D01*
X34028Y543055D01*
X34069Y543080D01*
X34111Y543131D01*
X34159Y543175D01*
X34181Y543217D01*
X34210Y543254D01*
X34231Y543316D01*
X34262Y543375D01*
X34270Y543429D01*
X34282Y543466D01*
X34281Y543506D01*
X34289Y543560D01*
X34289Y546100D01*
X34278Y546165D01*
X34276Y546231D01*
X34258Y546274D01*
X34250Y546321D01*
X34216Y546378D01*
X34191Y546438D01*
X34160Y546473D01*
X34135Y546514D01*
X34084Y546556D01*
X34040Y546604D01*
X33998Y546626D01*
X33961Y546655D01*
X33899Y546676D01*
X33840Y546707D01*
X33786Y546715D01*
X33749Y546727D01*
X33709Y546726D01*
X33655Y546734D01*
X29845Y546734D01*
X29780Y546723D01*
X29714Y546721D01*
X29671Y546703D01*
X29624Y546695D01*
X29567Y546661D01*
X29507Y546636D01*
X29472Y546605D01*
X29431Y546580D01*
X29390Y546529D01*
X29341Y546485D01*
X29319Y546443D01*
X29290Y546406D01*
X29269Y546344D01*
X29238Y546285D01*
X29230Y546231D01*
X29218Y546194D01*
X29218Y546191D01*
X29219Y546154D01*
X29211Y546100D01*
X29211Y543560D01*
X29222Y543495D01*
X29224Y543429D01*
X29242Y543386D01*
X29250Y543339D01*
X29284Y543282D01*
X29309Y543222D01*
X29340Y543187D01*
X29365Y543146D01*
X29416Y543105D01*
X29460Y543056D01*
X29502Y543034D01*
X29539Y543005D01*
X29601Y542984D01*
X29660Y542953D01*
X29714Y542945D01*
X29751Y542933D01*
X29791Y542934D01*
X29845Y542926D01*
X33655Y542926D01*
X33720Y542937D01*
G37*
G36*
X1329120Y1320177D02*
X1329120Y1320177D01*
X1329186Y1320179D01*
X1329229Y1320197D01*
X1329276Y1320205D01*
X1329333Y1320239D01*
X1329393Y1320264D01*
X1329428Y1320295D01*
X1329469Y1320320D01*
X1329511Y1320371D01*
X1329559Y1320415D01*
X1329581Y1320457D01*
X1329610Y1320494D01*
X1329631Y1320556D01*
X1329662Y1320615D01*
X1329670Y1320669D01*
X1329682Y1320706D01*
X1329681Y1320746D01*
X1329689Y1320800D01*
X1329689Y1323340D01*
X1329678Y1323405D01*
X1329676Y1323471D01*
X1329658Y1323514D01*
X1329650Y1323561D01*
X1329616Y1323618D01*
X1329591Y1323678D01*
X1329560Y1323713D01*
X1329535Y1323754D01*
X1329484Y1323796D01*
X1329440Y1323844D01*
X1329398Y1323866D01*
X1329361Y1323895D01*
X1329299Y1323916D01*
X1329240Y1323947D01*
X1329186Y1323955D01*
X1329149Y1323967D01*
X1329109Y1323966D01*
X1329055Y1323974D01*
X1325245Y1323974D01*
X1325180Y1323963D01*
X1325114Y1323961D01*
X1325071Y1323943D01*
X1325024Y1323935D01*
X1324967Y1323901D01*
X1324907Y1323876D01*
X1324872Y1323845D01*
X1324831Y1323820D01*
X1324790Y1323769D01*
X1324741Y1323725D01*
X1324719Y1323683D01*
X1324690Y1323646D01*
X1324669Y1323584D01*
X1324638Y1323525D01*
X1324630Y1323471D01*
X1324618Y1323434D01*
X1324618Y1323431D01*
X1324619Y1323394D01*
X1324611Y1323340D01*
X1324611Y1320800D01*
X1324622Y1320735D01*
X1324624Y1320669D01*
X1324642Y1320626D01*
X1324650Y1320579D01*
X1324684Y1320522D01*
X1324709Y1320462D01*
X1324740Y1320427D01*
X1324765Y1320386D01*
X1324816Y1320345D01*
X1324860Y1320296D01*
X1324902Y1320274D01*
X1324939Y1320245D01*
X1325001Y1320224D01*
X1325060Y1320193D01*
X1325114Y1320185D01*
X1325151Y1320173D01*
X1325191Y1320174D01*
X1325245Y1320166D01*
X1329055Y1320166D01*
X1329120Y1320177D01*
G37*
G36*
X292800Y542937D02*
X292800Y542937D01*
X292866Y542939D01*
X292909Y542957D01*
X292956Y542965D01*
X293013Y542999D01*
X293073Y543024D01*
X293108Y543055D01*
X293149Y543080D01*
X293191Y543131D01*
X293239Y543175D01*
X293261Y543217D01*
X293290Y543254D01*
X293311Y543316D01*
X293342Y543375D01*
X293350Y543429D01*
X293362Y543466D01*
X293361Y543506D01*
X293369Y543560D01*
X293369Y546100D01*
X293358Y546165D01*
X293356Y546231D01*
X293338Y546274D01*
X293330Y546321D01*
X293296Y546378D01*
X293271Y546438D01*
X293240Y546473D01*
X293215Y546514D01*
X293164Y546556D01*
X293120Y546604D01*
X293078Y546626D01*
X293041Y546655D01*
X292979Y546676D01*
X292920Y546707D01*
X292866Y546715D01*
X292829Y546727D01*
X292789Y546726D01*
X292735Y546734D01*
X288925Y546734D01*
X288860Y546723D01*
X288794Y546721D01*
X288751Y546703D01*
X288704Y546695D01*
X288647Y546661D01*
X288587Y546636D01*
X288552Y546605D01*
X288511Y546580D01*
X288470Y546529D01*
X288421Y546485D01*
X288399Y546443D01*
X288370Y546406D01*
X288349Y546344D01*
X288318Y546285D01*
X288310Y546231D01*
X288298Y546194D01*
X288298Y546191D01*
X288299Y546154D01*
X288291Y546100D01*
X288291Y543560D01*
X288302Y543495D01*
X288304Y543429D01*
X288322Y543386D01*
X288330Y543339D01*
X288364Y543282D01*
X288389Y543222D01*
X288420Y543187D01*
X288445Y543146D01*
X288496Y543105D01*
X288540Y543056D01*
X288582Y543034D01*
X288619Y543005D01*
X288681Y542984D01*
X288740Y542953D01*
X288794Y542945D01*
X288831Y542933D01*
X288871Y542934D01*
X288925Y542926D01*
X292735Y542926D01*
X292800Y542937D01*
G37*
G36*
X551880Y542937D02*
X551880Y542937D01*
X551946Y542939D01*
X551989Y542957D01*
X552036Y542965D01*
X552093Y542999D01*
X552153Y543024D01*
X552188Y543055D01*
X552229Y543080D01*
X552271Y543131D01*
X552319Y543175D01*
X552341Y543217D01*
X552370Y543254D01*
X552391Y543316D01*
X552422Y543375D01*
X552430Y543429D01*
X552442Y543466D01*
X552441Y543506D01*
X552449Y543560D01*
X552449Y546100D01*
X552438Y546165D01*
X552436Y546231D01*
X552418Y546274D01*
X552410Y546321D01*
X552376Y546378D01*
X552351Y546438D01*
X552320Y546473D01*
X552295Y546514D01*
X552244Y546556D01*
X552200Y546604D01*
X552158Y546626D01*
X552121Y546655D01*
X552059Y546676D01*
X552000Y546707D01*
X551946Y546715D01*
X551909Y546727D01*
X551869Y546726D01*
X551815Y546734D01*
X548005Y546734D01*
X547940Y546723D01*
X547874Y546721D01*
X547831Y546703D01*
X547784Y546695D01*
X547727Y546661D01*
X547667Y546636D01*
X547632Y546605D01*
X547591Y546580D01*
X547550Y546529D01*
X547501Y546485D01*
X547479Y546443D01*
X547450Y546406D01*
X547429Y546344D01*
X547398Y546285D01*
X547390Y546231D01*
X547378Y546194D01*
X547378Y546191D01*
X547379Y546154D01*
X547371Y546100D01*
X547371Y543560D01*
X547382Y543495D01*
X547384Y543429D01*
X547402Y543386D01*
X547410Y543339D01*
X547444Y543282D01*
X547469Y543222D01*
X547500Y543187D01*
X547525Y543146D01*
X547576Y543105D01*
X547620Y543056D01*
X547662Y543034D01*
X547699Y543005D01*
X547761Y542984D01*
X547820Y542953D01*
X547874Y542945D01*
X547911Y542933D01*
X547951Y542934D01*
X548005Y542926D01*
X551815Y542926D01*
X551880Y542937D01*
G37*
G36*
X1070040Y542937D02*
X1070040Y542937D01*
X1070106Y542939D01*
X1070149Y542957D01*
X1070196Y542965D01*
X1070253Y542999D01*
X1070313Y543024D01*
X1070348Y543055D01*
X1070389Y543080D01*
X1070431Y543131D01*
X1070479Y543175D01*
X1070501Y543217D01*
X1070530Y543254D01*
X1070551Y543316D01*
X1070582Y543375D01*
X1070590Y543429D01*
X1070602Y543466D01*
X1070601Y543506D01*
X1070609Y543560D01*
X1070609Y546100D01*
X1070598Y546165D01*
X1070596Y546231D01*
X1070578Y546274D01*
X1070570Y546321D01*
X1070536Y546378D01*
X1070511Y546438D01*
X1070480Y546473D01*
X1070455Y546514D01*
X1070404Y546556D01*
X1070360Y546604D01*
X1070318Y546626D01*
X1070281Y546655D01*
X1070219Y546676D01*
X1070160Y546707D01*
X1070106Y546715D01*
X1070069Y546727D01*
X1070029Y546726D01*
X1069975Y546734D01*
X1066165Y546734D01*
X1066100Y546723D01*
X1066034Y546721D01*
X1065991Y546703D01*
X1065944Y546695D01*
X1065887Y546661D01*
X1065827Y546636D01*
X1065792Y546605D01*
X1065751Y546580D01*
X1065710Y546529D01*
X1065661Y546485D01*
X1065639Y546443D01*
X1065610Y546406D01*
X1065589Y546344D01*
X1065558Y546285D01*
X1065550Y546231D01*
X1065538Y546194D01*
X1065538Y546191D01*
X1065539Y546154D01*
X1065531Y546100D01*
X1065531Y543560D01*
X1065542Y543495D01*
X1065544Y543429D01*
X1065562Y543386D01*
X1065570Y543339D01*
X1065604Y543282D01*
X1065629Y543222D01*
X1065660Y543187D01*
X1065685Y543146D01*
X1065736Y543105D01*
X1065780Y543056D01*
X1065822Y543034D01*
X1065859Y543005D01*
X1065921Y542984D01*
X1065980Y542953D01*
X1066034Y542945D01*
X1066071Y542933D01*
X1066111Y542934D01*
X1066165Y542926D01*
X1069975Y542926D01*
X1070040Y542937D01*
G37*
G36*
X33720Y24777D02*
X33720Y24777D01*
X33786Y24779D01*
X33829Y24797D01*
X33876Y24805D01*
X33933Y24839D01*
X33993Y24864D01*
X34028Y24895D01*
X34069Y24920D01*
X34111Y24971D01*
X34159Y25015D01*
X34181Y25057D01*
X34210Y25094D01*
X34231Y25156D01*
X34262Y25215D01*
X34270Y25269D01*
X34282Y25306D01*
X34281Y25346D01*
X34289Y25400D01*
X34289Y27940D01*
X34278Y28005D01*
X34276Y28071D01*
X34258Y28114D01*
X34250Y28161D01*
X34216Y28218D01*
X34191Y28278D01*
X34160Y28313D01*
X34135Y28354D01*
X34084Y28396D01*
X34040Y28444D01*
X33998Y28466D01*
X33961Y28495D01*
X33899Y28516D01*
X33840Y28547D01*
X33786Y28555D01*
X33749Y28567D01*
X33709Y28566D01*
X33655Y28574D01*
X29845Y28574D01*
X29780Y28563D01*
X29714Y28561D01*
X29671Y28543D01*
X29624Y28535D01*
X29567Y28501D01*
X29507Y28476D01*
X29472Y28445D01*
X29431Y28420D01*
X29390Y28369D01*
X29341Y28325D01*
X29319Y28283D01*
X29290Y28246D01*
X29269Y28184D01*
X29238Y28125D01*
X29230Y28071D01*
X29218Y28034D01*
X29218Y28031D01*
X29219Y27994D01*
X29211Y27940D01*
X29211Y25400D01*
X29222Y25335D01*
X29224Y25269D01*
X29242Y25226D01*
X29250Y25179D01*
X29284Y25122D01*
X29309Y25062D01*
X29340Y25027D01*
X29365Y24986D01*
X29416Y24945D01*
X29460Y24896D01*
X29502Y24874D01*
X29539Y24845D01*
X29601Y24824D01*
X29660Y24793D01*
X29714Y24785D01*
X29751Y24773D01*
X29791Y24774D01*
X29845Y24766D01*
X33655Y24766D01*
X33720Y24777D01*
G37*
G36*
X551880Y24777D02*
X551880Y24777D01*
X551946Y24779D01*
X551989Y24797D01*
X552036Y24805D01*
X552093Y24839D01*
X552153Y24864D01*
X552188Y24895D01*
X552229Y24920D01*
X552271Y24971D01*
X552319Y25015D01*
X552341Y25057D01*
X552370Y25094D01*
X552391Y25156D01*
X552422Y25215D01*
X552430Y25269D01*
X552442Y25306D01*
X552441Y25346D01*
X552449Y25400D01*
X552449Y27940D01*
X552438Y28005D01*
X552436Y28071D01*
X552418Y28114D01*
X552410Y28161D01*
X552376Y28218D01*
X552351Y28278D01*
X552320Y28313D01*
X552295Y28354D01*
X552244Y28396D01*
X552200Y28444D01*
X552158Y28466D01*
X552121Y28495D01*
X552059Y28516D01*
X552000Y28547D01*
X551946Y28555D01*
X551909Y28567D01*
X551869Y28566D01*
X551815Y28574D01*
X548005Y28574D01*
X547940Y28563D01*
X547874Y28561D01*
X547831Y28543D01*
X547784Y28535D01*
X547727Y28501D01*
X547667Y28476D01*
X547632Y28445D01*
X547591Y28420D01*
X547550Y28369D01*
X547501Y28325D01*
X547479Y28283D01*
X547450Y28246D01*
X547429Y28184D01*
X547398Y28125D01*
X547390Y28071D01*
X547378Y28034D01*
X547378Y28031D01*
X547379Y27994D01*
X547371Y27940D01*
X547371Y25400D01*
X547382Y25335D01*
X547384Y25269D01*
X547402Y25226D01*
X547410Y25179D01*
X547444Y25122D01*
X547469Y25062D01*
X547500Y25027D01*
X547525Y24986D01*
X547576Y24945D01*
X547620Y24896D01*
X547662Y24874D01*
X547699Y24845D01*
X547761Y24824D01*
X547820Y24793D01*
X547874Y24785D01*
X547911Y24773D01*
X547951Y24774D01*
X548005Y24766D01*
X551815Y24766D01*
X551880Y24777D01*
G37*
G36*
X810960Y24777D02*
X810960Y24777D01*
X811026Y24779D01*
X811069Y24797D01*
X811116Y24805D01*
X811173Y24839D01*
X811233Y24864D01*
X811268Y24895D01*
X811309Y24920D01*
X811351Y24971D01*
X811399Y25015D01*
X811421Y25057D01*
X811450Y25094D01*
X811471Y25156D01*
X811502Y25215D01*
X811510Y25269D01*
X811522Y25306D01*
X811521Y25346D01*
X811529Y25400D01*
X811529Y27940D01*
X811518Y28005D01*
X811516Y28071D01*
X811498Y28114D01*
X811490Y28161D01*
X811456Y28218D01*
X811431Y28278D01*
X811400Y28313D01*
X811375Y28354D01*
X811324Y28396D01*
X811280Y28444D01*
X811238Y28466D01*
X811201Y28495D01*
X811139Y28516D01*
X811080Y28547D01*
X811026Y28555D01*
X810989Y28567D01*
X810949Y28566D01*
X810895Y28574D01*
X807085Y28574D01*
X807020Y28563D01*
X806954Y28561D01*
X806911Y28543D01*
X806864Y28535D01*
X806807Y28501D01*
X806747Y28476D01*
X806712Y28445D01*
X806671Y28420D01*
X806630Y28369D01*
X806581Y28325D01*
X806559Y28283D01*
X806530Y28246D01*
X806509Y28184D01*
X806478Y28125D01*
X806470Y28071D01*
X806458Y28034D01*
X806458Y28031D01*
X806459Y27994D01*
X806451Y27940D01*
X806451Y25400D01*
X806462Y25335D01*
X806464Y25269D01*
X806482Y25226D01*
X806490Y25179D01*
X806524Y25122D01*
X806549Y25062D01*
X806580Y25027D01*
X806605Y24986D01*
X806656Y24945D01*
X806700Y24896D01*
X806742Y24874D01*
X806779Y24845D01*
X806841Y24824D01*
X806900Y24793D01*
X806954Y24785D01*
X806991Y24773D01*
X807031Y24774D01*
X807085Y24766D01*
X810895Y24766D01*
X810960Y24777D01*
G37*
G36*
X292800Y24777D02*
X292800Y24777D01*
X292866Y24779D01*
X292909Y24797D01*
X292956Y24805D01*
X293013Y24839D01*
X293073Y24864D01*
X293108Y24895D01*
X293149Y24920D01*
X293191Y24971D01*
X293239Y25015D01*
X293261Y25057D01*
X293290Y25094D01*
X293311Y25156D01*
X293342Y25215D01*
X293350Y25269D01*
X293362Y25306D01*
X293361Y25346D01*
X293369Y25400D01*
X293369Y27940D01*
X293358Y28005D01*
X293356Y28071D01*
X293338Y28114D01*
X293330Y28161D01*
X293296Y28218D01*
X293271Y28278D01*
X293240Y28313D01*
X293215Y28354D01*
X293164Y28396D01*
X293120Y28444D01*
X293078Y28466D01*
X293041Y28495D01*
X292979Y28516D01*
X292920Y28547D01*
X292866Y28555D01*
X292829Y28567D01*
X292789Y28566D01*
X292735Y28574D01*
X288925Y28574D01*
X288860Y28563D01*
X288794Y28561D01*
X288751Y28543D01*
X288704Y28535D01*
X288647Y28501D01*
X288587Y28476D01*
X288552Y28445D01*
X288511Y28420D01*
X288470Y28369D01*
X288421Y28325D01*
X288399Y28283D01*
X288370Y28246D01*
X288349Y28184D01*
X288318Y28125D01*
X288310Y28071D01*
X288298Y28034D01*
X288298Y28031D01*
X288299Y27994D01*
X288291Y27940D01*
X288291Y25400D01*
X288302Y25335D01*
X288304Y25269D01*
X288322Y25226D01*
X288330Y25179D01*
X288364Y25122D01*
X288389Y25062D01*
X288420Y25027D01*
X288445Y24986D01*
X288496Y24945D01*
X288540Y24896D01*
X288582Y24874D01*
X288619Y24845D01*
X288681Y24824D01*
X288740Y24793D01*
X288794Y24785D01*
X288831Y24773D01*
X288871Y24774D01*
X288925Y24766D01*
X292735Y24766D01*
X292800Y24777D01*
G37*
G36*
X1070040Y24777D02*
X1070040Y24777D01*
X1070106Y24779D01*
X1070149Y24797D01*
X1070196Y24805D01*
X1070253Y24839D01*
X1070313Y24864D01*
X1070348Y24895D01*
X1070389Y24920D01*
X1070431Y24971D01*
X1070479Y25015D01*
X1070501Y25057D01*
X1070530Y25094D01*
X1070551Y25156D01*
X1070582Y25215D01*
X1070590Y25269D01*
X1070602Y25306D01*
X1070601Y25346D01*
X1070609Y25400D01*
X1070609Y27940D01*
X1070598Y28005D01*
X1070596Y28071D01*
X1070578Y28114D01*
X1070570Y28161D01*
X1070536Y28218D01*
X1070511Y28278D01*
X1070480Y28313D01*
X1070455Y28354D01*
X1070404Y28396D01*
X1070360Y28444D01*
X1070318Y28466D01*
X1070281Y28495D01*
X1070219Y28516D01*
X1070160Y28547D01*
X1070106Y28555D01*
X1070069Y28567D01*
X1070029Y28566D01*
X1069975Y28574D01*
X1066165Y28574D01*
X1066100Y28563D01*
X1066034Y28561D01*
X1065991Y28543D01*
X1065944Y28535D01*
X1065887Y28501D01*
X1065827Y28476D01*
X1065792Y28445D01*
X1065751Y28420D01*
X1065710Y28369D01*
X1065661Y28325D01*
X1065639Y28283D01*
X1065610Y28246D01*
X1065589Y28184D01*
X1065558Y28125D01*
X1065550Y28071D01*
X1065538Y28034D01*
X1065538Y28031D01*
X1065539Y27994D01*
X1065531Y27940D01*
X1065531Y25400D01*
X1065542Y25335D01*
X1065544Y25269D01*
X1065562Y25226D01*
X1065570Y25179D01*
X1065604Y25122D01*
X1065629Y25062D01*
X1065660Y25027D01*
X1065685Y24986D01*
X1065736Y24945D01*
X1065780Y24896D01*
X1065822Y24874D01*
X1065859Y24845D01*
X1065921Y24824D01*
X1065980Y24793D01*
X1066034Y24785D01*
X1066071Y24773D01*
X1066111Y24774D01*
X1066165Y24766D01*
X1069975Y24766D01*
X1070040Y24777D01*
G37*
G36*
X1329120Y24777D02*
X1329120Y24777D01*
X1329186Y24779D01*
X1329229Y24797D01*
X1329276Y24805D01*
X1329333Y24839D01*
X1329393Y24864D01*
X1329428Y24895D01*
X1329469Y24920D01*
X1329511Y24971D01*
X1329559Y25015D01*
X1329581Y25057D01*
X1329610Y25094D01*
X1329631Y25156D01*
X1329662Y25215D01*
X1329670Y25269D01*
X1329682Y25306D01*
X1329681Y25346D01*
X1329689Y25400D01*
X1329689Y27940D01*
X1329678Y28005D01*
X1329676Y28071D01*
X1329658Y28114D01*
X1329650Y28161D01*
X1329616Y28218D01*
X1329591Y28278D01*
X1329560Y28313D01*
X1329535Y28354D01*
X1329484Y28396D01*
X1329440Y28444D01*
X1329398Y28466D01*
X1329361Y28495D01*
X1329299Y28516D01*
X1329240Y28547D01*
X1329186Y28555D01*
X1329149Y28567D01*
X1329109Y28566D01*
X1329055Y28574D01*
X1325245Y28574D01*
X1325180Y28563D01*
X1325114Y28561D01*
X1325071Y28543D01*
X1325024Y28535D01*
X1324967Y28501D01*
X1324907Y28476D01*
X1324872Y28445D01*
X1324831Y28420D01*
X1324790Y28369D01*
X1324741Y28325D01*
X1324719Y28283D01*
X1324690Y28246D01*
X1324669Y28184D01*
X1324638Y28125D01*
X1324630Y28071D01*
X1324618Y28034D01*
X1324618Y28031D01*
X1324619Y27994D01*
X1324611Y27940D01*
X1324611Y25400D01*
X1324622Y25335D01*
X1324624Y25269D01*
X1324642Y25226D01*
X1324650Y25179D01*
X1324684Y25122D01*
X1324709Y25062D01*
X1324740Y25027D01*
X1324765Y24986D01*
X1324816Y24945D01*
X1324860Y24896D01*
X1324902Y24874D01*
X1324939Y24845D01*
X1325001Y24824D01*
X1325060Y24793D01*
X1325114Y24785D01*
X1325151Y24773D01*
X1325191Y24774D01*
X1325245Y24766D01*
X1329055Y24766D01*
X1329120Y24777D01*
G37*
D10*
X25400Y228600D03*
X228600Y228600D03*
D11*
X245110Y8890D03*
X7620Y246380D03*
D12*
X14050Y155000D03*
X14050Y99000D03*
D13*
X50800Y142000D03*
X50800Y132000D03*
X50800Y122000D03*
X50800Y112000D03*
D14*
X162560Y115180D03*
X162560Y98180D03*
D12*
X239950Y99000D03*
X239950Y155000D03*
D13*
X203200Y112000D03*
X203200Y122000D03*
X203200Y132000D03*
X203200Y142000D03*
D15*
X40250Y46990D03*
X23250Y46990D03*
D16*
X26500Y59980D02*
X26500Y67020D01*
X26500Y59980D02*
X19460Y59980D01*
X19460Y67020D01*
X26500Y67020D01*
X26500Y63742D02*
X19460Y63742D01*
X44040Y67020D02*
X44040Y59980D01*
X37000Y59980D01*
X37000Y67020D01*
X44040Y67020D01*
X44040Y63742D02*
X37000Y63742D01*
D14*
X91440Y148980D03*
X91440Y165980D03*
X162560Y148980D03*
X162560Y165980D03*
D17*
X26543Y26670D03*
X36957Y26670D03*
D18*
X88900Y12700D03*
X114300Y12700D03*
X139700Y12700D03*
X165100Y12700D03*
D19*
X138500Y127000D03*
X138500Y135000D03*
X138500Y119000D03*
X115500Y119000D03*
X115500Y127000D03*
X115500Y135000D03*
D14*
X91440Y115180D03*
X91440Y98180D03*
D15*
X74050Y132080D03*
X91050Y132080D03*
D10*
X284480Y228600D03*
X487680Y228600D03*
D11*
X504190Y8890D03*
X266700Y246380D03*
D12*
X273130Y155000D03*
X273130Y99000D03*
D13*
X309880Y142000D03*
X309880Y132000D03*
X309880Y122000D03*
X309880Y112000D03*
D14*
X421640Y115180D03*
X421640Y98180D03*
D12*
X499030Y99000D03*
X499030Y155000D03*
D13*
X462280Y112000D03*
X462280Y122000D03*
X462280Y132000D03*
X462280Y142000D03*
D15*
X299330Y46990D03*
X282330Y46990D03*
D16*
X285580Y59980D02*
X285580Y67020D01*
X285580Y59980D02*
X278540Y59980D01*
X278540Y67020D01*
X285580Y67020D01*
X285580Y63742D02*
X278540Y63742D01*
X303120Y67020D02*
X303120Y59980D01*
X296080Y59980D01*
X296080Y67020D01*
X303120Y67020D01*
X303120Y63742D02*
X296080Y63742D01*
D14*
X350520Y148980D03*
X350520Y165980D03*
X421640Y148980D03*
X421640Y165980D03*
D17*
X285623Y26670D03*
X296037Y26670D03*
D18*
X347980Y12700D03*
X373380Y12700D03*
X398780Y12700D03*
X424180Y12700D03*
D19*
X397580Y127000D03*
X397580Y135000D03*
X397580Y119000D03*
X374580Y119000D03*
X374580Y127000D03*
X374580Y135000D03*
D14*
X350520Y115180D03*
X350520Y98180D03*
D15*
X333130Y132080D03*
X350130Y132080D03*
D10*
X543560Y228600D03*
X746760Y228600D03*
D11*
X763270Y8890D03*
X525780Y246380D03*
D12*
X532210Y155000D03*
X532210Y99000D03*
D13*
X568960Y142000D03*
X568960Y132000D03*
X568960Y122000D03*
X568960Y112000D03*
D14*
X680720Y115180D03*
X680720Y98180D03*
D12*
X758110Y99000D03*
X758110Y155000D03*
D13*
X721360Y112000D03*
X721360Y122000D03*
X721360Y132000D03*
X721360Y142000D03*
D15*
X558410Y46990D03*
X541410Y46990D03*
D16*
X544660Y59980D02*
X544660Y67020D01*
X544660Y59980D02*
X537620Y59980D01*
X537620Y67020D01*
X544660Y67020D01*
X544660Y63742D02*
X537620Y63742D01*
X562200Y67020D02*
X562200Y59980D01*
X555160Y59980D01*
X555160Y67020D01*
X562200Y67020D01*
X562200Y63742D02*
X555160Y63742D01*
D14*
X609600Y148980D03*
X609600Y165980D03*
X680720Y148980D03*
X680720Y165980D03*
D17*
X544703Y26670D03*
X555117Y26670D03*
D18*
X607060Y12700D03*
X632460Y12700D03*
X657860Y12700D03*
X683260Y12700D03*
D19*
X656660Y127000D03*
X656660Y135000D03*
X656660Y119000D03*
X633660Y119000D03*
X633660Y127000D03*
X633660Y135000D03*
D14*
X609600Y115180D03*
X609600Y98180D03*
D15*
X592210Y132080D03*
X609210Y132080D03*
D10*
X802640Y228600D03*
X1005840Y228600D03*
D11*
X1022350Y8890D03*
X784860Y246380D03*
D12*
X791290Y155000D03*
X791290Y99000D03*
D13*
X828040Y142000D03*
X828040Y132000D03*
X828040Y122000D03*
X828040Y112000D03*
D14*
X939800Y115180D03*
X939800Y98180D03*
D12*
X1017190Y99000D03*
X1017190Y155000D03*
D13*
X980440Y112000D03*
X980440Y122000D03*
X980440Y132000D03*
X980440Y142000D03*
D15*
X817490Y46990D03*
X800490Y46990D03*
D16*
X803740Y59980D02*
X803740Y67020D01*
X803740Y59980D02*
X796700Y59980D01*
X796700Y67020D01*
X803740Y67020D01*
X803740Y63742D02*
X796700Y63742D01*
X821280Y67020D02*
X821280Y59980D01*
X814240Y59980D01*
X814240Y67020D01*
X821280Y67020D01*
X821280Y63742D02*
X814240Y63742D01*
D14*
X868680Y148980D03*
X868680Y165980D03*
X939800Y148980D03*
X939800Y165980D03*
D17*
X803783Y26670D03*
X814197Y26670D03*
D18*
X866140Y12700D03*
X891540Y12700D03*
X916940Y12700D03*
X942340Y12700D03*
D19*
X915740Y127000D03*
X915740Y135000D03*
X915740Y119000D03*
X892740Y119000D03*
X892740Y127000D03*
X892740Y135000D03*
D14*
X868680Y115180D03*
X868680Y98180D03*
D15*
X851290Y132080D03*
X868290Y132080D03*
D10*
X1061720Y228600D03*
X1264920Y228600D03*
D11*
X1281430Y8890D03*
X1043940Y246380D03*
D12*
X1050370Y155000D03*
X1050370Y99000D03*
D13*
X1087120Y142000D03*
X1087120Y132000D03*
X1087120Y122000D03*
X1087120Y112000D03*
D14*
X1198880Y115180D03*
X1198880Y98180D03*
D12*
X1276270Y99000D03*
X1276270Y155000D03*
D13*
X1239520Y112000D03*
X1239520Y122000D03*
X1239520Y132000D03*
X1239520Y142000D03*
D15*
X1076570Y46990D03*
X1059570Y46990D03*
D16*
X1062820Y59980D02*
X1062820Y67020D01*
X1062820Y59980D02*
X1055780Y59980D01*
X1055780Y67020D01*
X1062820Y67020D01*
X1062820Y63742D02*
X1055780Y63742D01*
X1080360Y67020D02*
X1080360Y59980D01*
X1073320Y59980D01*
X1073320Y67020D01*
X1080360Y67020D01*
X1080360Y63742D02*
X1073320Y63742D01*
D14*
X1127760Y148980D03*
X1127760Y165980D03*
X1198880Y148980D03*
X1198880Y165980D03*
D17*
X1062863Y26670D03*
X1073277Y26670D03*
D18*
X1125220Y12700D03*
X1150620Y12700D03*
X1176020Y12700D03*
X1201420Y12700D03*
D19*
X1174820Y127000D03*
X1174820Y135000D03*
X1174820Y119000D03*
X1151820Y119000D03*
X1151820Y127000D03*
X1151820Y135000D03*
D14*
X1127760Y115180D03*
X1127760Y98180D03*
D15*
X1110370Y132080D03*
X1127370Y132080D03*
D10*
X1320800Y228600D03*
X1524000Y228600D03*
D11*
X1540510Y8890D03*
X1303020Y246380D03*
D12*
X1309450Y155000D03*
X1309450Y99000D03*
D13*
X1346200Y142000D03*
X1346200Y132000D03*
X1346200Y122000D03*
X1346200Y112000D03*
D14*
X1457960Y115180D03*
X1457960Y98180D03*
D12*
X1535350Y99000D03*
X1535350Y155000D03*
D13*
X1498600Y112000D03*
X1498600Y122000D03*
X1498600Y132000D03*
X1498600Y142000D03*
D15*
X1335650Y46990D03*
X1318650Y46990D03*
D16*
X1321900Y59980D02*
X1321900Y67020D01*
X1321900Y59980D02*
X1314860Y59980D01*
X1314860Y67020D01*
X1321900Y67020D01*
X1321900Y63742D02*
X1314860Y63742D01*
X1339440Y67020D02*
X1339440Y59980D01*
X1332400Y59980D01*
X1332400Y67020D01*
X1339440Y67020D01*
X1339440Y63742D02*
X1332400Y63742D01*
D14*
X1386840Y148980D03*
X1386840Y165980D03*
X1457960Y148980D03*
X1457960Y165980D03*
D17*
X1321943Y26670D03*
X1332357Y26670D03*
D18*
X1384300Y12700D03*
X1409700Y12700D03*
X1435100Y12700D03*
X1460500Y12700D03*
D19*
X1433900Y127000D03*
X1433900Y135000D03*
X1433900Y119000D03*
X1410900Y119000D03*
X1410900Y127000D03*
X1410900Y135000D03*
D14*
X1386840Y115180D03*
X1386840Y98180D03*
D15*
X1369450Y132080D03*
X1386450Y132080D03*
D10*
X25400Y487680D03*
X228600Y487680D03*
D11*
X245110Y267970D03*
X7620Y505460D03*
D12*
X14050Y414080D03*
X14050Y358080D03*
D13*
X50800Y401080D03*
X50800Y391080D03*
X50800Y381080D03*
X50800Y371080D03*
D14*
X162560Y374260D03*
X162560Y357260D03*
D12*
X239950Y358080D03*
X239950Y414080D03*
D13*
X203200Y371080D03*
X203200Y381080D03*
X203200Y391080D03*
X203200Y401080D03*
D15*
X40250Y306070D03*
X23250Y306070D03*
D16*
X26500Y319060D02*
X26500Y326100D01*
X26500Y319060D02*
X19460Y319060D01*
X19460Y326100D01*
X26500Y326100D01*
X26500Y322822D02*
X19460Y322822D01*
X44040Y326100D02*
X44040Y319060D01*
X37000Y319060D01*
X37000Y326100D01*
X44040Y326100D01*
X44040Y322822D02*
X37000Y322822D01*
D14*
X91440Y408060D03*
X91440Y425060D03*
X162560Y408060D03*
X162560Y425060D03*
D17*
X26543Y285750D03*
X36957Y285750D03*
D18*
X88900Y271780D03*
X114300Y271780D03*
X139700Y271780D03*
X165100Y271780D03*
D19*
X138500Y386080D03*
X138500Y394080D03*
X138500Y378080D03*
X115500Y378080D03*
X115500Y386080D03*
X115500Y394080D03*
D14*
X91440Y374260D03*
X91440Y357260D03*
D15*
X74050Y391160D03*
X91050Y391160D03*
D10*
X284480Y487680D03*
X487680Y487680D03*
D11*
X504190Y267970D03*
X266700Y505460D03*
D12*
X273130Y414080D03*
X273130Y358080D03*
D13*
X309880Y401080D03*
X309880Y391080D03*
X309880Y381080D03*
X309880Y371080D03*
D14*
X421640Y374260D03*
X421640Y357260D03*
D12*
X499030Y358080D03*
X499030Y414080D03*
D13*
X462280Y371080D03*
X462280Y381080D03*
X462280Y391080D03*
X462280Y401080D03*
D15*
X299330Y306070D03*
X282330Y306070D03*
D16*
X285580Y319060D02*
X285580Y326100D01*
X285580Y319060D02*
X278540Y319060D01*
X278540Y326100D01*
X285580Y326100D01*
X285580Y322822D02*
X278540Y322822D01*
X303120Y326100D02*
X303120Y319060D01*
X296080Y319060D01*
X296080Y326100D01*
X303120Y326100D01*
X303120Y322822D02*
X296080Y322822D01*
D14*
X350520Y408060D03*
X350520Y425060D03*
X421640Y408060D03*
X421640Y425060D03*
D17*
X285623Y285750D03*
X296037Y285750D03*
D18*
X347980Y271780D03*
X373380Y271780D03*
X398780Y271780D03*
X424180Y271780D03*
D19*
X397580Y386080D03*
X397580Y394080D03*
X397580Y378080D03*
X374580Y378080D03*
X374580Y386080D03*
X374580Y394080D03*
D14*
X350520Y374260D03*
X350520Y357260D03*
D15*
X333130Y391160D03*
X350130Y391160D03*
D10*
X543560Y487680D03*
X746760Y487680D03*
D11*
X763270Y267970D03*
X525780Y505460D03*
D12*
X532210Y414080D03*
X532210Y358080D03*
D13*
X568960Y401080D03*
X568960Y391080D03*
X568960Y381080D03*
X568960Y371080D03*
D14*
X680720Y374260D03*
X680720Y357260D03*
D12*
X758110Y358080D03*
X758110Y414080D03*
D13*
X721360Y371080D03*
X721360Y381080D03*
X721360Y391080D03*
X721360Y401080D03*
D15*
X558410Y306070D03*
X541410Y306070D03*
D16*
X544660Y319060D02*
X544660Y326100D01*
X544660Y319060D02*
X537620Y319060D01*
X537620Y326100D01*
X544660Y326100D01*
X544660Y322822D02*
X537620Y322822D01*
X562200Y326100D02*
X562200Y319060D01*
X555160Y319060D01*
X555160Y326100D01*
X562200Y326100D01*
X562200Y322822D02*
X555160Y322822D01*
D14*
X609600Y408060D03*
X609600Y425060D03*
X680720Y408060D03*
X680720Y425060D03*
D17*
X544703Y285750D03*
X555117Y285750D03*
D18*
X607060Y271780D03*
X632460Y271780D03*
X657860Y271780D03*
X683260Y271780D03*
D19*
X656660Y386080D03*
X656660Y394080D03*
X656660Y378080D03*
X633660Y378080D03*
X633660Y386080D03*
X633660Y394080D03*
D14*
X609600Y374260D03*
X609600Y357260D03*
D15*
X592210Y391160D03*
X609210Y391160D03*
D10*
X802640Y487680D03*
X1005840Y487680D03*
D11*
X1022350Y267970D03*
X784860Y505460D03*
D12*
X791290Y414080D03*
X791290Y358080D03*
D13*
X828040Y401080D03*
X828040Y391080D03*
X828040Y381080D03*
X828040Y371080D03*
D14*
X939800Y374260D03*
X939800Y357260D03*
D12*
X1017190Y358080D03*
X1017190Y414080D03*
D13*
X980440Y371080D03*
X980440Y381080D03*
X980440Y391080D03*
X980440Y401080D03*
D15*
X817490Y306070D03*
X800490Y306070D03*
D16*
X803740Y319060D02*
X803740Y326100D01*
X803740Y319060D02*
X796700Y319060D01*
X796700Y326100D01*
X803740Y326100D01*
X803740Y322822D02*
X796700Y322822D01*
X821280Y326100D02*
X821280Y319060D01*
X814240Y319060D01*
X814240Y326100D01*
X821280Y326100D01*
X821280Y322822D02*
X814240Y322822D01*
D14*
X868680Y408060D03*
X868680Y425060D03*
X939800Y408060D03*
X939800Y425060D03*
D17*
X803783Y285750D03*
X814197Y285750D03*
D18*
X866140Y271780D03*
X891540Y271780D03*
X916940Y271780D03*
X942340Y271780D03*
D19*
X915740Y386080D03*
X915740Y394080D03*
X915740Y378080D03*
X892740Y378080D03*
X892740Y386080D03*
X892740Y394080D03*
D14*
X868680Y374260D03*
X868680Y357260D03*
D15*
X851290Y391160D03*
X868290Y391160D03*
D10*
X1061720Y487680D03*
X1264920Y487680D03*
D11*
X1281430Y267970D03*
X1043940Y505460D03*
D12*
X1050370Y414080D03*
X1050370Y358080D03*
D13*
X1087120Y401080D03*
X1087120Y391080D03*
X1087120Y381080D03*
X1087120Y371080D03*
D14*
X1198880Y374260D03*
X1198880Y357260D03*
D12*
X1276270Y358080D03*
X1276270Y414080D03*
D13*
X1239520Y371080D03*
X1239520Y381080D03*
X1239520Y391080D03*
X1239520Y401080D03*
D15*
X1076570Y306070D03*
X1059570Y306070D03*
D16*
X1062820Y319060D02*
X1062820Y326100D01*
X1062820Y319060D02*
X1055780Y319060D01*
X1055780Y326100D01*
X1062820Y326100D01*
X1062820Y322822D02*
X1055780Y322822D01*
X1080360Y326100D02*
X1080360Y319060D01*
X1073320Y319060D01*
X1073320Y326100D01*
X1080360Y326100D01*
X1080360Y322822D02*
X1073320Y322822D01*
D14*
X1127760Y408060D03*
X1127760Y425060D03*
X1198880Y408060D03*
X1198880Y425060D03*
D17*
X1062863Y285750D03*
X1073277Y285750D03*
D18*
X1125220Y271780D03*
X1150620Y271780D03*
X1176020Y271780D03*
X1201420Y271780D03*
D19*
X1174820Y386080D03*
X1174820Y394080D03*
X1174820Y378080D03*
X1151820Y378080D03*
X1151820Y386080D03*
X1151820Y394080D03*
D14*
X1127760Y374260D03*
X1127760Y357260D03*
D15*
X1110370Y391160D03*
X1127370Y391160D03*
D10*
X1320800Y487680D03*
X1524000Y487680D03*
D11*
X1540510Y267970D03*
X1303020Y505460D03*
D12*
X1309450Y414080D03*
X1309450Y358080D03*
D13*
X1346200Y401080D03*
X1346200Y391080D03*
X1346200Y381080D03*
X1346200Y371080D03*
D14*
X1457960Y374260D03*
X1457960Y357260D03*
D12*
X1535350Y358080D03*
X1535350Y414080D03*
D13*
X1498600Y371080D03*
X1498600Y381080D03*
X1498600Y391080D03*
X1498600Y401080D03*
D15*
X1335650Y306070D03*
X1318650Y306070D03*
D16*
X1321900Y319060D02*
X1321900Y326100D01*
X1321900Y319060D02*
X1314860Y319060D01*
X1314860Y326100D01*
X1321900Y326100D01*
X1321900Y322822D02*
X1314860Y322822D01*
X1339440Y326100D02*
X1339440Y319060D01*
X1332400Y319060D01*
X1332400Y326100D01*
X1339440Y326100D01*
X1339440Y322822D02*
X1332400Y322822D01*
D14*
X1386840Y408060D03*
X1386840Y425060D03*
X1457960Y408060D03*
X1457960Y425060D03*
D17*
X1321943Y285750D03*
X1332357Y285750D03*
D18*
X1384300Y271780D03*
X1409700Y271780D03*
X1435100Y271780D03*
X1460500Y271780D03*
D19*
X1433900Y386080D03*
X1433900Y394080D03*
X1433900Y378080D03*
X1410900Y378080D03*
X1410900Y386080D03*
X1410900Y394080D03*
D14*
X1386840Y374260D03*
X1386840Y357260D03*
D15*
X1369450Y391160D03*
X1386450Y391160D03*
D10*
X25400Y746760D03*
X228600Y746760D03*
D11*
X245110Y527050D03*
X7620Y764540D03*
D12*
X14050Y673160D03*
X14050Y617160D03*
D13*
X50800Y660160D03*
X50800Y650160D03*
X50800Y640160D03*
X50800Y630160D03*
D14*
X162560Y633340D03*
X162560Y616340D03*
D12*
X239950Y617160D03*
X239950Y673160D03*
D13*
X203200Y630160D03*
X203200Y640160D03*
X203200Y650160D03*
X203200Y660160D03*
D15*
X40250Y565150D03*
X23250Y565150D03*
D16*
X26500Y578140D02*
X26500Y585180D01*
X26500Y578140D02*
X19460Y578140D01*
X19460Y585180D01*
X26500Y585180D01*
X26500Y581902D02*
X19460Y581902D01*
X44040Y585180D02*
X44040Y578140D01*
X37000Y578140D01*
X37000Y585180D01*
X44040Y585180D01*
X44040Y581902D02*
X37000Y581902D01*
D14*
X91440Y667140D03*
X91440Y684140D03*
X162560Y667140D03*
X162560Y684140D03*
D17*
X26543Y544830D03*
X36957Y544830D03*
D18*
X88900Y530860D03*
X114300Y530860D03*
X139700Y530860D03*
X165100Y530860D03*
D19*
X138500Y645160D03*
X138500Y653160D03*
X138500Y637160D03*
X115500Y637160D03*
X115500Y645160D03*
X115500Y653160D03*
D14*
X91440Y633340D03*
X91440Y616340D03*
D15*
X74050Y650240D03*
X91050Y650240D03*
D10*
X284480Y746760D03*
X487680Y746760D03*
D11*
X504190Y527050D03*
X266700Y764540D03*
D12*
X273130Y673160D03*
X273130Y617160D03*
D13*
X309880Y660160D03*
X309880Y650160D03*
X309880Y640160D03*
X309880Y630160D03*
D14*
X421640Y633340D03*
X421640Y616340D03*
D12*
X499030Y617160D03*
X499030Y673160D03*
D13*
X462280Y630160D03*
X462280Y640160D03*
X462280Y650160D03*
X462280Y660160D03*
D15*
X299330Y565150D03*
X282330Y565150D03*
D16*
X285580Y578140D02*
X285580Y585180D01*
X285580Y578140D02*
X278540Y578140D01*
X278540Y585180D01*
X285580Y585180D01*
X285580Y581902D02*
X278540Y581902D01*
X303120Y585180D02*
X303120Y578140D01*
X296080Y578140D01*
X296080Y585180D01*
X303120Y585180D01*
X303120Y581902D02*
X296080Y581902D01*
D14*
X350520Y667140D03*
X350520Y684140D03*
X421640Y667140D03*
X421640Y684140D03*
D17*
X285623Y544830D03*
X296037Y544830D03*
D18*
X347980Y530860D03*
X373380Y530860D03*
X398780Y530860D03*
X424180Y530860D03*
D19*
X397580Y645160D03*
X397580Y653160D03*
X397580Y637160D03*
X374580Y637160D03*
X374580Y645160D03*
X374580Y653160D03*
D14*
X350520Y633340D03*
X350520Y616340D03*
D15*
X333130Y650240D03*
X350130Y650240D03*
D10*
X543560Y746760D03*
X746760Y746760D03*
D11*
X763270Y527050D03*
X525780Y764540D03*
D12*
X532210Y673160D03*
X532210Y617160D03*
D13*
X568960Y660160D03*
X568960Y650160D03*
X568960Y640160D03*
X568960Y630160D03*
D14*
X680720Y633340D03*
X680720Y616340D03*
D12*
X758110Y617160D03*
X758110Y673160D03*
D13*
X721360Y630160D03*
X721360Y640160D03*
X721360Y650160D03*
X721360Y660160D03*
D15*
X558410Y565150D03*
X541410Y565150D03*
D16*
X544660Y578140D02*
X544660Y585180D01*
X544660Y578140D02*
X537620Y578140D01*
X537620Y585180D01*
X544660Y585180D01*
X544660Y581902D02*
X537620Y581902D01*
X562200Y585180D02*
X562200Y578140D01*
X555160Y578140D01*
X555160Y585180D01*
X562200Y585180D01*
X562200Y581902D02*
X555160Y581902D01*
D14*
X609600Y667140D03*
X609600Y684140D03*
X680720Y667140D03*
X680720Y684140D03*
D17*
X544703Y544830D03*
X555117Y544830D03*
D18*
X607060Y530860D03*
X632460Y530860D03*
X657860Y530860D03*
X683260Y530860D03*
D19*
X656660Y645160D03*
X656660Y653160D03*
X656660Y637160D03*
X633660Y637160D03*
X633660Y645160D03*
X633660Y653160D03*
D14*
X609600Y633340D03*
X609600Y616340D03*
D15*
X592210Y650240D03*
X609210Y650240D03*
D10*
X802640Y746760D03*
X1005840Y746760D03*
D11*
X1022350Y527050D03*
X784860Y764540D03*
D12*
X791290Y673160D03*
X791290Y617160D03*
D13*
X828040Y660160D03*
X828040Y650160D03*
X828040Y640160D03*
X828040Y630160D03*
D14*
X939800Y633340D03*
X939800Y616340D03*
D12*
X1017190Y617160D03*
X1017190Y673160D03*
D13*
X980440Y630160D03*
X980440Y640160D03*
X980440Y650160D03*
X980440Y660160D03*
D15*
X817490Y565150D03*
X800490Y565150D03*
D16*
X803740Y578140D02*
X803740Y585180D01*
X803740Y578140D02*
X796700Y578140D01*
X796700Y585180D01*
X803740Y585180D01*
X803740Y581902D02*
X796700Y581902D01*
X821280Y585180D02*
X821280Y578140D01*
X814240Y578140D01*
X814240Y585180D01*
X821280Y585180D01*
X821280Y581902D02*
X814240Y581902D01*
D14*
X868680Y667140D03*
X868680Y684140D03*
X939800Y667140D03*
X939800Y684140D03*
D17*
X803783Y544830D03*
X814197Y544830D03*
D18*
X866140Y530860D03*
X891540Y530860D03*
X916940Y530860D03*
X942340Y530860D03*
D19*
X915740Y645160D03*
X915740Y653160D03*
X915740Y637160D03*
X892740Y637160D03*
X892740Y645160D03*
X892740Y653160D03*
D14*
X868680Y633340D03*
X868680Y616340D03*
D15*
X851290Y650240D03*
X868290Y650240D03*
D10*
X1061720Y746760D03*
X1264920Y746760D03*
D11*
X1281430Y527050D03*
X1043940Y764540D03*
D12*
X1050370Y673160D03*
X1050370Y617160D03*
D13*
X1087120Y660160D03*
X1087120Y650160D03*
X1087120Y640160D03*
X1087120Y630160D03*
D14*
X1198880Y633340D03*
X1198880Y616340D03*
D12*
X1276270Y617160D03*
X1276270Y673160D03*
D13*
X1239520Y630160D03*
X1239520Y640160D03*
X1239520Y650160D03*
X1239520Y660160D03*
D15*
X1076570Y565150D03*
X1059570Y565150D03*
D16*
X1062820Y578140D02*
X1062820Y585180D01*
X1062820Y578140D02*
X1055780Y578140D01*
X1055780Y585180D01*
X1062820Y585180D01*
X1062820Y581902D02*
X1055780Y581902D01*
X1080360Y585180D02*
X1080360Y578140D01*
X1073320Y578140D01*
X1073320Y585180D01*
X1080360Y585180D01*
X1080360Y581902D02*
X1073320Y581902D01*
D14*
X1127760Y667140D03*
X1127760Y684140D03*
X1198880Y667140D03*
X1198880Y684140D03*
D17*
X1062863Y544830D03*
X1073277Y544830D03*
D18*
X1125220Y530860D03*
X1150620Y530860D03*
X1176020Y530860D03*
X1201420Y530860D03*
D19*
X1174820Y645160D03*
X1174820Y653160D03*
X1174820Y637160D03*
X1151820Y637160D03*
X1151820Y645160D03*
X1151820Y653160D03*
D14*
X1127760Y633340D03*
X1127760Y616340D03*
D15*
X1110370Y650240D03*
X1127370Y650240D03*
D10*
X1320800Y746760D03*
X1524000Y746760D03*
D11*
X1540510Y527050D03*
X1303020Y764540D03*
D12*
X1309450Y673160D03*
X1309450Y617160D03*
D13*
X1346200Y660160D03*
X1346200Y650160D03*
X1346200Y640160D03*
X1346200Y630160D03*
D14*
X1457960Y633340D03*
X1457960Y616340D03*
D12*
X1535350Y617160D03*
X1535350Y673160D03*
D13*
X1498600Y630160D03*
X1498600Y640160D03*
X1498600Y650160D03*
X1498600Y660160D03*
D15*
X1335650Y565150D03*
X1318650Y565150D03*
D16*
X1321900Y578140D02*
X1321900Y585180D01*
X1321900Y578140D02*
X1314860Y578140D01*
X1314860Y585180D01*
X1321900Y585180D01*
X1321900Y581902D02*
X1314860Y581902D01*
X1339440Y585180D02*
X1339440Y578140D01*
X1332400Y578140D01*
X1332400Y585180D01*
X1339440Y585180D01*
X1339440Y581902D02*
X1332400Y581902D01*
D14*
X1386840Y667140D03*
X1386840Y684140D03*
X1457960Y667140D03*
X1457960Y684140D03*
D17*
X1321943Y544830D03*
X1332357Y544830D03*
D18*
X1384300Y530860D03*
X1409700Y530860D03*
X1435100Y530860D03*
X1460500Y530860D03*
D19*
X1433900Y645160D03*
X1433900Y653160D03*
X1433900Y637160D03*
X1410900Y637160D03*
X1410900Y645160D03*
X1410900Y653160D03*
D14*
X1386840Y633340D03*
X1386840Y616340D03*
D15*
X1369450Y650240D03*
X1386450Y650240D03*
D10*
X25400Y1005840D03*
X228600Y1005840D03*
D11*
X245110Y786130D03*
X7620Y1023620D03*
D12*
X14050Y932240D03*
X14050Y876240D03*
D13*
X50800Y919240D03*
X50800Y909240D03*
X50800Y899240D03*
X50800Y889240D03*
D14*
X162560Y892420D03*
X162560Y875420D03*
D12*
X239950Y876240D03*
X239950Y932240D03*
D13*
X203200Y889240D03*
X203200Y899240D03*
X203200Y909240D03*
X203200Y919240D03*
D15*
X40250Y824230D03*
X23250Y824230D03*
D16*
X26500Y837220D02*
X26500Y844260D01*
X26500Y837220D02*
X19460Y837220D01*
X19460Y844260D01*
X26500Y844260D01*
X26500Y840982D02*
X19460Y840982D01*
X44040Y844260D02*
X44040Y837220D01*
X37000Y837220D01*
X37000Y844260D01*
X44040Y844260D01*
X44040Y840982D02*
X37000Y840982D01*
D14*
X91440Y926220D03*
X91440Y943220D03*
X162560Y926220D03*
X162560Y943220D03*
D17*
X26543Y803910D03*
X36957Y803910D03*
D18*
X88900Y789940D03*
X114300Y789940D03*
X139700Y789940D03*
X165100Y789940D03*
D19*
X138500Y904240D03*
X138500Y912240D03*
X138500Y896240D03*
X115500Y896240D03*
X115500Y904240D03*
X115500Y912240D03*
D14*
X91440Y892420D03*
X91440Y875420D03*
D15*
X74050Y909320D03*
X91050Y909320D03*
D10*
X284480Y1005840D03*
X487680Y1005840D03*
D11*
X504190Y786130D03*
X266700Y1023620D03*
D12*
X273130Y932240D03*
X273130Y876240D03*
D13*
X309880Y919240D03*
X309880Y909240D03*
X309880Y899240D03*
X309880Y889240D03*
D14*
X421640Y892420D03*
X421640Y875420D03*
D12*
X499030Y876240D03*
X499030Y932240D03*
D13*
X462280Y889240D03*
X462280Y899240D03*
X462280Y909240D03*
X462280Y919240D03*
D15*
X299330Y824230D03*
X282330Y824230D03*
D16*
X285580Y837220D02*
X285580Y844260D01*
X285580Y837220D02*
X278540Y837220D01*
X278540Y844260D01*
X285580Y844260D01*
X285580Y840982D02*
X278540Y840982D01*
X303120Y844260D02*
X303120Y837220D01*
X296080Y837220D01*
X296080Y844260D01*
X303120Y844260D01*
X303120Y840982D02*
X296080Y840982D01*
D14*
X350520Y926220D03*
X350520Y943220D03*
X421640Y926220D03*
X421640Y943220D03*
D17*
X285623Y803910D03*
X296037Y803910D03*
D18*
X347980Y789940D03*
X373380Y789940D03*
X398780Y789940D03*
X424180Y789940D03*
D19*
X397580Y904240D03*
X397580Y912240D03*
X397580Y896240D03*
X374580Y896240D03*
X374580Y904240D03*
X374580Y912240D03*
D14*
X350520Y892420D03*
X350520Y875420D03*
D15*
X333130Y909320D03*
X350130Y909320D03*
D10*
X543560Y1005840D03*
X746760Y1005840D03*
D11*
X763270Y786130D03*
X525780Y1023620D03*
D12*
X532210Y932240D03*
X532210Y876240D03*
D13*
X568960Y919240D03*
X568960Y909240D03*
X568960Y899240D03*
X568960Y889240D03*
D14*
X680720Y892420D03*
X680720Y875420D03*
D12*
X758110Y876240D03*
X758110Y932240D03*
D13*
X721360Y889240D03*
X721360Y899240D03*
X721360Y909240D03*
X721360Y919240D03*
D15*
X558410Y824230D03*
X541410Y824230D03*
D16*
X544660Y837220D02*
X544660Y844260D01*
X544660Y837220D02*
X537620Y837220D01*
X537620Y844260D01*
X544660Y844260D01*
X544660Y840982D02*
X537620Y840982D01*
X562200Y844260D02*
X562200Y837220D01*
X555160Y837220D01*
X555160Y844260D01*
X562200Y844260D01*
X562200Y840982D02*
X555160Y840982D01*
D14*
X609600Y926220D03*
X609600Y943220D03*
X680720Y926220D03*
X680720Y943220D03*
D17*
X544703Y803910D03*
X555117Y803910D03*
D18*
X607060Y789940D03*
X632460Y789940D03*
X657860Y789940D03*
X683260Y789940D03*
D19*
X656660Y904240D03*
X656660Y912240D03*
X656660Y896240D03*
X633660Y896240D03*
X633660Y904240D03*
X633660Y912240D03*
D14*
X609600Y892420D03*
X609600Y875420D03*
D15*
X592210Y909320D03*
X609210Y909320D03*
D10*
X802640Y1005840D03*
X1005840Y1005840D03*
D11*
X1022350Y786130D03*
X784860Y1023620D03*
D12*
X791290Y932240D03*
X791290Y876240D03*
D13*
X828040Y919240D03*
X828040Y909240D03*
X828040Y899240D03*
X828040Y889240D03*
D14*
X939800Y892420D03*
X939800Y875420D03*
D12*
X1017190Y876240D03*
X1017190Y932240D03*
D13*
X980440Y889240D03*
X980440Y899240D03*
X980440Y909240D03*
X980440Y919240D03*
D15*
X817490Y824230D03*
X800490Y824230D03*
D16*
X803740Y837220D02*
X803740Y844260D01*
X803740Y837220D02*
X796700Y837220D01*
X796700Y844260D01*
X803740Y844260D01*
X803740Y840982D02*
X796700Y840982D01*
X821280Y844260D02*
X821280Y837220D01*
X814240Y837220D01*
X814240Y844260D01*
X821280Y844260D01*
X821280Y840982D02*
X814240Y840982D01*
D14*
X868680Y926220D03*
X868680Y943220D03*
X939800Y926220D03*
X939800Y943220D03*
D17*
X803783Y803910D03*
X814197Y803910D03*
D18*
X866140Y789940D03*
X891540Y789940D03*
X916940Y789940D03*
X942340Y789940D03*
D19*
X915740Y904240D03*
X915740Y912240D03*
X915740Y896240D03*
X892740Y896240D03*
X892740Y904240D03*
X892740Y912240D03*
D14*
X868680Y892420D03*
X868680Y875420D03*
D15*
X851290Y909320D03*
X868290Y909320D03*
D10*
X1061720Y1005840D03*
X1264920Y1005840D03*
D11*
X1281430Y786130D03*
X1043940Y1023620D03*
D12*
X1050370Y932240D03*
X1050370Y876240D03*
D13*
X1087120Y919240D03*
X1087120Y909240D03*
X1087120Y899240D03*
X1087120Y889240D03*
D14*
X1198880Y892420D03*
X1198880Y875420D03*
D12*
X1276270Y876240D03*
X1276270Y932240D03*
D13*
X1239520Y889240D03*
X1239520Y899240D03*
X1239520Y909240D03*
X1239520Y919240D03*
D15*
X1076570Y824230D03*
X1059570Y824230D03*
D16*
X1062820Y837220D02*
X1062820Y844260D01*
X1062820Y837220D02*
X1055780Y837220D01*
X1055780Y844260D01*
X1062820Y844260D01*
X1062820Y840982D02*
X1055780Y840982D01*
X1080360Y844260D02*
X1080360Y837220D01*
X1073320Y837220D01*
X1073320Y844260D01*
X1080360Y844260D01*
X1080360Y840982D02*
X1073320Y840982D01*
D14*
X1127760Y926220D03*
X1127760Y943220D03*
X1198880Y926220D03*
X1198880Y943220D03*
D17*
X1062863Y803910D03*
X1073277Y803910D03*
D18*
X1125220Y789940D03*
X1150620Y789940D03*
X1176020Y789940D03*
X1201420Y789940D03*
D19*
X1174820Y904240D03*
X1174820Y912240D03*
X1174820Y896240D03*
X1151820Y896240D03*
X1151820Y904240D03*
X1151820Y912240D03*
D14*
X1127760Y892420D03*
X1127760Y875420D03*
D15*
X1110370Y909320D03*
X1127370Y909320D03*
D10*
X1320800Y1005840D03*
X1524000Y1005840D03*
D11*
X1540510Y786130D03*
X1303020Y1023620D03*
D12*
X1309450Y932240D03*
X1309450Y876240D03*
D13*
X1346200Y919240D03*
X1346200Y909240D03*
X1346200Y899240D03*
X1346200Y889240D03*
D14*
X1457960Y892420D03*
X1457960Y875420D03*
D12*
X1535350Y876240D03*
X1535350Y932240D03*
D13*
X1498600Y889240D03*
X1498600Y899240D03*
X1498600Y909240D03*
X1498600Y919240D03*
D15*
X1335650Y824230D03*
X1318650Y824230D03*
D16*
X1321900Y837220D02*
X1321900Y844260D01*
X1321900Y837220D02*
X1314860Y837220D01*
X1314860Y844260D01*
X1321900Y844260D01*
X1321900Y840982D02*
X1314860Y840982D01*
X1339440Y844260D02*
X1339440Y837220D01*
X1332400Y837220D01*
X1332400Y844260D01*
X1339440Y844260D01*
X1339440Y840982D02*
X1332400Y840982D01*
D14*
X1386840Y926220D03*
X1386840Y943220D03*
X1457960Y926220D03*
X1457960Y943220D03*
D17*
X1321943Y803910D03*
X1332357Y803910D03*
D18*
X1384300Y789940D03*
X1409700Y789940D03*
X1435100Y789940D03*
X1460500Y789940D03*
D19*
X1433900Y904240D03*
X1433900Y912240D03*
X1433900Y896240D03*
X1410900Y896240D03*
X1410900Y904240D03*
X1410900Y912240D03*
D14*
X1386840Y892420D03*
X1386840Y875420D03*
D15*
X1369450Y909320D03*
X1386450Y909320D03*
D10*
X25400Y1264920D03*
X228600Y1264920D03*
D11*
X245110Y1045210D03*
X7620Y1282700D03*
D12*
X14050Y1191320D03*
X14050Y1135320D03*
D13*
X50800Y1178320D03*
X50800Y1168320D03*
X50800Y1158320D03*
X50800Y1148320D03*
D14*
X162560Y1151500D03*
X162560Y1134500D03*
D12*
X239950Y1135320D03*
X239950Y1191320D03*
D13*
X203200Y1148320D03*
X203200Y1158320D03*
X203200Y1168320D03*
X203200Y1178320D03*
D15*
X40250Y1083310D03*
X23250Y1083310D03*
D16*
X26500Y1096300D02*
X26500Y1103340D01*
X26500Y1096300D02*
X19460Y1096300D01*
X19460Y1103340D01*
X26500Y1103340D01*
X26500Y1100062D02*
X19460Y1100062D01*
X44040Y1103340D02*
X44040Y1096300D01*
X37000Y1096300D01*
X37000Y1103340D01*
X44040Y1103340D01*
X44040Y1100062D02*
X37000Y1100062D01*
D14*
X91440Y1185300D03*
X91440Y1202300D03*
X162560Y1185300D03*
X162560Y1202300D03*
D17*
X26543Y1062990D03*
X36957Y1062990D03*
D18*
X88900Y1049020D03*
X114300Y1049020D03*
X139700Y1049020D03*
X165100Y1049020D03*
D19*
X138500Y1163320D03*
X138500Y1171320D03*
X138500Y1155320D03*
X115500Y1155320D03*
X115500Y1163320D03*
X115500Y1171320D03*
D14*
X91440Y1151500D03*
X91440Y1134500D03*
D15*
X74050Y1168400D03*
X91050Y1168400D03*
D10*
X284480Y1264920D03*
X487680Y1264920D03*
D11*
X504190Y1045210D03*
X266700Y1282700D03*
D12*
X273130Y1191320D03*
X273130Y1135320D03*
D13*
X309880Y1178320D03*
X309880Y1168320D03*
X309880Y1158320D03*
X309880Y1148320D03*
D14*
X421640Y1151500D03*
X421640Y1134500D03*
D12*
X499030Y1135320D03*
X499030Y1191320D03*
D13*
X462280Y1148320D03*
X462280Y1158320D03*
X462280Y1168320D03*
X462280Y1178320D03*
D15*
X299330Y1083310D03*
X282330Y1083310D03*
D16*
X285580Y1096300D02*
X285580Y1103340D01*
X285580Y1096300D02*
X278540Y1096300D01*
X278540Y1103340D01*
X285580Y1103340D01*
X285580Y1100062D02*
X278540Y1100062D01*
X303120Y1103340D02*
X303120Y1096300D01*
X296080Y1096300D01*
X296080Y1103340D01*
X303120Y1103340D01*
X303120Y1100062D02*
X296080Y1100062D01*
D14*
X350520Y1185300D03*
X350520Y1202300D03*
X421640Y1185300D03*
X421640Y1202300D03*
D17*
X285623Y1062990D03*
X296037Y1062990D03*
D18*
X347980Y1049020D03*
X373380Y1049020D03*
X398780Y1049020D03*
X424180Y1049020D03*
D19*
X397580Y1163320D03*
X397580Y1171320D03*
X397580Y1155320D03*
X374580Y1155320D03*
X374580Y1163320D03*
X374580Y1171320D03*
D14*
X350520Y1151500D03*
X350520Y1134500D03*
D15*
X333130Y1168400D03*
X350130Y1168400D03*
D10*
X543560Y1264920D03*
X746760Y1264920D03*
D11*
X763270Y1045210D03*
X525780Y1282700D03*
D12*
X532210Y1191320D03*
X532210Y1135320D03*
D13*
X568960Y1178320D03*
X568960Y1168320D03*
X568960Y1158320D03*
X568960Y1148320D03*
D14*
X680720Y1151500D03*
X680720Y1134500D03*
D12*
X758110Y1135320D03*
X758110Y1191320D03*
D13*
X721360Y1148320D03*
X721360Y1158320D03*
X721360Y1168320D03*
X721360Y1178320D03*
D15*
X558410Y1083310D03*
X541410Y1083310D03*
D16*
X544660Y1096300D02*
X544660Y1103340D01*
X544660Y1096300D02*
X537620Y1096300D01*
X537620Y1103340D01*
X544660Y1103340D01*
X544660Y1100062D02*
X537620Y1100062D01*
X562200Y1103340D02*
X562200Y1096300D01*
X555160Y1096300D01*
X555160Y1103340D01*
X562200Y1103340D01*
X562200Y1100062D02*
X555160Y1100062D01*
D14*
X609600Y1185300D03*
X609600Y1202300D03*
X680720Y1185300D03*
X680720Y1202300D03*
D17*
X544703Y1062990D03*
X555117Y1062990D03*
D18*
X607060Y1049020D03*
X632460Y1049020D03*
X657860Y1049020D03*
X683260Y1049020D03*
D19*
X656660Y1163320D03*
X656660Y1171320D03*
X656660Y1155320D03*
X633660Y1155320D03*
X633660Y1163320D03*
X633660Y1171320D03*
D14*
X609600Y1151500D03*
X609600Y1134500D03*
D15*
X592210Y1168400D03*
X609210Y1168400D03*
D10*
X802640Y1264920D03*
X1005840Y1264920D03*
D11*
X1022350Y1045210D03*
X784860Y1282700D03*
D12*
X791290Y1191320D03*
X791290Y1135320D03*
D13*
X828040Y1178320D03*
X828040Y1168320D03*
X828040Y1158320D03*
X828040Y1148320D03*
D14*
X939800Y1151500D03*
X939800Y1134500D03*
D12*
X1017190Y1135320D03*
X1017190Y1191320D03*
D13*
X980440Y1148320D03*
X980440Y1158320D03*
X980440Y1168320D03*
X980440Y1178320D03*
D15*
X817490Y1083310D03*
X800490Y1083310D03*
D16*
X803740Y1096300D02*
X803740Y1103340D01*
X803740Y1096300D02*
X796700Y1096300D01*
X796700Y1103340D01*
X803740Y1103340D01*
X803740Y1100062D02*
X796700Y1100062D01*
X821280Y1103340D02*
X821280Y1096300D01*
X814240Y1096300D01*
X814240Y1103340D01*
X821280Y1103340D01*
X821280Y1100062D02*
X814240Y1100062D01*
D14*
X868680Y1185300D03*
X868680Y1202300D03*
X939800Y1185300D03*
X939800Y1202300D03*
D17*
X803783Y1062990D03*
X814197Y1062990D03*
D18*
X866140Y1049020D03*
X891540Y1049020D03*
X916940Y1049020D03*
X942340Y1049020D03*
D19*
X915740Y1163320D03*
X915740Y1171320D03*
X915740Y1155320D03*
X892740Y1155320D03*
X892740Y1163320D03*
X892740Y1171320D03*
D14*
X868680Y1151500D03*
X868680Y1134500D03*
D15*
X851290Y1168400D03*
X868290Y1168400D03*
D10*
X1061720Y1264920D03*
X1264920Y1264920D03*
D11*
X1281430Y1045210D03*
X1043940Y1282700D03*
D12*
X1050370Y1191320D03*
X1050370Y1135320D03*
D13*
X1087120Y1178320D03*
X1087120Y1168320D03*
X1087120Y1158320D03*
X1087120Y1148320D03*
D14*
X1198880Y1151500D03*
X1198880Y1134500D03*
D12*
X1276270Y1135320D03*
X1276270Y1191320D03*
D13*
X1239520Y1148320D03*
X1239520Y1158320D03*
X1239520Y1168320D03*
X1239520Y1178320D03*
D15*
X1076570Y1083310D03*
X1059570Y1083310D03*
D16*
X1062820Y1096300D02*
X1062820Y1103340D01*
X1062820Y1096300D02*
X1055780Y1096300D01*
X1055780Y1103340D01*
X1062820Y1103340D01*
X1062820Y1100062D02*
X1055780Y1100062D01*
X1080360Y1103340D02*
X1080360Y1096300D01*
X1073320Y1096300D01*
X1073320Y1103340D01*
X1080360Y1103340D01*
X1080360Y1100062D02*
X1073320Y1100062D01*
D14*
X1127760Y1185300D03*
X1127760Y1202300D03*
X1198880Y1185300D03*
X1198880Y1202300D03*
D17*
X1062863Y1062990D03*
X1073277Y1062990D03*
D18*
X1125220Y1049020D03*
X1150620Y1049020D03*
X1176020Y1049020D03*
X1201420Y1049020D03*
D19*
X1174820Y1163320D03*
X1174820Y1171320D03*
X1174820Y1155320D03*
X1151820Y1155320D03*
X1151820Y1163320D03*
X1151820Y1171320D03*
D14*
X1127760Y1151500D03*
X1127760Y1134500D03*
D15*
X1110370Y1168400D03*
X1127370Y1168400D03*
D10*
X1320800Y1264920D03*
X1524000Y1264920D03*
D11*
X1540510Y1045210D03*
X1303020Y1282700D03*
D12*
X1309450Y1191320D03*
X1309450Y1135320D03*
D13*
X1346200Y1178320D03*
X1346200Y1168320D03*
X1346200Y1158320D03*
X1346200Y1148320D03*
D14*
X1457960Y1151500D03*
X1457960Y1134500D03*
D12*
X1535350Y1135320D03*
X1535350Y1191320D03*
D13*
X1498600Y1148320D03*
X1498600Y1158320D03*
X1498600Y1168320D03*
X1498600Y1178320D03*
D15*
X1335650Y1083310D03*
X1318650Y1083310D03*
D16*
X1321900Y1096300D02*
X1321900Y1103340D01*
X1321900Y1096300D02*
X1314860Y1096300D01*
X1314860Y1103340D01*
X1321900Y1103340D01*
X1321900Y1100062D02*
X1314860Y1100062D01*
X1339440Y1103340D02*
X1339440Y1096300D01*
X1332400Y1096300D01*
X1332400Y1103340D01*
X1339440Y1103340D01*
X1339440Y1100062D02*
X1332400Y1100062D01*
D14*
X1386840Y1185300D03*
X1386840Y1202300D03*
X1457960Y1185300D03*
X1457960Y1202300D03*
D17*
X1321943Y1062990D03*
X1332357Y1062990D03*
D18*
X1384300Y1049020D03*
X1409700Y1049020D03*
X1435100Y1049020D03*
X1460500Y1049020D03*
D19*
X1433900Y1163320D03*
X1433900Y1171320D03*
X1433900Y1155320D03*
X1410900Y1155320D03*
X1410900Y1163320D03*
X1410900Y1171320D03*
D14*
X1386840Y1151500D03*
X1386840Y1134500D03*
D15*
X1369450Y1168400D03*
X1386450Y1168400D03*
D10*
X25400Y1524000D03*
X228600Y1524000D03*
D11*
X245110Y1304290D03*
X7620Y1541780D03*
D12*
X14050Y1450400D03*
X14050Y1394400D03*
D13*
X50800Y1437400D03*
X50800Y1427400D03*
X50800Y1417400D03*
X50800Y1407400D03*
D14*
X162560Y1410580D03*
X162560Y1393580D03*
D12*
X239950Y1394400D03*
X239950Y1450400D03*
D13*
X203200Y1407400D03*
X203200Y1417400D03*
X203200Y1427400D03*
X203200Y1437400D03*
D15*
X40250Y1342390D03*
X23250Y1342390D03*
D16*
X26500Y1355380D02*
X26500Y1362420D01*
X26500Y1355380D02*
X19460Y1355380D01*
X19460Y1362420D01*
X26500Y1362420D01*
X26500Y1359142D02*
X19460Y1359142D01*
X44040Y1362420D02*
X44040Y1355380D01*
X37000Y1355380D01*
X37000Y1362420D01*
X44040Y1362420D01*
X44040Y1359142D02*
X37000Y1359142D01*
D14*
X91440Y1444380D03*
X91440Y1461380D03*
X162560Y1444380D03*
X162560Y1461380D03*
D17*
X26543Y1322070D03*
X36957Y1322070D03*
D18*
X88900Y1308100D03*
X114300Y1308100D03*
X139700Y1308100D03*
X165100Y1308100D03*
D19*
X138500Y1422400D03*
X138500Y1430400D03*
X138500Y1414400D03*
X115500Y1414400D03*
X115500Y1422400D03*
X115500Y1430400D03*
D14*
X91440Y1410580D03*
X91440Y1393580D03*
D15*
X74050Y1427480D03*
X91050Y1427480D03*
D10*
X284480Y1524000D03*
X487680Y1524000D03*
D11*
X504190Y1304290D03*
X266700Y1541780D03*
D12*
X273130Y1450400D03*
X273130Y1394400D03*
D13*
X309880Y1437400D03*
X309880Y1427400D03*
X309880Y1417400D03*
X309880Y1407400D03*
D14*
X421640Y1410580D03*
X421640Y1393580D03*
D12*
X499030Y1394400D03*
X499030Y1450400D03*
D13*
X462280Y1407400D03*
X462280Y1417400D03*
X462280Y1427400D03*
X462280Y1437400D03*
D15*
X299330Y1342390D03*
X282330Y1342390D03*
D16*
X285580Y1355380D02*
X285580Y1362420D01*
X285580Y1355380D02*
X278540Y1355380D01*
X278540Y1362420D01*
X285580Y1362420D01*
X285580Y1359142D02*
X278540Y1359142D01*
X303120Y1362420D02*
X303120Y1355380D01*
X296080Y1355380D01*
X296080Y1362420D01*
X303120Y1362420D01*
X303120Y1359142D02*
X296080Y1359142D01*
D14*
X350520Y1444380D03*
X350520Y1461380D03*
X421640Y1444380D03*
X421640Y1461380D03*
D17*
X285623Y1322070D03*
X296037Y1322070D03*
D18*
X347980Y1308100D03*
X373380Y1308100D03*
X398780Y1308100D03*
X424180Y1308100D03*
D19*
X397580Y1422400D03*
X397580Y1430400D03*
X397580Y1414400D03*
X374580Y1414400D03*
X374580Y1422400D03*
X374580Y1430400D03*
D14*
X350520Y1410580D03*
X350520Y1393580D03*
D15*
X333130Y1427480D03*
X350130Y1427480D03*
D10*
X543560Y1524000D03*
X746760Y1524000D03*
D11*
X763270Y1304290D03*
X525780Y1541780D03*
D12*
X532210Y1450400D03*
X532210Y1394400D03*
D13*
X568960Y1437400D03*
X568960Y1427400D03*
X568960Y1417400D03*
X568960Y1407400D03*
D14*
X680720Y1410580D03*
X680720Y1393580D03*
D12*
X758110Y1394400D03*
X758110Y1450400D03*
D13*
X721360Y1407400D03*
X721360Y1417400D03*
X721360Y1427400D03*
X721360Y1437400D03*
D15*
X558410Y1342390D03*
X541410Y1342390D03*
D16*
X544660Y1355380D02*
X544660Y1362420D01*
X544660Y1355380D02*
X537620Y1355380D01*
X537620Y1362420D01*
X544660Y1362420D01*
X544660Y1359142D02*
X537620Y1359142D01*
X562200Y1362420D02*
X562200Y1355380D01*
X555160Y1355380D01*
X555160Y1362420D01*
X562200Y1362420D01*
X562200Y1359142D02*
X555160Y1359142D01*
D14*
X609600Y1444380D03*
X609600Y1461380D03*
X680720Y1444380D03*
X680720Y1461380D03*
D17*
X544703Y1322070D03*
X555117Y1322070D03*
D18*
X607060Y1308100D03*
X632460Y1308100D03*
X657860Y1308100D03*
X683260Y1308100D03*
D19*
X656660Y1422400D03*
X656660Y1430400D03*
X656660Y1414400D03*
X633660Y1414400D03*
X633660Y1422400D03*
X633660Y1430400D03*
D14*
X609600Y1410580D03*
X609600Y1393580D03*
D15*
X592210Y1427480D03*
X609210Y1427480D03*
D10*
X802640Y1524000D03*
X1005840Y1524000D03*
D11*
X1022350Y1304290D03*
X784860Y1541780D03*
D12*
X791290Y1450400D03*
X791290Y1394400D03*
D13*
X828040Y1437400D03*
X828040Y1427400D03*
X828040Y1417400D03*
X828040Y1407400D03*
D14*
X939800Y1410580D03*
X939800Y1393580D03*
D12*
X1017190Y1394400D03*
X1017190Y1450400D03*
D13*
X980440Y1407400D03*
X980440Y1417400D03*
X980440Y1427400D03*
X980440Y1437400D03*
D15*
X817490Y1342390D03*
X800490Y1342390D03*
D16*
X803740Y1355380D02*
X803740Y1362420D01*
X803740Y1355380D02*
X796700Y1355380D01*
X796700Y1362420D01*
X803740Y1362420D01*
X803740Y1359142D02*
X796700Y1359142D01*
X821280Y1362420D02*
X821280Y1355380D01*
X814240Y1355380D01*
X814240Y1362420D01*
X821280Y1362420D01*
X821280Y1359142D02*
X814240Y1359142D01*
D14*
X868680Y1444380D03*
X868680Y1461380D03*
X939800Y1444380D03*
X939800Y1461380D03*
D17*
X803783Y1322070D03*
X814197Y1322070D03*
D18*
X866140Y1308100D03*
X891540Y1308100D03*
X916940Y1308100D03*
X942340Y1308100D03*
D19*
X915740Y1422400D03*
X915740Y1430400D03*
X915740Y1414400D03*
X892740Y1414400D03*
X892740Y1422400D03*
X892740Y1430400D03*
D14*
X868680Y1410580D03*
X868680Y1393580D03*
D15*
X851290Y1427480D03*
X868290Y1427480D03*
D10*
X1061720Y1524000D03*
X1264920Y1524000D03*
D11*
X1281430Y1304290D03*
X1043940Y1541780D03*
D12*
X1050370Y1450400D03*
X1050370Y1394400D03*
D13*
X1087120Y1437400D03*
X1087120Y1427400D03*
X1087120Y1417400D03*
X1087120Y1407400D03*
D14*
X1198880Y1410580D03*
X1198880Y1393580D03*
D12*
X1276270Y1394400D03*
X1276270Y1450400D03*
D13*
X1239520Y1407400D03*
X1239520Y1417400D03*
X1239520Y1427400D03*
X1239520Y1437400D03*
D15*
X1076570Y1342390D03*
X1059570Y1342390D03*
D16*
X1062820Y1355380D02*
X1062820Y1362420D01*
X1062820Y1355380D02*
X1055780Y1355380D01*
X1055780Y1362420D01*
X1062820Y1362420D01*
X1062820Y1359142D02*
X1055780Y1359142D01*
X1080360Y1362420D02*
X1080360Y1355380D01*
X1073320Y1355380D01*
X1073320Y1362420D01*
X1080360Y1362420D01*
X1080360Y1359142D02*
X1073320Y1359142D01*
D14*
X1127760Y1444380D03*
X1127760Y1461380D03*
X1198880Y1444380D03*
X1198880Y1461380D03*
D17*
X1062863Y1322070D03*
X1073277Y1322070D03*
D18*
X1125220Y1308100D03*
X1150620Y1308100D03*
X1176020Y1308100D03*
X1201420Y1308100D03*
D19*
X1174820Y1422400D03*
X1174820Y1430400D03*
X1174820Y1414400D03*
X1151820Y1414400D03*
X1151820Y1422400D03*
X1151820Y1430400D03*
D14*
X1127760Y1410580D03*
X1127760Y1393580D03*
D15*
X1110370Y1427480D03*
X1127370Y1427480D03*
D10*
X1320800Y1524000D03*
X1524000Y1524000D03*
D11*
X1540510Y1304290D03*
X1303020Y1541780D03*
D12*
X1309450Y1450400D03*
X1309450Y1394400D03*
D13*
X1346200Y1437400D03*
X1346200Y1427400D03*
X1346200Y1417400D03*
X1346200Y1407400D03*
D14*
X1457960Y1410580D03*
X1457960Y1393580D03*
D12*
X1535350Y1394400D03*
X1535350Y1450400D03*
D13*
X1498600Y1407400D03*
X1498600Y1417400D03*
X1498600Y1427400D03*
X1498600Y1437400D03*
D15*
X1335650Y1342390D03*
X1318650Y1342390D03*
D16*
X1321900Y1355380D02*
X1321900Y1362420D01*
X1321900Y1355380D02*
X1314860Y1355380D01*
X1314860Y1362420D01*
X1321900Y1362420D01*
X1321900Y1359142D02*
X1314860Y1359142D01*
X1339440Y1362420D02*
X1339440Y1355380D01*
X1332400Y1355380D01*
X1332400Y1362420D01*
X1339440Y1362420D01*
X1339440Y1359142D02*
X1332400Y1359142D01*
D14*
X1386840Y1444380D03*
X1386840Y1461380D03*
X1457960Y1444380D03*
X1457960Y1461380D03*
D17*
X1321943Y1322070D03*
X1332357Y1322070D03*
D18*
X1384300Y1308100D03*
X1409700Y1308100D03*
X1435100Y1308100D03*
X1460500Y1308100D03*
D19*
X1433900Y1422400D03*
X1433900Y1430400D03*
X1433900Y1414400D03*
X1410900Y1414400D03*
X1410900Y1422400D03*
X1410900Y1430400D03*
D14*
X1386840Y1410580D03*
X1386840Y1393580D03*
D15*
X1369450Y1427480D03*
X1386450Y1427480D03*
D20*
X68580Y1570355D03*
X1480185Y1570355D03*
D21*
X59525Y-20955D02*
X59528Y-20733D01*
X59536Y-20511D01*
X59550Y-20289D01*
X59569Y-20067D01*
X59593Y-19847D01*
X59623Y-19626D01*
X59658Y-19407D01*
X59699Y-19188D01*
X59745Y-18971D01*
X59796Y-18755D01*
X59853Y-18540D01*
X59915Y-18326D01*
X59982Y-18115D01*
X60054Y-17904D01*
X60132Y-17696D01*
X60214Y-17490D01*
X60302Y-17286D01*
X60394Y-17083D01*
X60492Y-16884D01*
X60594Y-16687D01*
X60701Y-16492D01*
X60813Y-16300D01*
X60930Y-16111D01*
X61051Y-15924D01*
X61177Y-15741D01*
X61307Y-15561D01*
X61442Y-15384D01*
X61580Y-15211D01*
X61723Y-15041D01*
X61871Y-14874D01*
X62022Y-14711D01*
X62177Y-14552D01*
X62336Y-14397D01*
X62499Y-14246D01*
X62666Y-14098D01*
X62836Y-13955D01*
X63009Y-13817D01*
X63186Y-13682D01*
X63366Y-13552D01*
X63549Y-13426D01*
X63736Y-13305D01*
X63925Y-13188D01*
X64117Y-13076D01*
X64312Y-12969D01*
X64509Y-12867D01*
X64708Y-12769D01*
X64911Y-12677D01*
X65115Y-12589D01*
X65321Y-12507D01*
X65529Y-12429D01*
X65740Y-12357D01*
X65951Y-12290D01*
X66165Y-12228D01*
X66380Y-12171D01*
X66596Y-12120D01*
X66813Y-12074D01*
X67032Y-12033D01*
X67251Y-11998D01*
X67472Y-11968D01*
X67692Y-11944D01*
X67914Y-11925D01*
X68136Y-11911D01*
X68358Y-11903D01*
X68580Y-11900D01*
X68802Y-11903D01*
X69024Y-11911D01*
X69246Y-11925D01*
X69468Y-11944D01*
X69688Y-11968D01*
X69909Y-11998D01*
X70128Y-12033D01*
X70347Y-12074D01*
X70564Y-12120D01*
X70780Y-12171D01*
X70995Y-12228D01*
X71209Y-12290D01*
X71420Y-12357D01*
X71631Y-12429D01*
X71839Y-12507D01*
X72045Y-12589D01*
X72249Y-12677D01*
X72452Y-12769D01*
X72651Y-12867D01*
X72848Y-12969D01*
X73043Y-13076D01*
X73235Y-13188D01*
X73424Y-13305D01*
X73611Y-13426D01*
X73794Y-13552D01*
X73974Y-13682D01*
X74151Y-13817D01*
X74324Y-13955D01*
X74494Y-14098D01*
X74661Y-14246D01*
X74824Y-14397D01*
X74983Y-14552D01*
X75138Y-14711D01*
X75289Y-14874D01*
X75437Y-15041D01*
X75580Y-15211D01*
X75718Y-15384D01*
X75853Y-15561D01*
X75983Y-15741D01*
X76109Y-15924D01*
X76230Y-16111D01*
X76347Y-16300D01*
X76459Y-16492D01*
X76566Y-16687D01*
X76668Y-16884D01*
X76766Y-17083D01*
X76858Y-17286D01*
X76946Y-17490D01*
X77028Y-17696D01*
X77106Y-17904D01*
X77178Y-18115D01*
X77245Y-18326D01*
X77307Y-18540D01*
X77364Y-18755D01*
X77415Y-18971D01*
X77461Y-19188D01*
X77502Y-19407D01*
X77537Y-19626D01*
X77567Y-19847D01*
X77591Y-20067D01*
X77610Y-20289D01*
X77624Y-20511D01*
X77632Y-20733D01*
X77635Y-20955D01*
X77632Y-21177D01*
X77624Y-21399D01*
X77610Y-21621D01*
X77591Y-21843D01*
X77567Y-22063D01*
X77537Y-22284D01*
X77502Y-22503D01*
X77461Y-22722D01*
X77415Y-22939D01*
X77364Y-23155D01*
X77307Y-23370D01*
X77245Y-23584D01*
X77178Y-23795D01*
X77106Y-24006D01*
X77028Y-24214D01*
X76946Y-24420D01*
X76858Y-24624D01*
X76766Y-24827D01*
X76668Y-25026D01*
X76566Y-25223D01*
X76459Y-25418D01*
X76347Y-25610D01*
X76230Y-25799D01*
X76109Y-25986D01*
X75983Y-26169D01*
X75853Y-26349D01*
X75718Y-26526D01*
X75580Y-26699D01*
X75437Y-26869D01*
X75289Y-27036D01*
X75138Y-27199D01*
X74983Y-27358D01*
X74824Y-27513D01*
X74661Y-27664D01*
X74494Y-27812D01*
X74324Y-27955D01*
X74151Y-28093D01*
X73974Y-28228D01*
X73794Y-28358D01*
X73611Y-28484D01*
X73424Y-28605D01*
X73235Y-28722D01*
X73043Y-28834D01*
X72848Y-28941D01*
X72651Y-29043D01*
X72452Y-29141D01*
X72249Y-29233D01*
X72045Y-29321D01*
X71839Y-29403D01*
X71631Y-29481D01*
X71420Y-29553D01*
X71209Y-29620D01*
X70995Y-29682D01*
X70780Y-29739D01*
X70564Y-29790D01*
X70347Y-29836D01*
X70128Y-29877D01*
X69909Y-29912D01*
X69688Y-29942D01*
X69468Y-29966D01*
X69246Y-29985D01*
X69024Y-29999D01*
X68802Y-30007D01*
X68580Y-30010D01*
X68358Y-30007D01*
X68136Y-29999D01*
X67914Y-29985D01*
X67692Y-29966D01*
X67472Y-29942D01*
X67251Y-29912D01*
X67032Y-29877D01*
X66813Y-29836D01*
X66596Y-29790D01*
X66380Y-29739D01*
X66165Y-29682D01*
X65951Y-29620D01*
X65740Y-29553D01*
X65529Y-29481D01*
X65321Y-29403D01*
X65115Y-29321D01*
X64911Y-29233D01*
X64708Y-29141D01*
X64509Y-29043D01*
X64312Y-28941D01*
X64117Y-28834D01*
X63925Y-28722D01*
X63736Y-28605D01*
X63549Y-28484D01*
X63366Y-28358D01*
X63186Y-28228D01*
X63009Y-28093D01*
X62836Y-27955D01*
X62666Y-27812D01*
X62499Y-27664D01*
X62336Y-27513D01*
X62177Y-27358D01*
X62022Y-27199D01*
X61871Y-27036D01*
X61723Y-26869D01*
X61580Y-26699D01*
X61442Y-26526D01*
X61307Y-26349D01*
X61177Y-26169D01*
X61051Y-25986D01*
X60930Y-25799D01*
X60813Y-25610D01*
X60701Y-25418D01*
X60594Y-25223D01*
X60492Y-25026D01*
X60394Y-24827D01*
X60302Y-24624D01*
X60214Y-24420D01*
X60132Y-24214D01*
X60054Y-24006D01*
X59982Y-23795D01*
X59915Y-23584D01*
X59853Y-23370D01*
X59796Y-23155D01*
X59745Y-22939D01*
X59699Y-22722D01*
X59658Y-22503D01*
X59623Y-22284D01*
X59593Y-22063D01*
X59569Y-21843D01*
X59550Y-21621D01*
X59536Y-21399D01*
X59528Y-21177D01*
X59525Y-20955D01*
D22*
X68580Y-20955D03*
M02*
